<svg width="45" height="43" viewBox="0 0 45 43" fill="none" xmlns="http://www.w3.org/2000/svg">
<path d="M19.2437 4.90039C15.8792 4.90121 12.5806 5.83076 9.7138 7.58702C6.84291 9.34739 4.51905 11.8646 2.989 14.8588C1.46307 17.8572 0.792649 21.2217 1.05588 24.5738C1.32323 27.9259 2.50778 31.1423 4.48614 33.8651C6.46451 36.5879 9.15443 38.7103 12.2639 39.9976C15.3692 41.285 18.7748 41.6881 22.0981 41.1616C25.4214 40.6352 28.535 39.1997 31.0892 37.0157C33.6475 34.8276 35.5518 31.9772 36.5924 28.7814L19.2437 23.1425V4.90039Z" fill="white" stroke="white" stroke-width="1.33333"/>
<path d="M43.1339 24.8802C44.0223 22.1409 44.2526 19.2289 43.8043 16.3868C43.3519 13.5447 42.2372 10.8466 40.5427 8.51861C38.8522 6.19064 36.6312 4.29453 34.0688 2.98659C31.5023 1.67865 28.6643 1 25.7852 1V19.2413L43.1339 24.8802Z" fill="#8C8C8C" stroke="white" stroke-width="1.33333"/>
</svg>
