<svg width="90" height="38" viewBox="0 0 90 38" fill="none" xmlns="http://www.w3.org/2000/svg">
<g clip-path="url(#clip0_473_569)">
<path d="M3.11341 31.0403C1.49223 30.8803 1.28273 29.465 1.28273 29.465C0.0456563 26.4162 -0.0690722 23.3965 0.0257034 23.0039C0.120479 22.6113 1.12311 21.7631 1.28772 21.7001C1.45233 21.6371 3.0236 18.2442 5.67235 16.6205C8.32107 14.9967 17.9882 12.4909 18.5469 12.1273C19.1056 11.7638 28.7725 5.55486 33.9456 3.40283C39.1183 1.25077 43.3882 0.189288 56.0482 0.00995041C68.7082 -0.169387 79.7819 2.13292 80.4654 2.28317C81.1489 2.43343 85.3888 6.73754 87.2493 9.79596C89.1099 12.8544 88.8507 17.7643 88.9752 19.0052C89.1 20.246 89.7235 20.3672 89.8681 21.0942C90.0127 21.8212 90.0727 24.1333 89.8681 25.7085C89.6635 27.2838 89.2047 28.1369 88.7057 28.5779C88.4457 28.8078 86.0946 29.5003 83.7093 30.1105C83.5282 30.1567 83.3519 30.0246 83.3459 29.8439C83.2472 26.8831 81.356 21.5971 74.2924 21.5971C71.3607 21.6843 65.6745 23.6675 66.0654 30.8637C66.0742 31.0222 65.9448 31.1614 65.7804 31.1614H25.5219C25.3473 31.1614 25.2144 31.011 25.2347 30.8437C25.5837 27.9639 24.4616 22.5452 17.2642 21.5971C14.0033 21.4536 7.63248 23.1173 7.91086 30.8574C7.91652 31.0151 7.78636 31.1515 7.6232 31.1504C5.49563 31.1343 3.74094 31.102 3.11341 31.0403Z" fill="currentColor"/>
<path d="M16.5181 37.8166C11.9982 37.8166 8.49023 34.3952 8.49023 30.0619C8.49023 25.6304 12.0994 22.1439 16.6867 22.1439C21.2066 22.1439 24.8157 25.7607 24.7145 30.1269C24.647 34.3952 21.0379 37.8166 16.5181 37.8166Z" fill="currentColor"/>
<path d="M74.5376 37.8166C70.0178 37.8166 66.5098 34.3952 66.5098 30.0619C66.5098 25.6304 70.1188 22.1439 74.7063 22.1439C79.2261 22.1439 82.8351 25.7607 82.7341 30.1269C82.6665 34.3952 79.0574 37.8166 74.5376 37.8166Z" fill="currentColor"/>
</g>
<defs>
<clipPath id="clip0_473_569">
<rect width="90" height="38" fill="white"/>
</clipPath>
</defs>
</svg>
