<svg width="45" height="35" viewBox="0 0 45 35" fill="none" xmlns="http://www.w3.org/2000/svg">
<g clip-path="url(#clip0_763_178)">
<path d="M34.1229 12.1567H22.5703V13.7122H34.1229V12.1567Z" fill="#BDBDBD"/>
<path d="M37.4669 16.2672H22.5703V17.8228H37.4669V16.2672Z" fill="#808080"/>
<path d="M29.2233 20.3739H22.5703V21.9295H29.2233V20.3739Z" fill="#808080"/>
<path d="M29.2233 24.4844H22.5703V26.04H29.2233V24.4844Z" fill="#808080"/>
<path d="M37.4655 20.3739H30.8125V21.9295H37.4655V20.3739Z" fill="#808080"/>
<path d="M7.84375 12.1567V26.04H18.7175V12.1567H7.84375ZM9.39547 13.7122H17.1657V21.6145C16.6808 21.1711 16.1261 20.8172 15.5248 20.5645C15.905 20.0861 16.1261 19.4756 16.1261 18.8183C16.1261 17.2433 14.8498 15.9639 13.2787 15.9639C11.7114 15.9639 10.4351 17.2433 10.4351 18.8183C10.4351 19.4756 10.6562 20.0861 11.0364 20.5645C10.4312 20.8172 9.87651 21.1711 9.39547 21.6145V13.7122ZM13.2825 20.1172H13.2787C12.5649 20.1172 11.9869 19.5339 11.9869 18.8183C11.9869 18.1028 12.5649 17.5195 13.2787 17.5195C13.9963 17.5195 14.5744 18.1028 14.5744 18.8183C14.5744 19.5339 14.0002 20.1133 13.2825 20.1172ZM17.1657 24.4845H9.39547V24.2356C10.0627 22.6761 11.5718 21.6728 13.2787 21.6728H13.2825C14.9894 21.6728 16.5024 22.6761 17.1657 24.2433V24.4845Z" fill="#BDBDBD"/>
<path d="M43.3012 23.135C43.3012 23.1156 43.2974 23.1 43.2935 23.0806L41.1599 6.80557V6.80168L44.8142 0.155579H0.326172L3.98434 6.80168V6.80557L0.756774 31.395H3.70893L3.66626 34.9961H41.478L41.4275 29.8861C41.637 29.7072 41.8271 29.5089 42.0055 29.2989C43.2004 27.8756 43.6659 25.8339 43.3517 23.5161L43.3012 23.135ZM2.95634 1.71113H42.1879L39.8991 5.87224H5.24124L2.95634 1.71113ZM2.52574 29.8395L5.46624 7.42779H39.678L41.7068 22.9017C40.6439 23.7495 39.3599 24.1383 37.7925 24.0917L36.8149 24.0606L37.0089 25.0211C37.362 26.7789 37.0283 28.3578 35.9964 29.8395H2.52574ZM5.23736 33.4406L5.26452 31.395H36.9391C38.0331 31.395 39.0262 31.2083 39.8836 30.8428L39.9107 33.4406H5.23736ZM40.8185 28.2956C40.1163 29.1317 39.1155 29.6333 37.8391 29.7889C38.518 28.4861 38.7934 27.0939 38.6615 25.6278C39.8642 25.5461 40.9465 25.2195 41.9008 24.6517C41.9435 26.1333 41.5711 27.3972 40.8185 28.2956Z" fill="#BDBDBD"/>
</g>
<defs>
<clipPath id="clip0_763_178">
<rect width="45" height="35" fill="white"/>
</clipPath>
</defs>
</svg>
