<svg width="21" height="21" viewBox="0 0 21 21" fill="none" xmlns="http://www.w3.org/2000/svg">
<g clip-path="url(#clip0_1738_468)">
<path d="M18.375 5.90625H7.21875C7.0447 5.90625 6.87778 5.83711 6.75471 5.71404C6.63164 5.59097 6.5625 5.42405 6.5625 5.25C6.5625 5.07595 6.63164 4.90903 6.75471 4.78596C6.87778 4.66289 7.0447 4.59375 7.21875 4.59375H18.375C18.549 4.59375 18.716 4.66289 18.839 4.78596C18.9621 4.90903 19.0312 5.07595 19.0312 5.25C19.0312 5.42405 18.9621 5.59097 18.839 5.71404C18.716 5.83711 18.549 5.90625 18.375 5.90625Z" fill="black"/>
<path d="M4.59375 5.90625H2.625C2.45095 5.90625 2.28403 5.83711 2.16096 5.71404C2.03789 5.59097 1.96875 5.42405 1.96875 5.25C1.96875 5.07595 2.03789 4.90903 2.16096 4.78596C2.28403 4.66289 2.45095 4.59375 2.625 4.59375H4.59375C4.7678 4.59375 4.93472 4.66289 5.05779 4.78596C5.18086 4.90903 5.25 5.07595 5.25 5.25C5.25 5.42405 5.18086 5.59097 5.05779 5.71404C4.93472 5.83711 4.7678 5.90625 4.59375 5.90625Z" fill="black"/>
<path d="M13.7812 11.1562H2.625C2.45095 11.1562 2.28403 11.0871 2.16096 10.964C2.03789 10.841 1.96875 10.674 1.96875 10.5C1.96875 10.326 2.03789 10.159 2.16096 10.036C2.28403 9.91289 2.45095 9.84375 2.625 9.84375H13.7812C13.9553 9.84375 14.1222 9.91289 14.2453 10.036C14.3684 10.159 14.4375 10.326 14.4375 10.5C14.4375 10.674 14.3684 10.841 14.2453 10.964C14.1222 11.0871 13.9553 11.1562 13.7812 11.1562Z" fill="black"/>
<path d="M7.21875 16.4062H2.625C2.45095 16.4062 2.28403 16.3371 2.16096 16.214C2.03789 16.091 1.96875 15.924 1.96875 15.75C1.96875 15.576 2.03789 15.409 2.16096 15.286C2.28403 15.1629 2.45095 15.0938 2.625 15.0938H7.21875C7.3928 15.0938 7.55972 15.1629 7.68279 15.286C7.80586 15.409 7.875 15.576 7.875 15.75C7.875 15.924 7.80586 16.091 7.68279 16.214C7.55972 16.3371 7.3928 16.4062 7.21875 16.4062Z" fill="black"/>
<path d="M5.90625 7.21875C5.51687 7.21875 5.13623 7.10329 4.81247 6.88696C4.48871 6.67063 4.23637 6.36315 4.08736 6.00341C3.93835 5.64367 3.89937 5.24782 3.97533 4.86592C4.05129 4.48402 4.2388 4.13322 4.51413 3.85788C4.78947 3.58255 5.14027 3.39504 5.52217 3.31908C5.90407 3.24312 6.29992 3.2821 6.65966 3.43111C7.0194 3.58012 7.32688 3.83246 7.54321 4.15622C7.75954 4.47998 7.875 4.86062 7.875 5.25C7.875 5.77215 7.66758 6.27291 7.29837 6.64212C6.92916 7.01133 6.4284 7.21875 5.90625 7.21875ZM5.90625 4.59375C5.77646 4.59375 5.64958 4.63224 5.54166 4.70435C5.43374 4.77646 5.34962 4.87895 5.29995 4.99886C5.25028 5.11878 5.23729 5.25073 5.26261 5.37803C5.28793 5.50533 5.35043 5.62226 5.44221 5.71404C5.53399 5.80582 5.65092 5.86832 5.77822 5.89364C5.90552 5.91896 6.03747 5.90597 6.15739 5.8563C6.2773 5.80663 6.37979 5.72251 6.4519 5.61459C6.52401 5.50667 6.5625 5.37979 6.5625 5.25C6.5625 5.07595 6.49336 4.90903 6.37029 4.78596C6.24722 4.66289 6.0803 4.59375 5.90625 4.59375Z" fill="black"/>
<path d="M15.0938 12.4688C14.7044 12.4688 14.3237 12.3533 14 12.137C13.6762 11.9206 13.4239 11.6132 13.2749 11.2534C13.1259 10.8937 13.0869 10.4978 13.1628 10.1159C13.2388 9.73402 13.4263 9.38322 13.7016 9.10788C13.977 8.83255 14.3278 8.64504 14.7097 8.56908C15.0916 8.49312 15.4874 8.5321 15.8472 8.68111C16.2069 8.83012 16.5144 9.08246 16.7307 9.40622C16.947 9.72998 17.0625 10.1106 17.0625 10.5C17.0625 11.0221 16.8551 11.5229 16.4859 11.8921C16.1167 12.2613 15.6159 12.4688 15.0938 12.4688ZM15.0938 9.84375C14.964 9.84375 14.8371 9.88224 14.7292 9.95435C14.6212 10.0265 14.5371 10.129 14.4875 10.2489C14.4378 10.3688 14.4248 10.5007 14.4501 10.628C14.4754 10.7553 14.5379 10.8723 14.6297 10.964C14.7215 11.0558 14.8384 11.1183 14.9657 11.1436C15.093 11.169 15.225 11.156 15.3449 11.1063C15.4648 11.0566 15.5673 10.9725 15.6394 10.8646C15.7115 10.7567 15.75 10.6298 15.75 10.5C15.75 10.326 15.6809 10.159 15.5578 10.036C15.4347 9.91289 15.2678 9.84375 15.0938 9.84375Z" fill="black"/>
<path d="M8.53125 17.7188C8.14187 17.7188 7.76123 17.6033 7.43747 17.387C7.11371 17.1706 6.86137 16.8632 6.71236 16.5034C6.56335 16.1437 6.52437 15.7478 6.60033 15.3659C6.67629 14.984 6.8638 14.6332 7.13913 14.3579C7.41447 14.0825 7.76527 13.895 8.14717 13.8191C8.52907 13.7431 8.92492 13.7821 9.28466 13.9311C9.6444 14.0801 9.95188 14.3325 10.1682 14.6562C10.3845 14.98 10.5 15.3606 10.5 15.75C10.5 16.2721 10.2926 16.7729 9.92337 17.1421C9.55416 17.5113 9.0534 17.7188 8.53125 17.7188ZM8.53125 15.0938C8.40146 15.0938 8.27458 15.1322 8.16666 15.2043C8.05874 15.2765 7.97462 15.379 7.92496 15.4989C7.87528 15.6188 7.86229 15.7507 7.88761 15.878C7.91293 16.0053 7.97543 16.1223 8.06721 16.214C8.15899 16.3058 8.27592 16.3683 8.40322 16.3936C8.53052 16.419 8.66247 16.406 8.78239 16.3563C8.9023 16.3066 9.00479 16.2225 9.0769 16.1146C9.14901 16.0067 9.1875 15.8798 9.1875 15.75C9.1875 15.576 9.11836 15.409 8.99529 15.286C8.87222 15.1629 8.7053 15.0938 8.53125 15.0938Z" fill="black"/>
<path d="M18.375 11.1562H16.4062C16.2322 11.1562 16.0653 11.0871 15.9422 10.964C15.8191 10.841 15.75 10.674 15.75 10.5C15.75 10.326 15.8191 10.159 15.9422 10.036C16.0653 9.91289 16.2322 9.84375 16.4062 9.84375H18.375C18.549 9.84375 18.716 9.91289 18.839 10.036C18.9621 10.159 19.0312 10.326 19.0312 10.5C19.0312 10.674 18.9621 10.841 18.839 10.964C18.716 11.0871 18.549 11.1562 18.375 11.1562Z" fill="black"/>
<path d="M18.375 16.4062H9.84375C9.6697 16.4062 9.50278 16.3371 9.37971 16.214C9.25664 16.091 9.1875 15.924 9.1875 15.75C9.1875 15.576 9.25664 15.409 9.37971 15.286C9.50278 15.1629 9.6697 15.0938 9.84375 15.0938H18.375C18.549 15.0938 18.716 15.1629 18.839 15.286C18.9621 15.409 19.0312 15.576 19.0312 15.75C19.0312 15.924 18.9621 16.091 18.839 16.214C18.716 16.3371 18.549 16.4062 18.375 16.4062Z" fill="black"/>
</g>
<defs>
<clipPath id="clip0_1738_468">
<rect width="21" height="21" fill="white"/>
</clipPath>
</defs>
</svg>
