<svg width="27" height="26" viewBox="0 0 27 26" fill="none" xmlns="http://www.w3.org/2000/svg">
<path d="M20.4 7.475H21.7C22.418 7.475 23 6.89297 23 6.175V2.275C23 1.55703 22.418 0.975 21.7 0.975H20.4C19.682 0.975 19.1 1.55703 19.1 2.275V3.25H7.4V2.275C7.4 1.55703 6.81797 0.975 6.1 0.975H4.8C4.08203 0.975 3.5 1.55703 3.5 2.275V6.175C3.5 6.89297 4.08203 7.475 4.8 7.475H6.1C6.81797 7.475 7.4 6.89297 7.4 6.175V5.2H12.275V12.4886C12.5854 12.4003 12.9117 12.35 13.25 12.35C13.5883 12.35 13.9146 12.4003 14.225 12.4886V5.2H19.1V6.175C19.1 6.89297 19.682 7.475 20.4 7.475Z" fill="black"/>
<path d="M5.4498 25.025C6.16777 25.025 6.7498 24.443 6.7498 23.725V22.425H9.3498V23.075C9.3498 23.434 9.64082 23.725 9.9998 23.725H16.4998C16.8588 23.725 17.1498 23.434 17.1498 23.075V22.425H19.7498V23.725C19.7498 24.443 20.3318 25.025 21.0498 25.025H23.6498C24.3678 25.025 24.9498 24.443 24.9498 23.725V18.525C24.9498 17.807 24.3678 17.225 23.6498 17.225H21.0498C20.3318 17.225 19.7498 17.807 19.7498 18.525V19.825H17.1498V18.7501C17.1498 18.4565 16.947 18.2142 16.6666 18.1269C16.0051 17.9212 15.5248 17.3042 15.5248 16.575V15.925C15.5248 15.6109 15.4612 15.3117 15.346 15.0395C15.1158 14.4951 14.6797 14.059 14.1353 13.8288C13.8631 13.7136 13.5639 13.65 13.2498 13.65C12.9357 13.65 12.6364 13.7136 12.3643 13.8288C11.8199 14.059 11.3838 14.4951 11.1536 15.0395C11.0384 15.3117 10.9748 15.6109 10.9748 15.925V16.575C10.9748 17.3042 10.4945 17.9212 9.83303 18.1269C9.55262 18.2142 9.3498 18.4565 9.3498 18.7501V19.825H6.7498V18.525C6.7498 17.807 6.16777 17.225 5.4498 17.225H2.8498C2.13183 17.225 1.5498 17.807 1.5498 18.525V23.725C1.5498 24.443 2.13183 25.025 2.8498 25.025H5.4498Z" fill="black"/>
</svg>
