<svg width="27" height="27" viewBox="0 0 27 27" fill="none" xmlns="http://www.w3.org/2000/svg">
<path d="M13.5 1.125L3.375 5.625V12.375C3.375 18.2812 7.03125 23.625 13.5 25.875C19.9688 23.625 23.625 18.2812 23.625 12.375V5.625L13.5 1.125Z" stroke="black" stroke-width="2" stroke-linecap="round" stroke-linejoin="round"/>
<path d="M10.125 10.125L16.875 16.875" stroke="black" stroke-width="2" stroke-linecap="round" stroke-linejoin="round"/>
<path d="M10.125 18C10.7463 18 11.25 17.4963 11.25 16.875C11.25 16.2537 10.7463 15.75 10.125 15.75C9.50368 15.75 9 16.2537 9 16.875C9 17.4963 9.50368 18 10.125 18Z" stroke="black" stroke-width="2" stroke-linecap="round" stroke-linejoin="round"/>
<path d="M16.875 11.25C17.4963 11.25 18 10.7463 18 10.125C18 9.50368 17.4963 9 16.875 9C16.2537 9 15.75 9.50368 15.75 10.125C15.75 10.7463 16.2537 11.25 16.875 11.25Z" stroke="black" stroke-width="2" stroke-linecap="round" stroke-linejoin="round"/>
</svg>
