<svg width="27" height="26" viewBox="0 0 27 26" fill="none" xmlns="http://www.w3.org/2000/svg">
<g clip-path="url(#clip0_2417_830)">
<path d="M22.5083 17.3223C21.9907 15.8045 21.5498 13.893 21.5498 11.7551V9.18352C21.5498 8.31036 20.9734 7.54293 20.1332 7.30549C19.587 7.15112 18.9678 7.01861 18.2998 6.90753V19.889C19.0146 20.0008 19.682 20.1408 20.2932 20.3048C20.4817 18.9797 21.3363 17.8692 22.5083 17.3223Z" fill="black"/>
<path d="M5.94971 9.18352V11.7551C5.94971 13.893 5.50883 15.8045 4.99121 17.3223C6.16323 17.8692 7.01778 18.9797 7.20627 20.3048C7.81747 20.1408 8.48496 20.0008 9.19971 19.889V6.90753C8.53173 7.01862 7.9126 7.15113 7.36634 7.30549C6.52611 7.54293 5.94971 8.31036 5.94971 9.18352Z" fill="black"/>
<path d="M20.25 21.6492C20.2107 21.6353 20.1739 21.617 20.1334 21.6055C18.4927 21.1419 16.2406 20.8551 13.75 20.8551C11.2594 20.8551 9.00739 21.1419 7.36664 21.6055C7.32609 21.617 7.28927 21.6353 7.25 21.6492V26.0551H20.25V21.6492Z" fill="black"/>
<path d="M5.95 26.0551V20.8551C5.95 19.4191 4.78596 18.2551 3.35 18.2551C1.91404 18.2551 0.75 19.4191 0.75 20.8551V23.4551C0.75 24.891 1.91408 26.0551 3.35 26.0551H5.95Z" fill="black"/>
<path d="M21.5498 20.8551V26.0551H24.1498C25.5858 26.0551 26.7498 24.891 26.7498 23.4551V20.8551C26.7498 19.4191 25.5858 18.2551 24.1498 18.2551C22.7138 18.2551 21.5498 19.4191 21.5498 20.8551Z" fill="black"/>
<path d="M10.4998 7.85508V19.7225C11.5331 19.6144 12.6269 19.5551 13.7498 19.5551C14.8727 19.5551 15.9666 19.6144 16.9998 19.7225V5.25508H17.6498C18.3678 5.25508 18.9498 4.67303 18.9498 3.95508V2.5065C18.9498 1.70234 18.4631 0.96787 17.7092 0.68798C16.6477 0.293872 15.265 0.0550423 13.7498 0.0550423C12.2346 0.0550423 10.8519 0.293872 9.79041 0.68798C9.03655 0.96787 8.5498 1.70234 8.5498 2.5065V3.95508C8.5498 4.67304 9.13185 5.25508 9.8498 5.25508H10.4998V7.85508ZM15.6998 5.25508V6.61681C15.0713 6.57737 14.4203 6.55508 13.7498 6.55508C13.0794 6.55508 12.4284 6.57737 11.7998 6.61681V5.25508H15.6998Z" fill="black"/>
</g>
<defs>
<clipPath id="clip0_2417_830">
<rect width="26" height="26" fill="white" transform="translate(0.75)"/>
</clipPath>
</defs>
</svg>
