<svg width="56" height="57" viewBox="0 0 56 57" fill="none" xmlns="http://www.w3.org/2000/svg">
<path d="M38.5181 8.47966C33.3257 8.06772 28.7443 10.9019 26.5595 15.16H10.6395C10.021 15.16 9.51953 15.6614 9.51953 16.28V23H13.9995C18.3299 23.0007 21.8388 26.5096 21.8395 30.84C21.8388 35.1703 18.3299 38.6792 13.9995 38.6799L9.51953 38.68V45.4C9.51953 46.0185 10.021 46.52 10.6395 46.52H44.2395C44.8581 46.52 45.3595 46.0185 45.3595 45.4V30.256C48.3601 27.7743 50.1699 23.9013 49.7892 19.6347C49.2612 13.7182 44.4394 8.94945 38.5181 8.47966ZM37.5195 30.84C31.9525 30.84 27.4395 26.327 27.4395 20.76C27.4395 15.193 31.9525 10.68 37.5195 10.68C43.0865 10.68 47.5995 15.1929 47.5995 20.76C47.5995 26.327 43.0866 30.84 37.5195 30.84Z" fill="currentColor"/>
<path d="M41.4398 26.36C42.3676 26.36 43.1198 25.6078 43.1198 24.68C43.1198 23.7522 42.3676 23 41.4398 23C40.512 23 39.7598 23.7522 39.7598 24.68C39.7598 25.6078 40.512 26.36 41.4398 26.36Z" fill="currentColor"/>
<path d="M41.4393 20.7599H41.9993C42.6178 20.7599 43.1193 20.2585 43.1193 19.64C43.1193 19.0215 42.6178 18.52 41.9993 18.52H41.4393C38.0373 18.52 35.2793 21.2779 35.2793 24.68V25.2401C35.2793 25.8586 35.7807 26.36 36.3993 26.36C37.0178 26.36 37.5193 25.8586 37.5193 25.2401V24.68C37.5202 24.1899 37.6213 23.7257 37.7859 23.2934C38.1812 22.2554 39.0175 21.42 40.0557 21.0255C40.4871 20.8615 40.9502 20.7608 41.4393 20.7599Z" fill="currentColor"/>
<path d="M40.2228 16.378C40.6214 16.32 41.0257 16.2801 41.4408 16.2799H42.0008C42.6194 16.2799 43.1208 15.7785 43.1208 15.16C43.1208 14.5414 42.6194 14.04 42.0008 14.04H41.4408C35.5645 14.04 30.8008 18.8037 30.8008 24.68V25.24C30.8008 25.8586 31.3023 26.36 31.9208 26.36C32.5393 26.36 33.0408 25.8586 33.0408 25.24V24.68C33.0409 24.2648 33.081 23.8604 33.1389 23.4619C33.4053 21.6303 34.2512 19.9916 35.5012 18.7402C36.7525 17.4903 38.3913 16.6443 40.2228 16.378Z" fill="currentColor"/>
<path d="M17.96 34.7998C18.9751 33.7828 19.5996 32.3899 19.6002 30.84C19.5996 29.29 18.9751 27.8971 17.96 26.8802C16.943 25.865 15.5502 25.2406 14.0002 25.24H7.28016C6.66161 25.24 6.16016 25.7415 6.16016 26.36V35.32C6.16016 35.9386 6.66161 36.44 7.28016 36.44H14.0002C15.5502 36.4394 16.943 35.8149 17.96 34.7998ZM11.7602 30.84C11.7602 29.6029 12.7631 28.6 14.0002 28.6C15.2373 28.6 16.2402 29.6029 16.2402 30.84C16.2402 32.0771 15.2373 33.08 14.0002 33.08C12.7631 33.08 11.7602 32.0771 11.7602 30.84Z" fill="currentColor"/>
</svg>
