<svg width="27" height="26" viewBox="0 0 27 26" fill="none" xmlns="http://www.w3.org/2000/svg">
<g clip-path="url(#clip0_2448_1266)">
<path d="M2.86543 23.4C2.18168 23.4 1.62476 23.6782 1.42681 24.1186L0.772263 25.5749C0.677911 25.7848 0.895255 26 1.20164 26H26.2984C26.6048 26 26.8221 25.7848 26.7277 25.5749L25.4889 22.8186C25.2909 22.3782 24.734 22.1 24.0502 22.1H23.3606L22.1919 19.5H22.1813C21.982 19.0613 21.4268 18.7842 20.7446 18.7842H20.0551L18.958 16.3213C18.7611 15.8794 18.2034 15.6 17.518 15.6H15.6463L13.75 10.4L14.0782 3.2504C14.0787 1.45528 12.1523 0 8.66249 0C7.09219 0 5.65567 0.294626 4.55057 0.782327C2.75601 1.5743 2.39162 3.29581 3.65328 4.50897L9.77981 10.4L11.4099 15.6H9.98195C9.29814 15.6 8.74116 15.8782 8.54316 16.3186L7.69761 18.2H11.5741C12.0726 18.2 12.4767 18.491 12.4767 18.85V19.5H6.42377C5.73992 19.5 5.18294 19.7782 4.98499 20.2186L4.13938 22.1H13.3794C13.8779 22.1 14.282 22.391 14.282 22.75V23.4L2.86543 23.4Z" fill="black"/>
</g>
<defs>
<clipPath id="clip0_2448_1266">
<rect width="26" height="26" fill="white" transform="translate(0.75)"/>
</clipPath>
</defs>
</svg>
