<svg width="26" height="26" viewBox="0 0 26 26" fill="none" xmlns="http://www.w3.org/2000/svg">
<path d="M23.4002 3.25H20.1502V1.68016C20.1502 1.15221 19.7549 0.678982 19.2276 0.651376C18.6653 0.621938 18.2002 1.06914 18.2002 1.625V3.25H7.8002V1.68016C7.8002 1.15221 7.40486 0.678982 6.87762 0.651376C6.31534 0.621938 5.8502 1.06914 5.8502 1.625V3.25H2.6002C2.24121 3.25 1.9502 3.54102 1.9502 3.9V6.33405C1.9502 6.69303 2.24121 6.98405 2.6002 6.98405H23.4002C23.7592 6.98405 24.0502 6.69303 24.0502 6.33405V3.9C24.0502 3.54102 23.7592 3.25 23.4002 3.25Z" fill="black"/>
<path d="M23.4002 8.28405H2.6002C2.24121 8.28405 1.9502 8.57507 1.9502 8.93405V23.4C1.9502 23.759 2.24121 24.05 2.6002 24.05H23.4002C23.7592 24.05 24.0502 23.759 24.0502 23.4V8.93405C24.0502 8.57507 23.7592 8.28405 23.4002 8.28405ZM18.2002 11.05H19.5002C19.8592 11.05 20.1502 11.341 20.1502 11.7V13C20.1502 13.359 19.8592 13.65 19.5002 13.65H18.2002C17.8412 13.65 17.5502 13.359 17.5502 13V11.7C17.5502 11.341 17.8412 11.05 18.2002 11.05ZM14.3002 11.05H15.6002C15.9592 11.05 16.2502 11.341 16.2502 11.7V13C16.2502 13.359 15.9592 13.65 15.6002 13.65H14.3002C13.9412 13.65 13.6502 13.359 13.6502 13V11.7C13.6502 11.341 13.9412 11.05 14.3002 11.05ZM15.6002 17.55H14.3002C13.9412 17.55 13.6502 17.259 13.6502 16.9V15.6C13.6502 15.241 13.9412 14.95 14.3002 14.95H15.6002C15.9592 14.95 16.2502 15.241 16.2502 15.6V16.9C16.2502 17.259 15.9592 17.55 15.6002 17.55ZM6.5002 14.95H7.8002C8.15918 14.95 8.4502 15.241 8.4502 15.6V16.9C8.4502 17.259 8.15918 17.55 7.8002 17.55H6.5002C6.14121 17.55 5.8502 17.259 5.8502 16.9V15.6C5.8502 15.241 6.14121 14.95 6.5002 14.95ZM10.4002 14.95H11.7002C12.0592 14.95 12.3502 15.241 12.3502 15.6V16.9C12.3502 17.259 12.0592 17.55 11.7002 17.55H10.4002C10.0412 17.55 9.7502 17.259 9.7502 16.9V15.6C9.7502 15.241 10.0412 14.95 10.4002 14.95ZM11.7002 13.65H10.4002C10.0412 13.65 9.7502 13.359 9.7502 13V11.7C9.7502 11.341 10.0412 11.05 10.4002 11.05H11.7002C12.0592 11.05 12.3502 11.341 12.3502 11.7V13C12.3502 13.359 12.0592 13.65 11.7002 13.65ZM7.8002 21.45H6.5002C6.14121 21.45 5.8502 21.159 5.8502 20.8V19.5C5.8502 19.141 6.14121 18.85 6.5002 18.85H7.8002C8.15918 18.85 8.4502 19.141 8.4502 19.5V20.8C8.4502 21.159 8.15918 21.45 7.8002 21.45ZM11.7002 21.45H10.4002C10.0412 21.45 9.7502 21.159 9.7502 20.8V19.5C9.7502 19.141 10.0412 18.85 10.4002 18.85H11.7002C12.0592 18.85 12.3502 19.141 12.3502 19.5V20.8C12.3502 21.159 12.0592 21.45 11.7002 21.45ZM15.6002 21.45H14.3002C13.9412 21.45 13.6502 21.159 13.6502 20.8V19.5C13.6502 19.141 13.9412 18.85 14.3002 18.85H15.6002C15.9592 18.85 16.2502 19.141 16.2502 19.5V20.8C16.2502 21.159 15.9592 21.45 15.6002 21.45ZM19.5002 17.55H18.2002C17.8412 17.55 17.5502 17.259 17.5502 16.9V15.6C17.5502 15.241 17.8412 14.95 18.2002 14.95H19.5002C19.8592 14.95 20.1502 15.241 20.1502 15.6V16.9C20.1502 17.259 19.8592 17.55 19.5002 17.55Z" fill="black"/>
</svg>
