<svg width="17" height="17" viewBox="0 0 17 17" fill="none" xmlns="http://www.w3.org/2000/svg">
<path d="M2.83464 2.83331H14.168C14.5437 2.83331 14.904 2.98257 15.1697 3.24824C15.4354 3.51392 15.5846 3.87426 15.5846 4.24998V12.75C15.5846 13.1257 15.4354 13.486 15.1697 13.7517C14.904 14.0174 14.5437 14.1666 14.168 14.1666H2.83464C2.45891 14.1666 2.09858 14.0174 1.8329 13.7517C1.56722 13.486 1.41797 13.1257 1.41797 12.75V4.24998C1.41797 3.87426 1.56722 3.51392 1.8329 3.24824C2.09858 2.98257 2.45891 2.83331 2.83464 2.83331Z" stroke="black" stroke-width="0.9375" stroke-linecap="round" stroke-linejoin="round"/>
<path d="M15.5846 4.25L8.5013 9.20833L1.41797 4.25" stroke="black" stroke-width="0.9375" stroke-linecap="round" stroke-linejoin="round"/>
</svg>
