<svg width="40" height="40" viewBox="0 0 40 40" fill="none" xmlns="http://www.w3.org/2000/svg">
<g clip-path="url(#clip0_855_2)">
<mask id="mask0_855_2" style="mask-type:luminance" maskUnits="userSpaceOnUse" x="0" y="0" width="40" height="40">
<path d="M40 0H0V40H40V0Z" fill="white"/>
<path d="M20 25C22.7614 25 25 22.7614 25 20C25 17.2386 22.7614 15 20 15C17.2386 15 15 17.2386 15 20C15 22.7614 17.2386 25 20 25Z" fill="black"/>
</mask>
<g mask="url(#mask0_855_2)">
<path d="M32.3346 25C32.1128 25.5027 32.0466 26.0603 32.1446 26.601C32.2427 27.1416 32.5004 27.6405 32.8846 28.0333L32.9846 28.1333C33.2943 28.443 33.54 28.8107 33.7076 29.2153C33.8752 29.62 33.9615 30.0537 33.9615 30.4917C33.9615 30.9296 33.8752 31.3633 33.7076 31.768C33.54 32.1726 33.2943 32.5403 32.9846 32.85C32.6749 33.1597 32.3073 33.4054 31.9026 33.573C31.498 33.7406 31.0643 33.8268 30.6263 33.8268C30.1883 33.8268 29.7546 33.7406 29.35 33.573C28.9453 33.4054 28.5777 33.1597 28.268 32.85L28.168 32.75C27.7752 32.3658 27.2763 32.108 26.7356 32.01C26.195 31.9119 25.6373 31.9781 25.1346 32.2C24.6417 32.4113 24.2213 32.7621 23.9251 33.2092C23.629 33.6564 23.4701 34.1803 23.468 34.7167V35C23.468 35.884 23.1168 36.7319 22.4917 37.357C21.8665 37.9821 21.0187 38.3333 20.1346 38.3333C19.2506 38.3333 18.4027 37.9821 17.7776 37.357C17.1525 36.7319 16.8013 35.884 16.8013 35V34.85C16.7992 34.3137 16.6402 33.7897 16.3441 33.3425C16.048 32.8954 15.6276 32.5446 15.1346 32.3333C14.6319 32.1115 14.0743 32.0453 13.5337 32.1433C12.993 32.2413 12.4941 32.4991 12.1013 32.8833L12.0013 32.9833C11.3758 33.6088 10.5275 33.9602 9.64297 33.9602C8.75842 33.9602 7.9101 33.6088 7.28463 32.9833C6.65917 32.3579 6.30778 31.5095 6.30778 30.625C6.30778 29.7404 6.65917 28.8921 7.28463 28.2667L7.38463 28.1667C7.76886 27.7739 8.02661 27.275 8.12464 26.7343C8.22267 26.1936 8.15649 25.636 7.93464 25.1333C7.72336 24.6404 7.37256 24.22 6.92541 23.9238C6.47826 23.6277 5.95428 23.4688 5.41797 23.4667H5.0013C4.11725 23.4667 3.2694 23.1155 2.64428 22.4903C2.01916 21.8652 1.66797 21.0174 1.66797 20.1333C1.66797 19.2493 2.01916 18.4014 2.64428 17.7763C3.2694 17.1512 4.11725 16.8 5.0013 16.8H5.1513C5.68761 16.7978 6.21159 16.6389 6.65874 16.3428C7.10589 16.0467 7.4567 15.6263 7.66797 15.1333C7.88983 14.6306 7.95601 14.073 7.85798 13.5323C7.75994 12.9917 7.5022 12.4928 7.11797 12.1L7.01797 12C6.3925 11.3745 6.04111 10.5262 6.04111 9.64166C6.04111 8.75711 6.3925 7.90879 7.01797 7.28332C7.64344 6.65785 8.49176 6.30647 9.3763 6.30647C10.2608 6.30647 11.1092 6.65785 11.7346 7.28332L11.8346 7.38332C12.2274 7.76755 12.7263 8.0253 13.267 8.12333C13.8076 8.22136 14.3653 8.15518 14.868 7.93332H15.018C15.5109 7.72205 15.9313 7.37125 16.2275 6.9241C16.5236 6.47695 16.6825 5.95297 16.6846 5.41666V4.99999C16.6846 4.11593 17.0358 3.26809 17.6609 2.64297C18.2861 2.01785 19.1339 1.66666 20.018 1.66666C20.902 1.66666 21.7499 2.01785 22.375 2.64297C23.0001 3.26809 23.3513 4.11593 23.3513 4.99999V5.14999C23.3534 5.6863 23.5124 6.21028 23.8085 6.65743C24.1046 7.10458 24.525 7.45538 25.018 7.66666H25.168C25.6707 7.88851 26.2283 7.95469 26.7689 7.85666C27.3096 7.75863 27.8085 7.50088 28.2013 7.11666L28.3013 7.01666C28.611 6.70696 28.9787 6.46129 29.3833 6.29368C29.788 6.12607 30.2217 6.0398 30.6596 6.0398C31.0976 6.0398 31.5313 6.12607 31.936 6.29368C32.3406 6.46129 32.7083 6.70696 33.018 7.01666C33.3277 7.32636 33.5733 7.69403 33.7409 8.09867C33.9086 8.50331 33.9948 8.93701 33.9948 9.37499C33.9948 9.81297 33.9086 10.2467 33.7409 10.6513C33.5733 11.056 33.3277 11.4236 33.018 11.7333L32.918 11.8333C32.5337 12.2261 32.276 12.725 32.178 13.2657C32.0799 13.8063 32.1461 14.364 32.368 14.8667V15.0167C32.5792 15.5096 32.93 15.93 33.3772 16.2261C33.8243 16.5223 34.3483 16.6812 34.8846 16.6833H35.0013C35.8854 16.6833 36.7332 17.0345 37.3583 17.6596C37.9834 18.2848 38.3346 19.1326 38.3346 20.0167C38.3346 20.9007 37.9834 21.7486 37.3583 22.3737C36.7332 22.9988 35.8854 23.35 35.0013 23.35H34.8513C34.315 23.3521 33.791 23.511 33.3439 23.8072C32.8967 24.1033 32.5459 24.5237 32.3346 25.0167V25Z" fill="white"/>
</g>
</g>
<defs>
<clipPath id="clip0_855_2">
<rect width="40" height="40" fill="white"/>
</clipPath>
</defs>
</svg>
