<svg width="31" height="37" viewBox="0 0 31 37" fill="none" xmlns="http://www.w3.org/2000/svg">
<path d="M14.7758 0.142574C14.6082 0.22636 14.1359 0.637691 13.7246 1.04902C10.7387 4.10351 7.10528 5.88593 2.78633 6.41914C1.5752 6.57148 1.19434 6.76953 0.851564 7.41699C0.691603 7.70644 0.683986 7.84355 0.661134 9.89257C0.630666 12.49 0.744923 15.1865 0.94297 16.5957C1.55235 20.8309 3.00723 24.6395 5.37617 28.1738C6.45781 29.7887 7.28809 30.7865 8.78867 32.2947C10.5863 34.0848 12.0412 35.235 14.0445 36.4461L14.9129 36.9717H15.4918C16.0098 36.9717 16.1164 36.9412 16.5277 36.7127C17.3428 36.248 19.0947 35.0521 19.9555 34.3742C21.0295 33.5211 23.3527 31.1979 24.2135 30.1162C26.9252 26.7037 28.8295 22.7123 29.7055 18.5686C30.2006 16.2377 30.3834 13.6936 30.3377 9.89257C30.3148 7.84355 30.3072 7.70644 30.1473 7.41699C29.8045 6.76953 29.4313 6.5791 28.2049 6.41914C23.8631 5.86308 20.2678 4.10351 17.2895 1.06425C16.8705 0.637691 16.3906 0.22636 16.2154 0.142574C15.8117 -0.0554733 15.1795 -0.0554733 14.7758 0.142574ZM22.0197 12.3986C22.1797 12.5205 22.6139 12.909 22.9871 13.2594C23.9697 14.1963 24.0078 14.0592 22.1492 16.1539C21.3189 17.0908 19.4299 19.2236 17.9522 20.8994C14.7225 24.5557 14.7529 24.5176 14.3949 24.5176C14.0598 24.5176 14.235 24.6775 11.1881 21.4707C8.0041 18.1191 8.18692 18.3324 8.18692 17.9896C8.18692 17.7307 8.25547 17.6393 9.04766 16.8471C10.2588 15.6283 10.0531 15.5902 12.2164 17.4717C14.3721 19.3531 14.1893 19.315 15.3471 18.1344C15.7889 17.685 17.2895 16.1615 18.6834 14.7447C21.0143 12.3758 21.2275 12.1777 21.4637 12.1777C21.6313 12.1777 21.8293 12.2539 22.0197 12.3986Z" fill="white"/>
</svg>
