<svg
        viewBox="0 0 351 60"
        xmlns="http://www.w3.org/2000/svg"
        preserveAspectRatio="none"
        style="width:100%;height:auto;display:block;"
>
    <mask id="path-1-inside-1_85_1070" fill="white">
        <path d="M330.179 0C341.224 8.61801e-05 350.179 8.95436 350.179 20V40C350.179 51.0456 341.224 59.9999 330.179 60H1.33484C-0.296559 60 -0.451535 57.826 0.974605 57.0338C9.69991 52.187 15.7206 41.9041 15.7206 30C15.7206 18.0958 9.69992 7.81204 0.974477 2.96511C-0.451575 2.17295 -0.296462 3.57779e-05 1.33484 0H330.179Z"/>
    </mask>
    <path d="M330.179 0V-0.5V0ZM330.179 60V60.5V60ZM15.7206 30H16.2206H15.7206ZM0.974477 2.96511L0.731676 3.4022L0.974477 2.96511ZM0.974605 57.0338L1.2174 57.4709L0.974605 57.0338ZM330.179 0V-0.5H329.176V0V0.5H330.179V0ZM327.171 0V-0.5H325.166V0V0.5H327.171V0ZM323.161 0V-0.5H321.155V0V0.5H323.161V0ZM319.15 0V-0.5H317.145V0V0.5H319.15V0ZM315.14 0V-0.5H313.135V0V0.5H315.14V0ZM311.13 0V-0.5H309.125V0V0.5H311.13V0ZM307.119 0V-0.5H305.114V0V0.5H307.119V0ZM303.109 0V-0.5H301.104V0V0.5H303.109V0ZM299.099 0V-0.5H297.094V0V0.5H299.099V0ZM295.089 0V-0.5H293.083V0V0.5H295.089V0ZM291.078 0V-0.5H289.073V0V0.5H291.078V0ZM287.068 0V-0.5H285.063V0V0.5H287.068V0ZM283.058 0V-0.5H281.053V0V0.5H283.058V0ZM279.047 0V-0.5H277.042V0V0.5H279.047V0ZM275.037 0V-0.5H273.032V0V0.5H275.037V0ZM271.027 0V-0.5H269.022V0V0.5H271.027V0ZM267.017 0V-0.5H265.011V0V0.5H267.017V0ZM263.006 0V-0.5H261.001V0V0.5H263.006V0ZM258.996 0V-0.5H256.991V0V0.5H258.996V0ZM254.986 0V-0.5H252.981V0V0.5H254.986V0ZM250.975 0V-0.5H248.97V0V0.5H250.975V0ZM246.965 0V-0.5H244.96V0V0.5H246.965V0ZM242.955 0V-0.5H240.95V0V0.5H242.955V0ZM238.945 0V-0.5H236.939V0V0.5H238.945V0ZM234.934 0V-0.5H232.929V0V0.5H234.934V0ZM230.924 0V-0.5H228.919V0V0.5H230.924V0ZM226.914 0V-0.5H224.909V0V0.5H226.914V0ZM222.903 0V-0.5H220.898V0V0.5H222.903V0ZM218.893 0V-0.5H216.888V0V0.5H218.893V0ZM214.883 0V-0.5H212.878V0V0.5H214.883V0ZM210.873 0V-0.5H208.867V0V0.5H210.873V0ZM206.862 0V-0.5H204.857V0V0.5H206.862V0ZM202.852 0V-0.5H200.847V0V0.5H202.852V0ZM198.842 0V-0.5H196.837V0V0.5H198.842V0ZM194.831 0V-0.5H192.826V0V0.5H194.831V0ZM190.821 0V-0.5H188.816V0V0.5H190.821V0ZM186.811 0V-0.5H184.806V0V0.5H186.811V0ZM182.801 0V-0.5H180.795V0V0.5H182.801V0ZM178.79 0V-0.5H176.785V0V0.5H178.79V0ZM174.78 0V-0.5H172.775V0V0.5H174.78V0ZM170.77 0V-0.5H168.765V0V0.5H170.77V0ZM166.759 0V-0.5H164.754V0V0.5H166.759V0ZM162.749 0V-0.5H160.744V0V0.5H162.749V0ZM158.739 0V-0.5H156.734V0V0.5H158.739V0ZM154.729 0V-0.5H152.723V0V0.5H154.729V0ZM150.718 0V-0.5H148.713V0V0.5H150.718V0ZM146.708 0V-0.5H144.703V0V0.5H146.708V0ZM142.698 0V-0.5H140.693V0V0.5H142.698V0ZM138.687 0V-0.5H136.682V0V0.5H138.687V0ZM134.677 0V-0.5H132.672V0V0.5H134.677V0ZM130.667 0V-0.5H128.662V0V0.5H130.667V0ZM126.657 0V-0.5H124.651V0V0.5H126.657V0ZM122.646 0V-0.5H120.641V0V0.5H122.646V0ZM118.636 0V-0.5H116.631V0V0.5H118.636V0ZM114.626 0V-0.5H112.621V0V0.5H114.626V0ZM110.615 0V-0.5H108.61V0V0.5H110.615V0ZM106.605 0V-0.5H104.6V0V0.5H106.605V0ZM102.595 0V-0.5H100.59V0V0.5H102.595V0ZM98.5846 0V-0.5H96.5794V0V0.5H98.5846V0ZM94.5743 0V-0.5H92.5691V0V0.5H94.5743V0ZM90.564 0V-0.5H88.5588V0V0.5H90.564V0ZM86.5537 0V-0.5H84.5486V0V0.5H86.5537V0ZM82.5434 0V-0.5H80.5383V0V0.5H82.5434V0ZM78.5331 0V-0.5H76.528V0V0.5H78.5331V0ZM74.5229 0V-0.5H72.5177V0V0.5H74.5229V0ZM70.5125 0V-0.5H68.5074V0V0.5H70.5125V0ZM66.5022 0V-0.5H64.4971V0V0.5H66.5022V0ZM62.4919 0V-0.5H60.4868V0V0.5H62.4919V0ZM58.4816 0V-0.5H56.4764V0V0.5H58.4816V0ZM54.4713 0V-0.5H52.4661V0V0.5H54.4713V0ZM50.461 0V-0.5H48.4558V0V0.5H50.461V0ZM46.4507 0V-0.5H44.4455V0V0.5H46.4507V0ZM42.4403 0V-0.5H40.4352V0V0.5H42.4403V0ZM38.43 0V-0.5H36.4249V0V0.5H38.43V0ZM34.4197 0V-0.5H32.4146V0V0.5H34.4197V0ZM30.4094 0V-0.5H28.4042V0V0.5H30.4094V0ZM26.3991 0V-0.5H24.3939V0V0.5H26.3991V0ZM22.3888 0V-0.5H20.3836V0V0.5H22.3888V0ZM18.3785 0V-0.5H16.3733V0V0.5H18.3785V0ZM14.3681 0V-0.5H12.363V0V0.5H14.3681V0ZM10.3578 0V-0.5H8.35266V0V0.5H10.3578V0ZM6.3475 0V-0.5H4.34234V0V0.5H6.3475V0ZM2.33719 0V-0.5H1.33484V0V0.5H2.33719V0ZM1.33484 0L1.33483 -0.5C0.812935 -0.499989 0.370565 -0.324193 0.0472481 -0.0123954L0.394332 0.347512L0.741415 0.707419C0.860942 0.592151 1.04665 0.500006 1.33485 0.5L1.33484 0ZM0.24753 2.25549L-0.185207 2.50597C0.0205945 2.86153 0.32709 3.17746 0.731676 3.4022L0.974477 2.96511L1.21728 2.52802C0.975761 2.39386 0.798439 2.20918 0.680268 2.00502L0.24753 2.25549ZM0.974477 2.96511L0.731676 3.4022C1.01923 3.56194 1.30384 3.72773 1.58536 3.89943L1.84571 3.47256L2.10606 3.04569C1.81305 2.86699 1.51675 2.69438 1.21728 2.52802L0.974477 2.96511ZM3.5237 4.5901L3.23035 4.995C3.76226 5.38037 4.28113 5.78782 4.78599 6.21628L5.10952 5.83506L5.43305 5.45384C4.90894 5.00904 4.36995 4.58577 3.81705 4.1852L3.5237 4.5901ZM6.59699 7.19612L6.24608 7.55229C6.71405 8.01337 7.16753 8.49369 7.60559 8.99224L7.98119 8.6622L8.3568 8.33217C7.90308 7.81581 7.43315 7.31804 6.94791 6.83996L6.59699 7.19612ZM9.25821 10.2226L8.86051 10.5256C9.25887 11.0484 9.64153 11.5877 10.0076 12.1425L10.4249 11.8671L10.8423 11.5918C10.4638 11.0182 10.0681 10.4605 9.65591 9.91956L9.25821 10.2226ZM11.479 13.5861L11.0443 13.8333C11.3694 14.4049 11.6778 14.9904 11.9686 15.5889L12.4183 15.3703L12.868 15.1518C12.5678 14.534 12.2494 13.9294 11.9136 13.3389L11.479 13.5861ZM13.2416 17.211L12.7789 17.4006C13.0284 18.0092 13.2603 18.6294 13.4741 19.2601L13.9476 19.0996L14.4212 18.9392C14.2008 18.2888 13.9616 17.6492 13.7042 17.0213L13.2416 17.211ZM14.5357 21.0283L14.0532 21.1595C14.2257 21.7943 14.3802 22.4384 14.5158 23.091L15.0054 22.9892L15.4949 22.8874C15.3551 22.2151 15.196 21.5514 15.0182 20.8972L14.5357 21.0283ZM15.3567 24.9748L14.862 25.0472C14.9573 25.6981 15.0342 26.3563 15.0919 27.0211L15.59 26.9778L16.0882 26.9346C16.0287 26.2503 15.9496 25.5726 15.8514 24.9023L15.3567 24.9748ZM15.7061 28.9914L15.2063 29.0057C15.2158 29.3358 15.2206 29.6672 15.2206 30H15.7206H16.2206C16.2206 29.6577 16.2157 29.3167 16.2059 28.977L15.7061 28.9914ZM15.7206 30H15.2206C15.2206 30.3328 15.2158 30.6642 15.2063 30.9943L15.7061 31.0086L16.2059 31.0229C16.2157 30.6833 16.2206 30.3423 16.2206 30H15.7206ZM15.59 33.0221L15.0919 32.9788C15.0342 33.6436 14.9573 34.3017 14.862 34.9526L15.3567 35.0251L15.8514 35.0975C15.9496 34.4273 16.0287 33.7496 16.0882 33.0654L15.59 33.0221ZM15.0054 37.0106L14.5159 36.9088C14.3802 37.5614 14.2257 38.2055 14.0532 38.8403L14.5357 38.9714L15.0182 39.1025C15.196 38.4483 15.3552 37.7846 15.4949 37.1124L15.0054 37.0106ZM13.9476 40.9L13.4741 40.7396C13.2604 41.3703 13.0284 41.9904 12.7789 42.599L13.2416 42.7886L13.7042 42.9783C13.9616 42.3504 14.2008 41.7108 14.4212 41.0605L13.9476 40.9ZM12.4183 44.6292L11.9686 44.4106C11.6778 45.0091 11.3694 45.5946 11.0443 46.1662L11.479 46.4133L11.9136 46.6605C12.2494 46.0701 12.5678 45.4655 12.868 44.8478L12.4183 44.6292ZM10.425 48.1322L10.0076 47.8569C9.64155 48.4116 9.25889 48.9509 8.86052 49.4737L9.25822 49.7767L9.65591 50.0798C10.0681 49.5388 10.4638 48.9811 10.8423 48.4076L10.425 48.1322ZM7.98121 51.337L7.60561 51.007C7.16755 51.5055 6.71408 51.9858 6.24611 52.4469L6.59702 52.803L6.94793 53.1592C7.43316 52.6812 7.90309 52.1834 8.3568 51.6671L7.98121 51.337ZM5.10956 54.164L4.78604 53.7828C4.28119 54.2112 3.76232 54.6187 3.23043 55.004L3.52377 55.4089L3.81712 55.8138C4.37 55.4133 4.90898 54.99 5.43309 54.5452L5.10956 54.164ZM1.84582 56.5264L1.58548 56.0995C1.30396 56.2712 1.01936 56.437 0.731807 56.5967L0.974605 57.0338L1.2174 57.4709C1.51687 57.3046 1.81317 57.132 2.10617 56.9533L1.84582 56.5264ZM0.974605 57.0338L0.731807 56.5967C0.327137 56.8215 0.0206017 57.1376 -0.185212 57.4933L0.247555 57.7437L0.680321 57.9941C0.798524 57.7898 0.975878 57.6051 1.2174 57.4709L0.974605 57.0338ZM0.394201 59.6522L0.0469969 60.012C0.370314 60.324 0.812772 60.5 1.33483 60.5L1.33484 60L1.33485 59.5C1.04664 59.5 0.860942 59.4078 0.741405 59.2924L0.394201 59.6522ZM1.33484 60V60.5H2.33741V60V59.5H1.33484V60ZM4.34256 60V60.5H6.3477V60V59.5H4.34256V60ZM8.35285 60V60.5H10.358V60V59.5H8.35285V60ZM12.3631 60V60.5H14.3683V60V59.5H12.3631V60ZM16.3734 60V60.5H18.3786V60V59.5H16.3734V60ZM20.3837 60V60.5H22.3889V60V59.5H20.3837V60ZM24.394 60V60.5H26.3991V60V59.5H24.394V60ZM28.4043 60V60.5H30.4094V60V59.5H28.4043V60ZM32.4146 60V60.5H34.4197V60V59.5H32.4146V60ZM36.4249 60V60.5H38.43V60V59.5H36.4249V60ZM40.4352 60V60.5H42.4403V60V59.5H40.4352V60ZM44.4455 60V60.5H46.4506V60V59.5H44.4455V60ZM48.4557 60V60.5H50.4609V60V59.5H48.4557V60ZM52.466 60V60.5H54.4712V60V59.5H52.466V60ZM56.4763 60V60.5H58.4815V60V59.5H56.4763V60ZM60.4866 60V60.5H62.4918V60V59.5H60.4866V60ZM64.4969 60V60.5H66.5021V60V59.5H64.4969V60ZM68.5072 60V60.5H70.5123V60V59.5H68.5072V60ZM72.5175 60V60.5H74.5226V60V59.5H72.5175V60ZM76.5278 60V60.5H78.5329V60V59.5H76.5278V60ZM80.5381 60V60.5H82.5432V60V59.5H80.5381V60ZM84.5483 60V60.5H86.5535V60V59.5H84.5483V60ZM88.5586 60V60.5H90.5638V60V59.5H88.5586V60ZM92.5689 60V60.5H94.5741V60V59.5H92.5689V60ZM96.5792 60V60.5H98.5843V60V59.5H96.5792V60ZM100.589 60V60.5H102.595V60V59.5H100.589V60ZM104.6 60V60.5H106.605V60V59.5H104.6V60ZM108.61 60V60.5H110.615V60V59.5H108.61V60ZM112.62 60V60.5H114.625V60V59.5H112.62V60ZM116.631 60V60.5H118.636V60V59.5H116.631V60ZM120.641 60V60.5H122.646V60V59.5H120.641V60ZM124.651 60V60.5H126.656V60V59.5H124.651V60ZM128.661 60V60.5H130.667V60V59.5H128.661V60ZM132.672 60V60.5H134.677V60V59.5H132.672V60ZM136.682 60V60.5H138.687V60V59.5H136.682V60ZM140.692 60V60.5H142.697V60V59.5H140.692V60ZM144.703 60V60.5H146.708V60V59.5H144.703V60ZM148.713 60V60.5H150.718V60V59.5H148.713V60ZM152.723 60V60.5H154.728V60V59.5H152.723V60ZM156.733 60V60.5H158.739V60V59.5H156.733V60ZM160.744 60V60.5H162.749V60V59.5H160.744V60ZM164.754 60V60.5H166.759V60V59.5H164.754V60ZM168.764 60V60.5H170.769V60V59.5H168.764V60ZM172.775 60V60.5H174.78V60V59.5H172.775V60ZM176.785 60V60.5H178.79V60V59.5H176.785V60ZM180.795 60V60.5H182.8V60V59.5H180.795V60ZM184.805 60V60.5H186.811V60V59.5H184.805V60ZM188.816 60V60.5H190.821V60V59.5H188.816V60ZM192.826 60V60.5H194.831V60V59.5H192.826V60ZM196.836 60V60.5H198.841V60V59.5H196.836V60ZM200.847 60V60.5H202.852V60V59.5H200.847V60ZM204.857 60V60.5H206.862V60V59.5H204.857V60ZM208.867 60V60.5H210.872V60V59.5H208.867V60ZM212.877 60V60.5H214.883V60V59.5H212.877V60ZM216.888 60V60.5H218.893V60V59.5H216.888V60ZM220.898 60V60.5H222.903V60V59.5H220.898V60ZM224.908 60V60.5H226.913V60V59.5H224.908V60ZM228.919 60V60.5H230.924V60V59.5H228.919V60ZM232.929 60V60.5H234.934V60V59.5H232.929V60ZM236.939 60V60.5H238.944V60V59.5H236.939V60ZM240.949 60V60.5H242.955V60V59.5H240.949V60ZM244.96 60V60.5H246.965V60V59.5H244.96V60ZM248.97 60V60.5H250.975V60V59.5H248.97V60ZM252.98 60V60.5H254.985V60V59.5H252.98V60ZM256.991 60V60.5H258.996V60V59.5H256.991V60ZM261.001 60V60.5H263.006V60V59.5H261.001V60ZM265.011 60V60.5H267.016V60V59.5H265.011V60ZM269.022 60V60.5H271.027V60V59.5H269.022V60ZM273.032 60V60.5H275.037V60V59.5H273.032V60ZM277.042 60V60.5H279.047V60V59.5H277.042V60ZM281.052 60V60.5H283.058V60V59.5H281.052V60ZM285.063 60V60.5H287.068V60V59.5H285.063V60ZM289.073 60V60.5H291.078V60V59.5H289.073V60ZM293.083 60V60.5H295.089V60V59.5H293.083V60ZM297.094 60V60.5H299.099V60V59.5H297.094V60ZM301.104 60V60.5H303.109V60V59.5H301.104V60ZM305.114 60V60.5H307.12V60V59.5H305.114V60ZM309.125 60V60.5H311.13V60V59.5H309.125V60ZM313.135 60V60.5H315.14V60V59.5H313.135V60ZM317.145 60V60.5H319.15V60V59.5H317.145V60ZM321.156 60V60.5H323.161V60V59.5H321.156V60ZM325.166 60V60.5H327.171V60V59.5H325.166V60ZM329.176 60V60.5H330.179V60V59.5H329.176V60ZM330.179 60V60.5C330.516 60.5 330.851 60.4918 331.184 60.4757L331.16 59.9763L331.136 59.4769C330.819 59.4922 330.5 59.5 330.179 59.5V60ZM333.114 59.786L333.187 60.2807C333.856 60.1823 334.515 60.0516 335.161 59.8901L335.04 59.405L334.919 58.9199C334.304 59.0734 333.678 59.1978 333.042 59.2914L333.114 59.786ZM336.918 58.8359L337.087 59.3066C337.722 59.0795 338.342 58.822 338.946 58.5359L338.732 58.084L338.518 57.6322C337.943 57.9043 337.353 58.1492 336.75 58.3651L336.918 58.8359ZM340.462 57.1573L340.719 57.5859C341.296 57.2397 341.854 56.866 342.391 56.4667L342.093 56.0653L341.795 55.6639C341.283 56.0439 340.753 56.3994 340.204 56.7286L340.462 57.1573ZM343.61 54.8192L343.946 55.1895C344.443 54.7388 344.917 54.264 345.368 53.767L344.998 53.4311L344.627 53.0953C344.199 53.5682 343.747 54.0199 343.274 54.4488L343.61 54.8192ZM346.244 51.9145L346.645 52.2126C347.045 51.675 347.418 51.1171 347.764 50.5408L347.336 50.2833L346.907 50.0259C346.578 50.5741 346.222 51.1048 345.843 51.6163L346.244 51.9145ZM348.263 48.553L348.714 48.7671C349.001 48.1632 349.258 47.543 349.485 46.9083L349.014 46.7399L348.544 46.5714C348.328 47.1749 348.083 47.7646 347.811 48.3389L348.263 48.553ZM349.584 44.8613L350.069 44.9825C350.23 44.336 350.361 43.6775 350.459 43.0085L349.965 42.9357L349.47 42.8629C349.376 43.4993 349.252 44.1255 349.099 44.7402L349.584 44.8613ZM350.155 40.9818L350.654 41.0059C350.67 40.6726 350.679 40.3372 350.679 40H350.179H349.679C349.679 40.3211 349.671 40.6404 349.655 40.9576L350.155 40.9818ZM350.179 40H350.679V39H350.179H349.679V40H350.179ZM350.179 37H350.679V35H350.179H349.679V37H350.179ZM350.179 33H350.679V31H350.179H349.679V33H350.179ZM350.179 29H350.679V27H350.179H349.679V29H350.179ZM350.179 25H350.679V23H350.179H349.679V25H350.179ZM350.179 21H350.679V20H350.179H349.679V21H350.179ZM350.179 20H350.679C350.679 19.6628 350.67 19.3274 350.654 18.9941L350.155 19.0182L349.655 19.0424C349.671 19.3596 349.679 19.6789 349.679 20H350.179ZM349.965 17.0643L350.459 16.9915C350.361 16.3225 350.23 15.664 350.069 15.0175L349.584 15.1387L349.099 15.2598C349.252 15.8745 349.376 16.5007 349.47 17.1371L349.965 17.0643ZM349.014 13.2601L349.485 13.0917C349.258 12.457 349.001 11.8368 348.714 11.2329L348.263 11.447L347.811 11.6611C348.083 12.2354 348.328 12.8251 348.544 13.4286L349.014 13.2601ZM347.336 9.71666L347.764 9.4592C347.418 8.88287 347.045 8.32499 346.645 7.78737L346.244 8.08553L345.843 8.38369C346.222 8.89518 346.578 9.4259 346.907 9.97411L347.336 9.71666ZM344.998 6.56885L345.368 6.23296C344.917 5.73596 344.443 5.26118 343.946 4.81045L343.61 5.18083L343.274 5.55121C343.747 5.98008 344.199 6.43184 344.627 6.90474L344.998 6.56885ZM342.093 3.93472L342.391 3.53335C341.854 3.13398 341.296 2.76029 340.719 2.41412L340.462 2.84275L340.204 3.27137C340.753 3.60065 341.283 3.95613 341.795 4.33609L342.093 3.93472ZM338.732 1.91599L338.946 1.46414C338.342 1.178 337.722 0.920484 337.087 0.693362L336.918 1.16413L336.75 1.63489C337.353 1.85085 337.943 2.09572 338.518 2.36784L338.732 1.91599ZM335.04 0.594966L335.161 0.109863C334.515 -0.0515671 333.856 -0.182304 333.187 -0.280717L333.114 0.213959L333.042 0.708636C333.678 0.80224 334.304 0.926572 334.919 1.08007L335.04 0.594966ZM331.16 0.023683L331.185 -0.475734C330.851 -0.491848 330.516 -0.499997 330.179 -0.5V0V0.5C330.5 0.500003 330.819 0.507763 331.136 0.5231L331.16 0.023683ZM330.179 0V-1V0ZM330.179 60V61V60ZM15.7206 30H16.7206H15.7206ZM0.974477 2.96511L0.488876 3.8393L0.974477 2.96511ZM0.974605 57.0338L1.4602 57.908L0.974605 57.0338ZM330.179 0V-1H329.176V0V1H330.179V0ZM327.171 0V-1H325.166V0V1H327.171V0ZM323.161 0V-1H321.155V0V1H323.161V0ZM319.15 0V-1H317.145V0V1H319.15V0ZM315.14 0V-1H313.135V0V1H315.14V0ZM311.13 0V-1H309.125V0V1H311.13V0ZM307.119 0V-1H305.114V0V1H307.119V0ZM303.109 0V-1H301.104V0V1H303.109V0ZM299.099 0V-1H297.094V0V1H299.099V0ZM295.089 0V-1H293.083V0V1H295.089V0ZM291.078 0V-1H289.073V0V1H291.078V0ZM287.068 0V-1H285.063V0V1H287.068V0ZM283.058 0V-1H281.053V0V1H283.058V0ZM279.047 0V-1H277.042V0V1H279.047V0ZM275.037 0V-1H273.032V0V1H275.037V0ZM271.027 0V-1H269.022V0V1H271.027V0ZM267.017 0V-1H265.011V0V1H267.017V0ZM263.006 0V-1H261.001V0V1H263.006V0ZM258.996 0V-1H256.991V0V1H258.996V0ZM254.986 0V-1H252.981V0V1H254.986V0ZM250.975 0V-1H248.97V0V1H250.975V0ZM246.965 0V-1H244.96V0V1H246.965V0ZM242.955 0V-1H240.95V0V1H242.955V0ZM238.945 0V-1H236.939V0V1H238.945V0ZM234.934 0V-1H232.929V0V1H234.934V0ZM230.924 0V-1H228.919V0V1H230.924V0ZM226.914 0V-1H224.909V0V1H226.914V0ZM222.903 0V-1H220.898V0V1H222.903V0ZM218.893 0V-1H216.888V0V1H218.893V0ZM214.883 0V-1H212.878V0V1H214.883V0ZM210.873 0V-1H208.867V0V1H210.873V0ZM206.862 0V-1H204.857V0V1H206.862V0ZM202.852 0V-1H200.847V0V1H202.852V0ZM198.842 0V-1H196.837V0V1H198.842V0ZM194.831 0V-1H192.826V0V1H194.831V0ZM190.821 0V-1H188.816V0V1H190.821V0ZM186.811 0V-1H184.806V0V1H186.811V0ZM182.801 0V-1H180.795V0V1H182.801V0ZM178.79 0V-1H176.785V0V1H178.79V0ZM174.78 0V-1H172.775V0V1H174.78V0ZM170.77 0V-1H168.765V0V1H170.77V0ZM166.759 0V-1H164.754V0V1H166.759V0ZM162.749 0V-1H160.744V0V1H162.749V0ZM158.739 0V-1H156.734V0V1H158.739V0ZM154.729 0V-1H152.723V0V1H154.729V0ZM150.718 0V-1H148.713V0V1H150.718V0ZM146.708 0V-1H144.703V0V1H146.708V0ZM142.698 0V-1H140.693V0V1H142.698V0ZM138.687 0V-1H136.682V0V1H138.687V0ZM134.677 0V-1H132.672V0V1H134.677V0ZM130.667 0V-1H128.662V0V1H130.667V0ZM126.657 0V-1H124.651V0V1H126.657V0ZM122.646 0V-1H120.641V0V1H122.646V0ZM118.636 0V-1H116.631V0V1H118.636V0ZM114.626 0V-1H112.621V0V1H114.626V0ZM110.615 0V-1H108.61V0V1H110.615V0ZM106.605 0V-1H104.6V0V1H106.605V0ZM102.595 0V-1H100.59V0V1H102.595V0ZM98.5846 0V-1H96.5794V0V1H98.5846V0ZM94.5743 0V-1H92.5691V0V1H94.5743V0ZM90.564 0V-1H88.5588V0V1H90.564V0ZM86.5537 0V-1H84.5486V0V1H86.5537V0ZM82.5434 0V-1H80.5383V0V1H82.5434V0ZM78.5331 0V-1H76.528V0V1H78.5331V0ZM74.5229 0V-1H72.5177V0V1H74.5229V0ZM70.5125 0V-1H68.5074V0V1H70.5125V0ZM66.5022 0V-1H64.4971V0V1H66.5022V0ZM62.4919 0V-1H60.4868V0V1H62.4919V0ZM58.4816 0V-1H56.4764V0V1H58.4816V0ZM54.4713 0V-1H52.4661V0V1H54.4713V0ZM50.461 0V-1H48.4558V0V1H50.461V0ZM46.4507 0V-1H44.4455V0V1H46.4507V0ZM42.4403 0V-1H40.4352V0V1H42.4403V0ZM38.43 0V-1H36.4249V0V1H38.43V0ZM34.4197 0V-1H32.4146V0V1H34.4197V0ZM30.4094 0V-1H28.4042V0V1H30.4094V0ZM26.3991 0V-1H24.3939V0V1H26.3991V0ZM22.3888 0V-1H20.3836V0V1H22.3888V0ZM18.3785 0V-1H16.3733V0V1H18.3785V0ZM14.3681 0V-1H12.363V0V1H14.3681V0ZM10.3578 0V-1H8.35266V0V1H10.3578V0ZM6.3475 0V-1H4.34234V0V1H6.3475V0ZM2.33719 0V-1H1.33484V0V1H2.33719V0ZM1.33484 0L1.33482 -1C0.696078 -0.999986 0.125377 -0.782364 -0.299835 -0.372303L0.394332 0.347512L1.0885 1.06733C1.1027 1.05363 1.12234 1.03945 1.15403 1.02729C1.18642 1.01486 1.24355 1 1.33486 1L1.33484 0ZM0.24753 2.25549L-0.617944 2.75645C-0.368328 3.1877 0.00275435 3.56926 0.488876 3.8393L0.974477 2.96511L1.46008 2.09093C1.3001 2.00207 1.18736 1.883 1.113 1.75454L0.24753 2.25549ZM0.974477 2.96511L0.488876 3.8393C0.770476 3.99572 1.04923 4.1581 1.32502 4.3263L1.84571 3.47256L2.36641 2.61882C2.06766 2.43661 1.76551 2.2606 1.46008 2.09093L0.974477 2.96511ZM3.5237 4.5901L2.937 5.3999C3.45841 5.77767 3.96723 6.17721 4.46246 6.5975L5.10952 5.83506L5.75658 5.07262C5.22284 4.61965 4.67379 4.18847 4.11041 3.7803L3.5237 4.5901ZM6.59699 7.19612L5.89516 7.90846C6.3545 8.36103 6.79976 8.83263 7.22999 9.32227L7.98119 8.6622L8.7324 8.00213C8.27086 7.47687 7.7927 6.97037 7.29883 6.48379L6.59699 7.19612ZM9.25821 10.2226L8.46281 10.8287C8.85427 11.3424 9.23038 11.8725 9.59027 12.4179L10.4249 11.8671L11.2596 11.3164C10.875 10.7335 10.4727 10.1665 10.0536 9.61652L9.25821 10.2226ZM11.479 13.5861L10.6097 14.0805C10.9294 14.6427 11.2328 15.2186 11.5189 15.8074L12.4183 15.3703L13.3177 14.9332C13.0128 14.3058 12.6894 13.6916 12.3482 13.0918L11.479 13.5861ZM13.2416 17.211L12.3163 17.5902C12.5618 18.1892 12.7901 18.7996 13.0005 19.4205L13.9476 19.0996L14.8947 18.7788C14.671 18.1186 14.4282 17.4693 14.1669 16.8317L13.2416 17.211ZM14.5357 21.0283L13.5707 21.2906C13.7406 21.9157 13.8927 22.55 14.0263 23.1927L15.0054 22.9892L15.9844 22.7857C15.8426 22.1035 15.6811 21.43 15.5007 20.766L14.5357 21.0283ZM15.3567 24.9748L14.3673 25.1197C14.4612 25.7609 14.5369 26.4094 14.5938 27.0644L15.59 26.9778L16.5863 26.8913C16.526 26.1972 16.4457 25.5099 16.3462 24.8299L15.3567 24.9748ZM15.7061 28.9914L14.7065 29.02C14.7159 29.3453 14.7206 29.672 14.7206 30H15.7206H16.7206C16.7206 29.6529 16.7156 29.3071 16.7057 28.9627L15.7061 28.9914ZM15.7206 30H14.7206C14.7206 30.328 14.7159 30.6546 14.7065 30.9799L15.7061 31.0086L16.7057 31.0373C16.7156 30.6929 16.7206 30.3471 16.7206 30H15.7206ZM15.59 33.0221L14.5938 32.9355C14.5369 33.5905 14.4612 34.239 14.3673 34.8802L15.3567 35.0251L16.3462 35.17C16.4457 34.49 16.526 33.8026 16.5863 33.1086L15.59 33.0221ZM15.0054 37.0106L14.0263 36.807C13.8927 37.4498 13.7406 38.084 13.5707 38.7091L14.5357 38.9714L15.5007 39.2337C15.6811 38.5697 15.8426 37.8963 15.9845 37.2141L15.0054 37.0106ZM13.9476 40.9L13.0005 40.5791C12.7901 41.2 12.5618 41.8104 12.3163 42.4094L13.2416 42.7886L14.1669 43.1679C14.4282 42.5304 14.6711 41.8811 14.8947 41.2209L13.9476 40.9ZM12.4183 44.6292L11.5189 44.1921C11.2328 44.7809 10.9294 45.3568 10.6097 45.919L11.479 46.4133L12.3482 46.9077C12.6894 46.3078 13.0128 45.6937 13.3177 45.0663L12.4183 44.6292ZM10.425 48.1322L9.59029 47.5815C9.2304 48.1269 8.85429 48.6569 8.46283 49.1706L9.25822 49.7767L10.0536 50.3828C10.4727 49.8328 10.875 49.2659 11.2596 48.683L10.425 48.1322ZM7.98121 51.337L7.23002 50.6769C6.79979 51.1666 6.35453 51.6381 5.8952 52.0907L6.59702 52.803L7.29884 53.5154C7.7927 53.0288 8.27086 52.5224 8.7324 51.9971L7.98121 51.337ZM5.10956 54.164L4.46252 53.4016C3.96729 53.8218 3.45849 54.2214 2.93708 54.5991L3.52377 55.4089L4.11046 56.2187C4.67384 55.8106 5.22288 55.3794 5.75661 54.9265L5.10956 54.164ZM1.84582 56.5264L1.32513 55.6727C1.04935 55.8409 0.770602 56.0032 0.489008 56.1597L0.974605 57.0338L1.4602 57.908C1.76562 57.7384 2.06777 57.5624 2.36651 57.3802L1.84582 56.5264ZM0.974605 57.0338L0.489008 56.1597C0.00276573 56.4298 -0.368359 56.8115 -0.617978 57.2428L0.247555 57.7437L1.11309 58.2445C1.18749 58.116 1.30025 57.9969 1.4602 57.908L0.974605 57.0338ZM0.394201 59.6522L-0.300207 60.3718C0.125 60.7822 0.695835 61 1.33482 61L1.33484 60L1.33486 59C1.24357 59 1.18648 58.9851 1.15412 58.9727C1.12247 58.9606 1.10283 58.9464 1.08861 58.9327L0.394201 59.6522ZM1.33484 60V61H2.33741V60V59H1.33484V60ZM4.34256 60V61H6.3477V60V59H4.34256V60ZM8.35285 60V61H10.358V60V59H8.35285V60ZM12.3631 60V61H14.3683V60V59H12.3631V60ZM16.3734 60V61H18.3786V60V59H16.3734V60ZM20.3837 60V61H22.3889V60V59H20.3837V60ZM24.394 60V61H26.3991V60V59H24.394V60ZM28.4043 60V61H30.4094V60V59H28.4043V60ZM32.4146 60V61H34.4197V60V59H32.4146V60ZM36.4249 60V61H38.43V60V59H36.4249V60ZM40.4352 60V61H42.4403V60V59H40.4352V60ZM44.4455 60V61H46.4506V60V59H44.4455V60ZM48.4557 60V61H50.4609V60V59H48.4557V60ZM52.466 60V61H54.4712V60V59H52.466V60ZM56.4763 60V61H58.4815V60V59H56.4763V60ZM60.4866 60V61H62.4918V60V59H60.4866V60ZM64.4969 60V61H66.5021V60V59H64.4969V60ZM68.5072 60V61H70.5123V60V59H68.5072V60ZM72.5175 60V61H74.5226V60V59H72.5175V60ZM76.5278 60V61H78.5329V60V59H76.5278V60ZM80.5381 60V61H82.5432V60V59H80.5381V60ZM84.5483 60V61H86.5535V60V59H84.5483V60ZM88.5586 60V61H90.5638V60V59H88.5586V60ZM92.5689 60V61H94.5741V60V59H92.5689V60ZM96.5792 60V61H98.5843V60V59H96.5792V60ZM100.589 60V61H102.595V60V59H100.589V60ZM104.6 60V61H106.605V60V59H104.6V60ZM108.61 60V61H110.615V60V59H108.61V60ZM112.62 60V61H114.625V60V59H112.62V60ZM116.631 60V61H118.636V60V59H116.631V60ZM120.641 60V61H122.646V60V59H120.641V60ZM124.651 60V61H126.656V60V59H124.651V60ZM128.661 60V61H130.667V60V59H128.661V60ZM132.672 60V61H134.677V60V59H132.672V60ZM136.682 60V61H138.687V60V59H136.682V60ZM140.692 60V61H142.697V60V59H140.692V60ZM144.703 60V61H146.708V60V59H144.703V60ZM148.713 60V61H150.718V60V59H148.713V60ZM152.723 60V61H154.728V60V59H152.723V60ZM156.733 60V61H158.739V60V59H156.733V60ZM160.744 60V61H162.749V60V59H160.744V60ZM164.754 60V61H166.759V60V59H164.754V60ZM168.764 60V61H170.769V60V59H168.764V60ZM172.775 60V61H174.78V60V59H172.775V60ZM176.785 60V61H178.79V60V59H176.785V60ZM180.795 60V61H182.8V60V59H180.795V60ZM184.805 60V61H186.811V60V59H184.805V60ZM188.816 60V61H190.821V60V59H188.816V60ZM192.826 60V61H194.831V60V59H192.826V60ZM196.836 60V61H198.841V60V59H196.836V60ZM200.847 60V61H202.852V60V59H200.847V60ZM204.857 60V61H206.862V60V59H204.857V60ZM208.867 60V61H210.872V60V59H208.867V60ZM212.877 60V61H214.883V60V59H212.877V60ZM216.888 60V61H218.893V60V59H216.888V60ZM220.898 60V61H222.903V60V59H220.898V60ZM224.908 60V61H226.913V60V59H224.908V60ZM228.919 60V61H230.924V60V59H228.919V60ZM232.929 60V61H234.934V60V59H232.929V60ZM236.939 60V61H238.944V60V59H236.939V60ZM240.949 60V61H242.955V60V59H240.949V60ZM244.96 60V61H246.965V60V59H244.96V60ZM248.97 60V61H250.975V60V59H248.97V60ZM252.98 60V61H254.985V60V59H252.98V60ZM256.991 60V61H258.996V60V59H256.991V60ZM261.001 60V61H263.006V60V59H261.001V60ZM265.011 60V61H267.016V60V59H265.011V60ZM269.022 60V61H271.027V60V59H269.022V60ZM273.032 60V61H275.037V60V59H273.032V60ZM277.042 60V61H279.047V60V59H277.042V60ZM281.052 60V61H283.058V60V59H281.052V60ZM285.063 60V61H287.068V60V59H285.063V60ZM289.073 60V61H291.078V60V59H289.073V60ZM293.083 60V61H295.089V60V59H293.083V60ZM297.094 60V61H299.099V60V59H297.094V60ZM301.104 60V61H303.109V60V59H301.104V60ZM305.114 60V61H307.12V60V59H305.114V60ZM309.125 60V61H311.13V60V59H309.125V60ZM313.135 60V61H315.14V60V59H313.135V60ZM317.145 60V61H319.15V60V59H317.145V60ZM321.156 60V61H323.161V60V59H321.156V60ZM325.166 60V61H327.171V60V59H325.166V60ZM329.176 60V61H330.179V60V59H329.176V60ZM330.179 60V61C330.524 61 330.867 60.9917 331.209 60.9752L331.16 59.9763L331.112 58.9775C330.803 58.9924 330.492 59 330.179 59V60ZM333.114 59.786L333.26 60.7754C333.945 60.6746 334.62 60.5406 335.282 60.3752L335.04 59.405L334.798 58.4348C334.199 58.5844 333.589 58.7055 332.969 58.7967L333.114 59.786ZM336.918 58.8359L337.255 59.7774C337.906 59.5447 338.541 59.2809 339.16 58.9877L338.732 58.084L338.303 57.1803C337.744 57.4454 337.169 57.684 336.582 57.8944L336.918 58.8359ZM340.462 57.1573L340.977 58.0145C341.567 57.6599 342.139 57.2771 342.689 56.868L342.093 56.0653L341.497 55.2625C340.998 55.6328 340.481 55.9792 339.947 56.3L340.462 57.1573ZM343.61 54.8192L344.282 55.5599C344.791 55.0983 345.277 54.612 345.739 54.1029L344.998 53.4311L344.257 52.7594C343.839 53.2202 343.399 53.6605 342.938 54.0784L343.61 54.8192ZM346.244 51.9145L347.047 52.5108C347.456 51.9601 347.839 51.3886 348.193 50.7983L347.336 50.2833L346.479 49.7684C346.158 50.3026 345.811 50.8197 345.441 51.3181L346.244 51.9145ZM348.263 48.553L349.166 48.9812C349.459 48.3625 349.723 47.7271 349.956 47.0768L349.014 46.7399L348.073 46.4029C347.863 46.9908 347.624 47.5653 347.359 48.1249L348.263 48.553ZM349.584 44.8613L350.554 45.1036C350.719 44.4413 350.853 43.7666 350.954 43.0812L349.965 42.9357L348.975 42.7902C348.884 43.4101 348.763 44.0203 348.613 44.6191L349.584 44.8613ZM350.155 40.9818L351.154 41.03C351.17 40.6887 351.179 40.3453 351.179 40H350.179H349.179C349.179 40.3131 349.171 40.6243 349.156 40.9335L350.155 40.9818ZM350.179 40H351.179V39H350.179H349.179V40H350.179ZM350.179 37H351.179V35H350.179H349.179V37H350.179ZM350.179 33H351.179V31H350.179H349.179V33H350.179ZM350.179 29H351.179V27H350.179H349.179V29H350.179ZM350.179 25H351.179V23H350.179H349.179V25H350.179ZM350.179 21H351.179V20H350.179H349.179V21H350.179ZM350.179 20H351.179C351.179 19.6547 351.17 19.3113 351.154 18.97L350.155 19.0182L349.156 19.0665C349.171 19.3757 349.179 19.6869 349.179 20H350.179ZM349.965 17.0643L350.954 16.9188C350.853 16.2334 350.719 15.5587 350.554 14.8964L349.584 15.1387L348.613 15.3809C348.763 15.9797 348.884 16.5899 348.975 17.2098L349.965 17.0643ZM349.014 13.2601L349.956 12.9232C349.723 12.2729 349.459 11.6375 349.166 11.0188L348.263 11.447L347.359 11.8751C347.624 12.4347 347.863 13.0092 348.073 13.5971L349.014 13.2601ZM347.336 9.71666L348.193 9.20175C347.839 8.61136 347.456 8.0399 347.047 7.48921L346.244 8.08553L345.441 8.68185C345.811 9.18028 346.158 9.69742 346.479 10.2316L347.336 9.71666ZM344.998 6.56885L345.739 5.89707C345.277 5.38802 344.791 4.90173 344.282 4.44008L343.61 5.18083L342.938 5.92158C343.399 6.33953 343.839 6.77978 344.257 7.24063L344.998 6.56885ZM342.093 3.93472L342.689 3.13197C342.139 2.7229 341.567 2.34012 340.977 1.9855L340.462 2.84275L339.947 3.69999C340.481 4.02083 340.998 4.36721 341.497 4.73747L342.093 3.93472ZM338.732 1.91599L339.16 1.01229C338.541 0.719137 337.906 0.455303 337.255 0.222599L336.918 1.16413L336.582 2.10565C337.169 2.31603 337.744 2.55458 338.303 2.81969L338.732 1.91599ZM335.04 0.594966L335.282 -0.37524C334.62 -0.540637 333.945 -0.674576 333.26 -0.775394L333.114 0.213959L332.969 1.20331C333.589 1.29451 334.199 1.41564 334.798 1.56517L335.04 0.594966ZM331.16 0.023683L331.209 -0.97515C330.867 -0.991653 330.524 -0.999997 330.179 -1V0V1C330.492 1 330.803 1.00757 331.112 1.02252L331.16 0.023683Z" fill="#DBDBDB" mask="url(#path-1-inside-1_85_1070)"/>
</svg>
