<svg width="100" height="100" viewBox="0 0 100 100" fill="none" xmlns="http://www.w3.org/2000/svg">
<rect width="100" height="100" rx="32" fill="#214230"/>
<path d="M63.7669 54.8416C63.7448 54.847 63.7246 54.8589 63.7087 54.8759C63.6928 54.8929 63.6818 54.9143 63.6768 54.9379C63.6718 54.9615 63.673 54.9862 63.6804 55.0094C63.6877 55.0325 63.7009 55.0532 63.7185 55.0691L92.1463 80.1548C92.1799 80.1849 92.2039 80.2251 92.2151 80.27C92.2263 80.3149 92.2243 80.3623 92.2092 80.4059C92.1941 80.4495 92.1667 80.4873 92.1307 80.514C92.0947 80.5407 92.0518 80.5552 92.0077 80.5556H73.0988C72.9527 80.5556 72.8081 80.5253 72.6732 80.4665C72.5382 80.4076 72.4156 80.3213 72.3123 80.2126C71.8373 79.7122 71.3764 79.2617 70.9294 78.861C62.7998 71.5801 51.7884 61.818 37.8952 49.5745C37.1538 48.9259 36.8637 48.4199 37.2054 47.5234C37.2427 47.4252 37.3069 47.3411 37.3896 47.2818C37.4723 47.2224 37.5698 47.1907 37.6696 47.1906C49.186 47.1883 55.9929 47.1759 58.0903 47.1532C59.803 47.1351 61.648 46.8204 63.625 46.2092C67.1354 45.1259 69.0695 42.7487 69.3112 38.9283C69.3864 37.7374 69.3725 36.6394 69.2693 35.6342C68.4924 27.9594 61.0978 27.2531 55.3568 27.2293C48.0782 27.2021 39.6424 27.1999 30.0493 27.2225C29.9732 27.2225 29.9002 27.2544 29.8464 27.3111C29.7926 27.3677 29.7624 27.4446 29.7624 27.5248V80.2567C29.7624 80.3351 29.7328 80.4102 29.6803 80.4656C29.6277 80.521 29.5563 80.5522 29.482 80.5522H14.6185C14.5724 80.5522 14.5281 80.5328 14.4954 80.4984C14.4628 80.4641 14.4445 80.4174 14.4445 80.3688V19.0655C14.4445 19.042 14.4489 19.0188 14.4575 18.9971C14.4661 18.9755 14.4788 18.9559 14.4947 18.9394C14.5106 18.923 14.5295 18.91 14.5502 18.9014C14.5709 18.8927 14.593 18.8885 14.6153 18.8889C25.6417 18.9614 41.3712 18.9863 61.8037 18.9636C63.9334 18.9614 66.4778 19.293 69.4369 19.9586C72.6346 20.6786 75.0769 21.4902 76.7639 22.3935C80.7997 24.5533 84.1392 28.6352 84.8355 33.5254C85.6123 38.9758 85.0676 45.1734 81.3735 49.1636C76.7575 54.1454 70.3298 54.5903 64.0086 54.8008C63.9463 54.8031 63.8657 54.8167 63.7669 54.8416Z" fill="white"/>
</svg>
