<svg width="40" height="40" viewBox="0 0 40 40" fill="none" xmlns="http://www.w3.org/2000/svg">
<path d="M28.3516 3.96875C26.9688 4.85156 25.3203 5.54688 23.6016 5.97656C22.7891 6.17969 21.4219 6.40625 20.9688 6.40625C20.7656 6.40625 20.6328 6.46875 20.4609 6.63281L20.2344 6.85938V9.78125C20.2422 12.7656 20.2969 13.7891 20.5156 14.8828C21.1563 18.0391 23.2578 21.1406 26.3203 23.4531C27.2109 24.1328 28.6328 25 28.8438 25C29.3906 25 31.6719 23.3984 33.1172 21.9922C34.9922 20.1719 36.1563 18.3672 36.8672 16.2109C37.4141 14.5391 37.4453 14.2109 37.4844 10.3984C37.5 7.97656 37.4844 6.95312 37.4219 6.79688C37.3203 6.54688 37.0547 6.40625 36.6953 6.40625C36.2891 6.40625 34.625 6.10938 33.8516 5.89844C32.4453 5.52344 30.75 4.79688 29.4922 4.03125C29.2344 3.875 28.9531 3.75 28.8594 3.75C28.7734 3.75 28.5469 3.85156 28.3516 3.96875ZM33.4141 10.2734C33.6797 10.4531 33.8516 10.8906 33.7891 11.2422C33.75 11.4844 33.3203 11.9453 30.875 14.3828C28.6797 16.5781 27.9531 17.2578 27.7734 17.2891C27.2422 17.3828 27.1328 17.3047 25.5391 15.7109C24.2266 14.4062 23.9922 14.1328 23.9531 13.8828C23.8203 13.1719 24.5391 12.5625 25.1719 12.8438C25.3125 12.9062 25.8828 13.4141 26.4453 13.9766C27 14.5391 27.4922 15 27.5391 15C27.5859 15 28.6563 13.9609 29.9219 12.6875C31.1875 11.4141 32.3359 10.3047 32.4609 10.2266C32.7266 10.0469 33.1016 10.0703 33.4141 10.2734Z" fill="white"/>
<path d="M11.2495 11.6719C11.0151 11.7188 10.6479 11.8438 10.4448 11.9453C9.97606 12.1719 9.27294 12.8125 9.02294 13.2344C8.92137 13.4063 8.42919 14.5391 7.92919 15.7422C7.42919 16.9453 6.99169 17.9609 6.95262 17.9922C6.92137 18.0313 6.77294 18 6.63231 17.9219C6.437 17.8281 6.10887 17.7813 5.42919 17.75C4.27294 17.7031 3.71044 17.8125 3.26512 18.1484C2.36669 18.8359 2.28075 20.2656 3.10106 21.0234C3.4995 21.3984 3.81981 21.5078 4.58544 21.5469L5.312 21.5781L5.06981 21.8594C4.92919 22.0156 4.71044 22.375 4.57762 22.6563L4.33544 23.1641L4.312 29.0469C4.29637 32.875 4.31981 35.0313 4.3745 35.2266C4.47606 35.6172 4.92137 36.0547 5.33544 36.1641C5.562 36.2344 6.312 36.25 7.74169 36.2344L9.81981 36.2109L10.1323 36C10.6557 35.6563 10.7807 35.2891 10.7807 34.1172V33.125H18.7495H26.7182V34.1172C26.7182 35.2891 26.8432 35.6563 27.3667 36L27.6792 36.2109L29.7573 36.2344C31.187 36.25 31.937 36.2344 32.1636 36.1641C32.5698 36.0547 33.0229 35.6172 33.1245 35.2266C33.1714 35.0469 33.1948 32.875 33.187 29.3047L33.1636 23.6719L32.5854 24.1406C31.8042 24.7813 30.4682 25.6719 29.8042 25.9844C28.8276 26.4609 28.3354 26.3359 26.6089 25.1953C25.0464 24.1719 23.1792 22.4766 22.2261 21.2266L21.8354 20.7109H15.2182C11.5698 20.7031 8.59325 20.6797 8.59325 20.6563C8.59325 20.5234 11.1245 14.5469 11.2339 14.4219C11.562 14.0625 11.5776 14.0625 15.437 14.0625H19.0854L19.0307 13.4609C19.0073 13.1328 18.9839 12.5703 18.9839 12.2109V11.5625L15.3354 11.5703C12.812 11.5703 11.5464 11.6016 11.2495 11.6719ZM10.4292 23.8125C10.8198 24.0078 11.3511 24.5781 11.5307 24.9766C11.7339 25.4375 11.7182 26.2813 11.4917 26.75C10.9214 27.9141 9.59325 28.3828 8.45262 27.8047C8.187 27.6797 7.88231 27.4531 7.76512 27.3203C6.72606 26.0938 7.21044 24.2656 8.72606 23.7031C9.14012 23.5469 10.0307 23.6016 10.4292 23.8125ZM23.4682 29.4609C23.8901 29.6563 23.8901 30.2656 23.4604 30.4609C23.1948 30.5859 14.3042 30.5781 14.0307 30.4609C13.6167 30.2734 13.6089 29.6641 14.0151 29.4688C14.2573 29.3516 23.2104 29.3438 23.4682 29.4609Z" fill="white"/>
</svg>
