<svg width="43" height="43" viewBox="0 0 43 43" fill="none" xmlns="http://www.w3.org/2000/svg">
<path d="M20.0308 2.17519C18.8886 2.50273 17.8472 3.25859 17.0997 4.3168C16.8982 4.59394 13.1777 11.0523 8.84406 18.6529C2.75519 29.3273 0.899138 32.6363 0.714372 33.1822C0.51281 33.7869 0.479216 34.0221 0.470818 34.8115C0.462419 36.2896 0.915935 37.4234 1.94054 38.5068C2.59562 39.1871 3.30109 39.6406 4.24172 39.9598L4.91359 40.1865H21.5005H38.0874L38.7593 39.9598C39.6999 39.6406 40.4054 39.1871 41.0605 38.5068C42.463 37.0287 42.9165 35.0299 42.2866 33.0898C42.1355 32.6279 26.3128 4.91309 25.7837 4.18242C25.0866 3.225 23.9361 2.44394 22.7855 2.15C22.0968 1.97363 20.6943 1.98203 20.0308 2.17519ZM21.9204 6.86152C22.2984 7.21426 37.8775 34.5344 37.8775 34.8619C37.8775 35.0131 37.8019 35.1895 37.6675 35.3154L37.4659 35.5254H21.5005H5.53508L5.33351 35.3154C5.19914 35.1895 5.12355 35.0215 5.12355 34.8451C5.12355 34.6436 7.05519 31.1834 12.9593 20.8449C17.2593 13.2947 20.8874 7.0043 21.0134 6.87832C21.2905 6.56758 21.5929 6.56758 21.9204 6.86152Z" fill="black"/>
<path d="M19.1652 19.5852L19.1904 24.9854L21.5252 25.0105L23.8516 25.0273V19.6104V14.1934H21.5H19.1484L19.1652 19.5852Z" fill="black"/>
<path d="M19.1484 29.8984V32.25H21.5H23.8516V29.8984V27.5469H21.5H19.1484V29.8984Z" fill="black"/>
</svg>
