<svg width="40" height="40" viewBox="0 0 40 40" fill="none" xmlns="http://www.w3.org/2000/svg">
<path d="M18.4857 2.14844C16.0638 2.64844 13.9544 4.15625 12.6888 6.27344C11.306 8.60937 10.9935 11.5703 11.8685 14.1406C12.3216 15.5 12.9466 16.5312 13.931 17.5547C15.0091 18.6719 16.0325 19.3359 17.4232 19.7969C19.7669 20.5781 22.3294 20.2812 24.4388 18.9844C25.181 18.5234 26.3138 17.4766 26.8763 16.7266C27.3607 16.0859 27.9622 14.9219 28.2357 14.1172C28.9154 12.0625 28.8529 9.67187 28.056 7.65625C27.0091 4.98437 24.9232 3.07812 22.1888 2.28906C21.345 2.03906 19.3529 1.96875 18.4857 2.14844Z" fill="white"/>
<path d="M14.571 20.8516C11.5164 21.7969 8.82886 23.3516 6.91479 25.2813C4.94604 27.2578 4.04761 29.1719 3.54761 32.4375C3.39917 33.4219 3.38354 35.1875 3.51636 35.8203C3.74292 36.8984 4.28979 37.6719 4.99292 37.875C5.67261 38.0859 7.00073 37.9297 8.64136 37.4609C10.2507 36.9922 10.8914 36.4688 11.2195 35.3438C11.5007 34.3672 11.1648 33.2344 10.3757 32.5469L9.97729 32.1953L10.1179 31.8203C10.196 31.6172 10.4148 31.1328 10.6101 30.75C12.0632 27.9141 15.0007 25.7969 18.2195 25.2734C19.6882 25.0391 21.6335 25.1484 22.9929 25.5547C25.8679 26.4063 28.3757 28.5547 29.6414 31.2578C30.1257 32.2891 30.1257 32.2656 29.7742 32.5156C29.407 32.7656 29.0164 33.3125 28.8523 33.7969C28.6804 34.3125 28.7429 35.3984 28.9773 35.8516C29.2507 36.3828 29.7898 36.9063 30.2976 37.1328C30.8757 37.3906 32.696 37.8594 33.571 37.9766C35.1492 38.1875 35.9851 37.625 36.4148 36.0703C36.7664 34.8125 36.6101 32.3594 36.0554 30.2656C35.6179 28.5938 34.6648 26.9531 33.3445 25.5781C32.3992 24.6016 31.7976 24.1016 30.6257 23.3281C29.1414 22.3359 26.571 21.1797 24.907 20.7422L24.3835 20.6016L23.9695 20.875C23.3289 21.2969 22.6492 21.6172 21.8992 21.8516C21.2664 22.0469 21.1023 22.0625 19.9226 22.0625C18.7429 22.0625 18.5789 22.0469 17.946 21.8516C17.196 21.6172 16.5164 21.2969 15.8914 20.8906C15.6726 20.7422 15.446 20.625 15.3835 20.6328C15.321 20.6328 14.9617 20.7344 14.571 20.8516Z" fill="white"/>
<path d="M18.5391 27.6953C17.3672 27.9062 16.1016 28.4531 15.1328 29.1641L14.6797 29.4922L16.5 31.2734C17.6641 32.4062 18.3594 33.0391 18.4375 33.0156C18.5 32.9922 18.7656 32.8984 19.0234 32.8047C19.6719 32.5781 20.6328 32.6172 21.2578 32.9062L21.6953 33.1094L23.5078 31.3516C24.5 30.3828 25.3125 29.5703 25.3125 29.5469C25.3047 29.4609 24.4531 28.8672 23.8984 28.5625C23.1797 28.1719 22.2266 27.8359 21.4297 27.6953C20.625 27.5547 19.3125 27.5547 18.5391 27.6953Z" fill="white"/>
<path d="M24.5859 32.4141L22.7812 34.1953L22.9141 34.5C23.3047 35.3984 23.2891 36.2812 22.8672 37.125L22.6094 37.6562H22.9062C23.75 37.6562 27.1172 37.1953 27.9297 36.9688L28.1641 36.8984L28.1562 35.5781C28.1484 34.3828 28.1328 34.1875 27.9375 33.5547C27.8203 33.1641 27.6094 32.5938 27.4609 32.2891C27.1953 31.7109 26.5234 30.625 26.4453 30.625C26.4219 30.625 25.5859 31.4297 24.5859 32.4141Z" fill="white"/>
<path d="M13.2031 31.1641C12.2187 32.625 11.7969 34.0391 11.7969 35.8984C11.7969 36.8281 11.8125 36.9453 11.9375 36.9844C12.5234 37.1641 15.1875 37.5312 16.5703 37.625L17.4062 37.6797L17.1172 37.1016C16.8516 36.5625 16.8359 36.4922 16.8359 35.7891C16.8437 35.1719 16.875 34.9688 17.0312 34.6172L17.2187 34.1953L15.4531 32.4531C14.4766 31.4922 13.6484 30.7031 13.6016 30.7031C13.5547 30.7031 13.3828 30.9141 13.2031 31.1641Z" fill="white"/>
<path d="M19.3752 34.3438C18.2111 34.8516 18.0939 36.4766 19.1798 37.1484C20.2345 37.8047 21.5627 37.0547 21.5627 35.8047C21.5627 34.6563 20.4142 33.8906 19.3752 34.3438Z" fill="white"/>
</svg>
