<svg width="54" height="53" viewBox="0 0 54 53" fill="none" xmlns="http://www.w3.org/2000/svg">
<path d="M43.4875 33.92C43.4875 35.0908 42.5383 36.04 41.3675 36.04H11.6875V39.22C11.6875 39.8054 12.1621 40.28 12.7475 40.28H46.6675C47.253 40.28 47.7275 39.8054 47.7275 39.22V20.14C47.7275 19.5546 47.253 19.08 46.6675 19.08H43.4875V33.92Z" fill="white"/>
<path d="M40.3072 12.72H6.38715C5.80173 12.72 5.32715 13.1945 5.32715 13.78V32.86C5.32715 33.4454 5.80173 33.92 6.38715 33.92H40.3072C40.8925 33.92 41.3672 33.4454 41.3672 32.86V13.78C41.3672 13.1945 40.8925 12.72 40.3072 12.72ZM12.7472 29.68H10.6271C10.0417 29.68 9.56717 29.2054 9.56717 28.6201C9.56717 28.0346 10.0417 27.56 10.6271 27.56H12.7472C13.3326 27.56 13.8072 28.0345 13.8072 28.6199C13.8072 29.2053 13.3326 29.68 12.7472 29.68ZM23.3472 28.62C20.4247 28.62 18.0472 26.2424 18.0472 23.32C18.0472 20.3975 20.4247 18.02 23.3472 18.02C26.2696 18.02 28.6472 20.3975 28.6472 23.32C28.6472 26.2424 26.2696 28.62 23.3472 28.62ZM36.0672 29.68H33.9471C33.3617 29.68 32.8872 29.2054 32.8872 28.6201C32.8872 28.0346 33.3617 27.56 33.9471 27.56H36.0672C36.6526 27.56 37.1272 28.0345 37.1272 28.6199C37.1272 29.2053 36.6526 29.68 36.0672 29.68ZM35.0072 21.2C33.8363 21.2 32.8872 20.2508 32.8872 19.08C32.8872 17.909 33.8363 16.96 35.0072 16.96C36.178 16.96 37.1272 17.909 37.1272 19.08C37.1272 20.2508 36.178 21.2 35.0072 21.2Z" fill="white"/>
<path d="M23.347 26.5C25.1033 26.5 26.527 25.0763 26.527 23.32C26.527 21.5637 25.1033 20.14 23.347 20.14C21.5908 20.14 20.167 21.5637 20.167 23.32C20.167 25.0763 21.5908 26.5 23.347 26.5Z" fill="white"/>
</svg>
