<svg width="26" height="26" viewBox="0 0 26 26" fill="none" xmlns="http://www.w3.org/2000/svg">
<path d="M13 26C20.1797 26 26 20.1797 26 13C26 5.8203 20.1797 0 13 0C5.8203 0 0 5.8203 0 13C0 20.1797 5.8203 26 13 26Z" fill="url(#paint0_linear_2438_1250)"/>
<path d="M8.7998 13.9504L10.3421 18.2193C10.3421 18.2193 10.535 18.6188 10.7415 18.6188C10.9479 18.6188 14.0191 15.4238 14.0191 15.4238L17.4343 8.82739L8.85484 12.8484L8.7998 13.9504Z" fill="#C8DAEA"/>
<path d="M10.8442 15.0452L10.5482 18.1918C10.5482 18.1918 10.4242 19.156 11.3882 18.1918C12.3521 17.2276 13.2748 16.4842 13.2748 16.4842" fill="#A9C6D8"/>
<path d="M8.82699 14.1026L5.65434 13.0689C5.65434 13.0689 5.27518 12.915 5.39727 12.5662C5.4224 12.4943 5.4731 12.433 5.62477 12.3278C6.32774 11.8379 18.6363 7.41385 18.6363 7.41385C18.6363 7.41385 18.9838 7.29674 19.1888 7.37463C19.2395 7.39033 19.2851 7.41921 19.321 7.45833C19.3568 7.49744 19.3817 7.54539 19.393 7.59726C19.4151 7.68887 19.4244 7.78313 19.4205 7.8773C19.4195 7.95877 19.4096 8.03427 19.4022 8.15268C19.3272 9.36223 17.0838 18.3894 17.0838 18.3894C17.0838 18.3894 16.9496 18.9177 16.4687 18.9358C16.3505 18.9396 16.2328 18.9196 16.1225 18.8769C16.0122 18.8342 15.9117 18.7698 15.8268 18.6875C14.8832 17.8757 11.6215 15.6837 10.9007 15.2016C10.8845 15.1905 10.8708 15.1761 10.8606 15.1593C10.8504 15.1425 10.8439 15.1236 10.8416 15.1041C10.8315 15.0533 10.8867 14.9904 10.8867 14.9904C10.8867 14.9904 16.5662 9.94203 16.7173 9.41206C16.729 9.371 16.6848 9.35074 16.6255 9.36873C16.2483 9.5075 9.70904 13.6371 8.98733 14.0928C8.93538 14.1085 8.88047 14.1119 8.82699 14.1026Z" fill="white"/>
<defs>
<linearGradient id="paint0_linear_2438_1250" x1="13" y1="26" x2="13" y2="0" gradientUnits="userSpaceOnUse">
<stop stop-color="#1D93D2"/>
<stop offset="1" stop-color="#38B0E3"/>
</linearGradient>
</defs>
</svg>
