<svg width="10" height="10" viewBox="0 0 10 10" fill="none" xmlns="http://www.w3.org/2000/svg">
<g clip-path="url(#clip0_85_927)">
<path d="M6.79709 5L9.8512 8.05411C10.0496 8.2525 10.0496 8.57465 9.8512 8.77304L8.77355 9.8507C8.57515 10.0491 8.25351 10.0491 8.05461 9.8507L5 6.79659L1.94539 9.8507C1.74699 10.0491 1.42535 10.0491 1.22695 9.8507L0.148798 8.77304C-0.0495992 8.57465 -0.0495992 8.25301 0.148798 8.05411L3.20341 5L0.148798 1.94539C-0.0495992 1.74699 -0.0495992 1.42485 0.148798 1.22645L1.22745 0.148798C1.42585 -0.0495992 1.74749 -0.0495992 1.94589 0.148798L5 3.20341L8.05461 0.148798C8.25301 -0.0495992 8.57465 -0.0495992 8.77355 0.148798L9.8512 1.22695C10.0496 1.42535 10.0496 1.74699 9.8512 1.94589L6.79709 5Z" fill="#FF0000"/>
</g>
<defs>
<clipPath id="clip0_85_927">
<rect width="10" height="10" fill="white"/>
</clipPath>
</defs>
</svg>
