<svg width="36" height="22" viewBox="0 0 36 22" fill="none" xmlns="http://www.w3.org/2000/svg">
<path d="M8.09987 11.8803L8.05122 14.4126C8.03959 15.0269 8.15613 15.6304 8.36572 16.2032L6.921 18.1384C6.65136 18.4996 6.0748 18.326 6.05551 17.8775L5.87315 13.7556C5.86068 13.4728 5.60489 13.2638 5.32313 13.3063L1.21341 13.9207C0.76635 13.9876 0.483623 13.4597 0.788999 13.1276L3.59485 10.0747C3.78685 9.86544 3.75544 9.5374 3.52736 9.36926L0.194319 6.91712C-0.168363 6.65048 0.00853776 6.07757 0.460382 6.05622L4.60993 5.86075C4.89459 5.84739 5.10589 5.59253 5.06457 5.31262L4.46045 1.2317C4.39454 0.787268 4.92698 0.505058 5.26073 0.807173L8.3237 3.58372C8.53369 3.77375 8.86399 3.7414 9.03402 3.51422L11.5132 0.194445C11.7829 -0.166807 12.3589 0.00695973 12.3787 0.455285L12.5112 3.47445C12.4104 3.66534 12.309 3.85584 12.2234 4.05708L11.1143 6.66892L10.745 7.53928C9.1696 8.40815 8.13495 10.0667 8.09987 11.8803ZM35.2836 12.3043L35.2349 14.836C35.2225 15.4739 35.027 16.0623 34.7048 16.5638C34.5975 16.7305 34.4763 16.888 34.3425 17.0346L34.2877 19.8869C34.2834 20.12 34.2313 20.3412 34.1417 20.5418C33.8718 21.1438 33.2599 21.5594 32.5563 21.5484L30.8574 21.522C29.9192 21.5076 29.1731 20.7398 29.1909 19.8076L29.2234 18.1196L15.6317 17.9073L15.5992 19.5953C15.5814 20.5275 14.806 21.2713 13.8678 21.2569L12.1689 21.2305C11.4654 21.2195 10.8697 20.7848 10.6235 20.175C10.5416 19.9716 10.498 19.7487 10.5025 19.5161L10.5573 16.6638C10.4291 16.5131 10.314 16.3518 10.2131 16.1817C9.91053 15.6707 9.73769 15.0763 9.75002 14.4385L9.79867 11.9062C9.81978 10.8249 10.3523 9.87524 11.1617 9.27233C11.4339 9.06949 11.7348 8.908 12.0546 8.79319L12.68 7.3204L13.789 4.70856C13.9081 4.42834 14.0461 4.16077 14.2026 3.90763C14.5143 3.40111 14.8962 2.94991 15.332 2.5657C15.5501 2.37327 15.7817 2.19759 16.025 2.0402C16.5118 1.72426 17.0454 1.4798 17.6098 1.3168C18.1741 1.15381 18.7703 1.07203 19.3815 1.0816L26.1245 1.18679C26.7357 1.19635 27.3279 1.29653 27.886 1.47748C28.7188 1.747 29.48 2.19774 30.1143 2.79691C30.746 3.39376 31.2496 4.13559 31.5736 4.98689L32.5813 7.63185L33.1497 9.12329C33.7806 9.37345 34.3215 9.80484 34.7037 10.3625C35.0815 10.9139 35.2977 11.5834 35.2836 12.3043ZM14.0627 11.1289C13.0431 11.113 12.3508 11.7753 12.331 12.7851C12.3112 13.795 12.9782 14.4782 13.9972 14.4942C15.0168 14.5101 16.5425 14.7025 16.5618 13.6928C16.5816 12.683 15.0817 11.145 14.0627 11.1289ZM29.4019 8.83542L28.3943 6.19046C28.3022 5.94873 28.1753 5.72712 28.0205 5.53037C27.5558 4.94025 26.8404 4.57407 26.0588 4.56188L19.3157 4.45669C18.8064 4.44877 18.3059 4.59264 17.8786 4.86976C17.4514 5.14687 17.117 5.54451 16.9188 6.01139L15.8097 8.62324L25.2636 8.77049L29.4019 8.83542ZM31.0522 11.3941C30.0326 11.3782 28.4743 12.8689 28.4549 13.8781C28.4357 14.8878 29.9677 14.7433 30.9873 14.7592C32.0069 14.7751 32.6992 14.1128 32.7189 13.103C32.7383 12.0938 32.0718 11.41 31.0522 11.3941Z" fill="#214230"/>
</svg>
