<svg width="32" height="32" viewBox="0 0 32 32" fill="none" xmlns="http://www.w3.org/2000/svg">
<path d="M27.696 17.54L25.872 12.068C25.6074 11.2713 25.0984 10.5783 24.4174 10.0874C23.7365 9.59643 22.9181 9.3326 22.0786 9.33334H9.92129C9.08181 9.3326 8.26344 9.59643 7.58247 10.0874C6.9015 10.5783 6.39256 11.2713 6.12796 12.068L4.30396 17.54C3.81903 17.7431 3.40491 18.085 3.11361 18.5226C2.8223 18.9603 2.6668 19.4743 2.66663 20V24C2.66663 24.984 3.20529 25.8347 3.99996 26.2973V28C3.99996 28.3536 4.14043 28.6928 4.39048 28.9428C4.64053 29.1929 4.97967 29.3333 5.33329 29.3333H6.66663C7.02025 29.3333 7.35939 29.1929 7.60943 28.9428C7.85948 28.6928 7.99996 28.3536 7.99996 28V26.6667H24V28C24 28.3536 24.1404 28.6928 24.3905 28.9428C24.6405 29.1929 24.9797 29.3333 25.3333 29.3333H26.6666C27.0202 29.3333 27.3594 29.1929 27.6094 28.9428C27.8595 28.6928 28 28.3536 28 28V26.2973C28.4045 26.0653 28.7407 25.7308 28.9748 25.3275C29.2089 24.9242 29.3325 24.4663 29.3333 24V20C29.3333 18.892 28.6573 17.944 27.696 17.54ZM9.92129 12H22.0773C22.3572 11.9999 22.6301 12.088 22.8572 12.2517C23.0843 12.4154 23.2542 12.6464 23.3426 12.912L24.8173 17.3333H7.18263L8.65596 12.912C8.83863 12.3667 9.34796 12 9.92129 12ZM7.33329 24C7.07056 23.9999 6.81042 23.9481 6.56772 23.8475C6.32502 23.7468 6.10452 23.5994 5.9188 23.4136C5.54373 23.0382 5.33312 22.5293 5.33329 21.9987C5.33347 21.4681 5.54442 20.9593 5.91975 20.5842C6.29507 20.2091 6.80402 19.9985 7.33463 19.9987C7.86524 19.9988 8.37404 20.2098 8.74912 20.5851C9.12419 20.9605 9.3348 21.4694 9.33463 22C9.33445 22.5306 9.1235 23.0394 8.74817 23.4145C8.37285 23.7896 7.8639 24.0002 7.33329 24ZM24.6666 24C24.136 23.9998 23.6272 23.7889 23.2521 23.4136C22.8771 23.0382 22.6664 22.5293 22.6666 21.9987C22.6668 21.4681 22.8778 20.9593 23.2531 20.5842C23.6284 20.2091 24.1373 19.9985 24.668 19.9987C25.1986 19.9988 25.7074 20.2098 26.0824 20.5851C26.4575 20.9605 26.6681 21.4694 26.668 22C26.6678 22.5306 26.4568 23.0394 26.0815 23.4145C25.7062 23.7896 25.1972 24.0002 24.6666 24ZM12 5.83734C12.0066 4.38667 10.6173 3.10268 10.1506 2.71201C10.1082 2.67593 10.0543 2.65613 9.99863 2.65613C9.94293 2.65613 9.88906 2.67593 9.84663 2.71201C9.37729 3.10001 7.99329 4.36134 7.99996 5.83601C7.99996 7.02934 8.89729 8.00001 9.99996 8.00001C11.1026 8.00001 12 7.02934 12 5.83734ZM18 5.83734C18.0066 4.38667 16.6173 3.10134 16.1506 2.71201C16.1082 2.67593 16.0543 2.65613 15.9986 2.65613C15.9429 2.65613 15.8891 2.67593 15.8466 2.71201C15.376 3.10001 13.992 4.36267 13.9986 5.83734C14 7.02934 14.8973 8.00001 16 8.00001C17.1026 8.00001 18 7.02934 18 5.83734ZM24 5.83734C24.0066 4.38667 22.6173 3.10134 22.1506 2.71201C22.1082 2.67593 22.0543 2.65613 21.9986 2.65613C21.9429 2.65613 21.8891 2.67593 21.8466 2.71201C21.3773 3.10001 19.9933 4.36134 20 5.83601C20 7.02934 20.8973 8.00001 22 8.00001C23.1026 8.00001 24 7.02934 24 5.83734Z" fill="#214230"/>
</svg>
