<svg width="32" height="32" viewBox="0 0 32 32" fill="none" xmlns="http://www.w3.org/2000/svg">
<path d="M25.6264 0.992425C25.4577 0.994363 25.4282 1.03036 25.4253 1.03368C25.4224 1.03705 25.3908 1.07149 25.4129 1.2388C25.4351 1.40611 25.5229 1.66724 25.6852 1.96549C26.0096 2.56199 26.6178 3.30717 27.4096 3.99305C28.2013 4.67899 29.0256 5.17461 29.6623 5.41068C29.9806 5.52868 30.2516 5.57836 30.4204 5.57642C30.5891 5.57455 30.6187 5.53855 30.6216 5.53517C30.6245 5.5318 30.6559 5.49743 30.6338 5.33011C30.6116 5.1628 30.5238 4.90168 30.3616 4.60343C30.0372 4.00693 29.429 3.26174 28.6372 2.5758C27.8454 1.88993 27.0211 1.3943 26.3844 1.15824C26.0661 1.04018 25.7952 0.990488 25.6264 0.992425ZM16 3.35293C7.88831 3.35293 1.3125 9.92874 1.3125 18.0404C1.3125 21.9747 2.85938 25.5477 5.37813 28.1844C-0.327875 31.2322 11.8227 30.0404 16 30.0404C20.1666 30.0404 31.8429 31.7379 28.4324 26.623C30.2379 23.4435 30.6875 21.9855 30.6875 18.0404C30.6875 13.9884 29.0465 10.3197 26.3929 7.66236L21.948 10.2977L23.874 5.64024C21.5983 4.19217 18.8972 3.35293 16 3.35293ZM25.7511 4.0448L24.2774 7.6088L27.5947 5.64186L26.6735 4.84386L26.673 4.84343L26.6725 4.84292L25.7511 4.0448ZM16 8.47792C21.2746 8.47792 25.5625 12.7659 25.5625 18.0404C25.5625 23.315 21.2746 27.6029 16 27.6029C10.7254 27.6029 6.4375 23.315 6.4375 18.0404C6.4375 12.7659 10.7254 8.47792 16 8.47792ZM16 9.60293C14.7239 9.60293 13.5152 9.88543 12.4319 10.3906C13.1536 12.4456 14.3886 15.0404 16 15.0404C17.6139 15.0404 18.8079 12.4373 19.547 10.3807C18.4691 9.8818 17.2677 9.60293 16 9.60293ZM22.172 12.2829C20.4399 13.6044 18.3506 15.5823 18.8489 17.1159C19.3477 18.6511 22.1931 18.982 24.3776 19.0494C24.4168 18.7185 24.4375 18.382 24.4375 18.0404C24.4375 15.8128 23.5778 13.7897 22.172 12.2829ZM9.81394 12.2981C8.41644 13.8032 7.5625 15.8202 7.5625 18.0404C7.5625 18.3873 7.58375 18.729 7.62425 19.0648C9.80131 19.0132 12.6481 18.6402 13.1458 17.1085C13.6441 15.5747 11.5407 13.6365 9.81394 12.2981ZM14.2007 15.0258C14.0984 15.0287 13.9988 15.0595 13.9127 15.1149C13.8266 15.1702 13.7572 15.248 13.712 15.3398C13.6668 15.4317 13.6476 15.5341 13.6563 15.6361C13.6651 15.7381 13.7015 15.8358 13.7616 15.9186C13.8186 15.997 13.8948 16.0594 13.983 16.0997C14.0712 16.14 14.1682 16.1568 14.2648 16.1485C14.3614 16.1402 14.4542 16.1071 14.5342 16.0524C14.6142 15.9977 14.6788 15.9233 14.7215 15.8363C14.7643 15.7493 14.7839 15.6528 14.7783 15.556C14.7728 15.4592 14.7424 15.3655 14.69 15.284C14.6376 15.2024 14.565 15.1358 14.4793 15.0906C14.3935 15.0453 14.2976 15.023 14.2007 15.0258ZM17.7993 15.0258C17.7024 15.023 17.6065 15.0453 17.5207 15.0906C17.435 15.1358 17.3624 15.2024 17.31 15.284C17.2576 15.3655 17.2272 15.4592 17.2217 15.556C17.2161 15.6528 17.2357 15.7493 17.2785 15.8363C17.3212 15.9233 17.3858 15.9977 17.4658 16.0524C17.5458 16.1071 17.6386 16.1402 17.7352 16.1485C17.8318 16.1568 17.9288 16.14 18.017 16.0997C18.1052 16.0594 18.1814 15.997 18.2384 15.9186C18.2985 15.8358 18.3349 15.7381 18.3437 15.6361C18.3524 15.5341 18.3332 15.4317 18.288 15.3398C18.2428 15.248 18.1734 15.1702 18.0873 15.1149C18.0012 15.0595 17.9016 15.0287 17.7993 15.0258ZM16 16.0404C14.8954 16.0404 14 16.9359 14 18.0404C14 19.145 14.8954 20.0404 16 20.0404C17.1046 20.0404 18 19.145 18 18.0404C18 16.9359 17.1046 16.0404 16 16.0404ZM13.1064 18.4177C13.0184 18.419 12.9318 18.4409 12.8537 18.4818C12.7757 18.5226 12.7083 18.5812 12.657 18.6528C12.6057 18.7245 12.572 18.8071 12.5585 18.8942C12.5451 18.9813 12.5522 19.0703 12.5794 19.154C12.6255 19.2959 12.7261 19.4137 12.859 19.4814C12.9919 19.5491 13.1463 19.5613 13.2882 19.5152C13.4162 19.4736 13.5251 19.3875 13.5951 19.2724C13.665 19.1574 13.6914 19.0211 13.6694 18.8883C13.6474 18.7555 13.5785 18.6349 13.4752 18.5486C13.3719 18.4622 13.2411 18.4158 13.1064 18.4177ZM18.8629 18.4181C18.7225 18.4237 18.5892 18.4817 18.4894 18.5807C18.3896 18.6797 18.3304 18.8124 18.3236 18.9528C18.3168 19.0932 18.3627 19.2311 18.4525 19.3393C18.5422 19.4475 18.6692 19.5181 18.8085 19.5374C18.9477 19.5566 19.0891 19.523 19.2048 19.4432C19.3205 19.3634 19.4022 19.2431 19.4336 19.1061C19.4651 18.9691 19.4441 18.8253 19.3749 18.703C19.3056 18.5807 19.1931 18.4887 19.0594 18.4452C18.996 18.4246 18.9295 18.4154 18.8629 18.4181ZM13.151 20.1503C11.8016 20.1568 10.011 21.2023 8.6245 22.1458C9.81381 24.2813 11.9032 25.8435 14.3834 26.3231C15.0078 24.2362 15.5347 21.4095 14.2306 20.462C13.9272 20.2416 13.5595 20.1483 13.151 20.1503ZM18.8395 20.1516C18.4283 20.1516 18.0588 20.2463 17.7554 20.4667C16.4494 21.4155 17.0139 24.2233 17.6249 26.3215C20.1053 25.8394 22.1941 24.274 23.3811 22.1357C22.0057 21.1842 20.1977 20.1516 18.8395 20.1515V20.1516ZM16 20.5142C15.8508 20.5142 15.7077 20.5734 15.6023 20.6789C15.4968 20.7844 15.4375 20.9275 15.4375 21.0767C15.4375 21.2259 15.4968 21.3689 15.6023 21.4744C15.7077 21.5799 15.8508 21.6392 16 21.6392C16.1492 21.6392 16.2923 21.5799 16.3977 21.4744C16.5032 21.3689 16.5625 21.2259 16.5625 21.0767C16.5625 20.9275 16.5032 20.7844 16.3977 20.6789C16.2923 20.5734 16.1492 20.5142 16 20.5142Z" fill="#214230"/>
</svg>
