<svg width="32" height="32" viewBox="0 0 32 32" fill="none" xmlns="http://www.w3.org/2000/svg">
<path d="M13.0919 0.0483508C12.4169 0.192489 11.8157 0.677635 11.5239 1.31044C11.429 1.52137 11.3165 1.97488 11.3165 2.15417V2.24206H10.9579C10.3146 2.24206 9.9419 2.38268 9.56924 2.75533C9.30557 3.01548 9.15791 3.30376 9.09463 3.67289C8.95401 4.49904 9.50596 5.33926 10.3286 5.55371C10.5396 5.60644 10.8419 5.61348 13.5349 5.61348C15.4193 5.61699 16.5794 5.60293 16.6989 5.58184C17.5673 5.4166 18.1825 4.53772 18.0384 3.67289C17.9751 3.30024 17.8275 3.01548 17.5603 2.7483C17.1876 2.37565 16.822 2.24206 16.1716 2.24206H15.8306L15.7919 1.96433C15.7111 1.41239 15.5212 1.03271 15.1275 0.642479C14.6001 0.115146 13.8337 -0.106334 13.0919 0.0483508ZM13.8267 1.437C13.9005 1.45809 14.0376 1.54598 14.1325 1.63387C14.7864 2.24557 14.1782 3.28969 13.3028 3.04712C13.113 2.99439 12.8142 2.69556 12.7614 2.50572C12.67 2.17526 12.7368 1.9116 12.9618 1.67254C13.2044 1.42293 13.4892 1.34208 13.8267 1.437Z" fill="#214230"/>
<path d="M5.26739 4.5553C4.67324 4.7135 4.20215 5.19864 4.05801 5.7998C3.98066 6.13378 3.98066 27.0373 4.05801 27.3712C4.16348 27.8212 4.44824 28.2009 4.85254 28.44C5.28496 28.6966 4.80684 28.6826 12.2565 28.672L18.9467 28.6615L18.7498 28.4154C18.1557 27.6771 17.4315 26.3904 17.0869 25.4764C16.8057 24.724 16.6053 23.919 16.4612 22.9663C16.4049 22.5901 16.3979 22.2631 16.3979 19.8726C16.3979 17.3097 16.4014 17.1937 16.4682 16.9898C16.6159 16.5398 17.0166 16.118 17.4596 15.9527C17.5862 15.9035 17.8463 15.8578 18.1557 15.8262C19.8713 15.6504 21.3409 15.1934 22.7049 14.4199L23.1303 14.1774V10.0993C23.1303 5.66269 23.1338 5.79629 22.9334 5.39903C22.726 4.98771 22.2233 4.61506 21.7627 4.52717C21.6573 4.50608 21.035 4.49202 20.353 4.49202H19.1295L19.1049 4.62209C19.0346 5.0088 18.7147 5.56426 18.3561 5.91933C17.994 6.28143 17.5756 6.52049 17.0659 6.6576C16.8338 6.72088 16.6369 6.72439 13.5678 6.72439C10.4916 6.72439 10.3018 6.72088 10.0697 6.6576C9.36661 6.46776 8.79005 6.05292 8.39982 5.45879C8.22403 5.1881 8.06935 4.84006 8.03067 4.62209L8.00606 4.49202L6.75098 4.49553C5.68575 4.49553 5.46426 4.50608 5.26739 4.5553ZM10.5619 8.6931C10.6252 8.72474 10.692 8.78802 10.7166 8.83724C10.7447 8.90052 10.7553 9.48059 10.7553 10.8235V12.7254L10.6533 12.8274L10.5514 12.9293H8.63185H6.71231L6.59981 12.8274L6.4838 12.7254V10.7919C6.4838 8.90755 6.48731 8.85834 6.55411 8.78099C6.59278 8.73881 6.65606 8.68959 6.69473 8.67201C6.73341 8.65795 7.59474 8.64389 8.60372 8.64389C10.1963 8.64037 10.46 8.6474 10.5619 8.6931ZM20.3178 10.8903V11.4528H16.0991H11.8803V10.8903V10.3278H16.0991H20.3178V10.8903ZM10.6533 14.7188L10.7553 14.8207V16.7226C10.7553 18.0656 10.7447 18.6456 10.7166 18.7089C10.6252 18.9058 10.6076 18.9058 8.60372 18.9058C6.82833 18.9058 6.76153 18.9023 6.64903 18.8355C6.58575 18.7968 6.51895 18.723 6.49786 18.6738C6.47676 18.614 6.46973 17.8933 6.47325 16.7015L6.4838 14.8207L6.59981 14.7188L6.71231 14.6168H8.63185H10.5514L10.6533 14.7188ZM15.2553 16.8668V17.4293H13.5678H11.8803V16.8668V16.3043H13.5678H15.2553V16.8668ZM10.6639 20.7022L10.7553 20.8112V22.7272V24.6432L10.6533 24.7451L10.5514 24.8471H8.62833C6.51192 24.8471 6.58223 24.8541 6.50489 24.6291C6.48028 24.5553 6.46622 23.9119 6.46622 22.7131C6.46622 20.8042 6.47325 20.7233 6.63145 20.6319C6.67364 20.6073 7.32052 20.5968 8.63536 20.5933H10.5725L10.6639 20.7022ZM15.2553 22.8432V23.4057H13.5678H11.8803V22.8432V22.2807H13.5678H15.2553V22.8432Z" fill="#214230"/>
<path d="M7.17017 10.8025V12.2614H8.62915H10.0881V10.8025V9.3435H8.62915H7.17017V10.8025ZM9.64517 9.9974C9.71197 10.0677 9.73658 10.1275 9.73658 10.2329C9.73658 10.37 9.71548 10.3982 9.16705 10.9501C8.57993 11.5372 8.45689 11.6251 8.29165 11.5618C8.24595 11.5442 8.05962 11.379 7.88384 11.1962C7.58853 10.8974 7.55689 10.8517 7.55689 10.7357C7.55689 10.5529 7.71157 10.3982 7.89087 10.3982C7.99634 10.3982 8.05259 10.4298 8.21079 10.581L8.40415 10.7638L8.83306 10.3349C9.24087 9.92357 9.269 9.90599 9.40611 9.90599C9.51509 9.90599 9.57486 9.92708 9.64517 9.9974Z" fill="#214230"/>
<path d="M7.17017 16.7437V18.2027H8.62915H10.0881V16.7437V15.2848H8.62915H7.17017V16.7437ZM9.5608 15.9C9.69087 15.9668 9.73658 16.0512 9.73658 16.2199C9.73658 16.3395 9.69791 16.3887 9.2022 16.8914C8.40767 17.6929 8.40767 17.6965 7.90142 17.1902C7.57798 16.8668 7.55689 16.8351 7.55689 16.7016C7.55689 16.5047 7.68696 16.3746 7.88736 16.3746C8.01743 16.3746 8.05611 16.3957 8.20728 16.5504L8.37954 16.7262L8.78736 16.3254C9.30416 15.8156 9.34986 15.791 9.5608 15.9Z" fill="#214230"/>
<path d="M7.17017 22.7201V24.1791H8.62915H10.0881V22.7201V21.2612H8.62915H7.17017V22.7201ZM9.63462 21.9256C9.71197 22.0029 9.73658 22.0627 9.73658 22.1611C9.73658 22.2842 9.70142 22.3299 9.14947 22.8854C8.53072 23.5076 8.43579 23.5709 8.2565 23.4725C8.13345 23.4092 7.66587 22.9486 7.6061 22.8361C7.50064 22.6357 7.56743 22.4354 7.76431 22.351C7.91548 22.2912 8.02798 22.3299 8.22837 22.5162L8.40415 22.6779L8.83658 22.2526C9.23384 21.8588 9.27955 21.8237 9.39908 21.8237C9.49752 21.8237 9.55728 21.8483 9.63462 21.9256Z" fill="#214230"/>
<path d="M24.1037 14.9191C24.0685 14.9297 23.8716 15.0422 23.6642 15.1687C22.0716 16.1355 20.2154 16.7507 18.3204 16.9406C17.8564 16.9863 17.7439 17.032 17.5962 17.2288C17.5224 17.3273 17.5224 17.3589 17.5118 19.6194C17.5013 22.0065 17.5189 22.5233 17.649 23.2756C17.9302 24.942 18.6474 26.4959 19.8111 27.9583C20.2329 28.4857 21.3263 29.572 21.8923 30.022C22.4408 30.4579 23.1298 30.936 23.6747 31.2489C24.0228 31.4528 24.0826 31.4739 24.2548 31.4739C24.4271 31.4739 24.4869 31.4528 24.8349 31.2489C26.5083 30.2751 28.0552 28.8864 29.0994 27.4275C30.2033 25.8736 30.8291 24.1932 30.9697 22.3862C30.9943 22.0592 31.0048 21.0643 30.9978 19.6018C30.9873 17.3589 30.9873 17.3273 30.9134 17.2288C30.7658 17.032 30.6533 16.9863 30.1892 16.9406C28.2837 16.7472 26.4837 16.1531 24.8736 15.1828C24.4658 14.9367 24.2759 14.8699 24.1037 14.9191ZM27.7212 19.869C28.006 20.0026 28.1888 20.2944 28.1888 20.6284C28.1923 20.9659 28.1783 20.9835 25.8509 23.3037C23.4462 25.6978 23.5447 25.617 23.1439 25.5748C23.0314 25.5642 22.8908 25.5185 22.8029 25.4658C22.613 25.3533 20.4861 23.2158 20.4052 23.0576C20.1767 22.6041 20.4298 22.0241 20.9185 21.8799C21.147 21.8096 21.1751 21.8096 21.4107 21.8799C21.5865 21.9327 21.6568 21.9924 22.4091 22.7412L23.2177 23.5463L25.0107 21.7499C26.424 20.3366 26.8423 19.9358 26.9794 19.869C27.215 19.7565 27.4787 19.7565 27.7212 19.869Z" fill="#214230"/>
</svg>
