<svg width="88" height="27" viewBox="-40 -20 774 321" fill="none" xmlns="http://www.w3.org/2000/svg">
<path d="M0.00856546 180.281C0.724024 129.241 8.17949 152.17 15.6099 129.241C23.0403 106.313 46.5612 95.3531 156.006 84.6947C318.97 68.8242 257.29 27.4703 390.735 4.15668C477.138 -10.9383 619.832 19.935 619.832 19.935L642.019 21.588C652.188 23.2411 658.137 24.0677 657.213 25.7208C648.813 29.8079 656.08 34.4086 647.103 36.8792C658.387 52.4681 669.786 62.7571 670.175 76.876C670.869 103.072 660.235 110.466 679.383 124.563C698.539 138.654 697.732 204.928 683.547 215.675C682.451 216.504 676.453 222.412 672.499 223C672.999 217 673.499 211.746 673.499 208C673.499 170.887 645.377 140.513 606.181 140.513C566.991 140.513 539.999 167.5 537.499 203.5C537.499 214.5 537.999 220.384 537.999 223.5C428.261 225.087 279.677 224.987 173.718 224.916L171.944 224.915C173.467 219.456 173.793 216.236 174.717 206.318C174.717 169.205 143.609 140.513 104.422 140.513C65.2295 140.513 42 165 37.4384 202.5C37 209 37.4384 214.5 40 227.5C32 227 -0.605717 224.558 0.00856546 180.281Z" fill="currentColor"/>
<path d="M104.992 145C69.6618 145 41 173.658 41 208.999C41 214.969 42.0795 220.623 43.6003 226.109C51.1177 253.092 75.6072 273 104.994 273C135.759 273 161.416 251.28 167.566 222.354C168.478 218.048 169 213.598 169 209.012C168.998 173.658 140.337 145 104.992 145Z" fill="currentColor"/>
<path d="M605.992 145C570.662 145 542 173.658 542 208.999C542 214.969 543.079 220.623 544.6 226.109C552.118 253.092 576.607 273 605.994 273C636.759 273 662.416 251.28 668.566 222.354C669.478 218.048 670 213.598 670 209.012C669.998 173.658 641.337 145 605.992 145Z" fill="currentColor"/>
</svg>
