<svg width="88" height="27" viewBox="0 0 88 27" fill="none" xmlns="http://www.w3.org/2000/svg">
<g clip-path="url(#clip0_473_551)">
<path d="M63.48 21.0516C58.8281 21.8051 35.9558 21.9935 25.1012 21.9935C24.8686 21.9935 24.6811 21.6446 24.6166 21.4702L22.5814 21.371C22.7428 20.4621 22.6201 18.1004 20.8369 15.9237C18.6078 13.2027 13.5681 12.9792 11.436 16.8655C11.016 17.4838 10.2148 19.1313 10.3699 20.7754L9.59458 20.7376C7.75317 20.8423 6.784 20.633 5.13643 20.319C3.81837 20.0679 2.97196 18.1911 2.71352 17.2841H2.03511C1.56991 17.2004 0.61367 15.7841 0.193701 15.0865C-0.116431 14.4167 0.0644792 13.3423 0.193701 12.8888L1.16286 11.9469C2.17079 10.1051 5.13643 9.29576 6.49326 9.12135C9.01308 8.91205 12.3082 8.38879 12.4051 8.17949C12.4827 8.01205 12.8251 7.83065 12.9866 7.76089C15.9264 7.69111 21.9223 7.55159 22.3875 7.55159C22.8527 7.55159 25.1657 7.97019 26.2642 8.17949H30.2377C32.3311 5.75159 37.8296 2.42368 40.317 1.06321C44.0386 -0.862368 57.0512 0.260887 63.0924 1.06321C64.643 1.31438 69.4243 5.63297 71.621 7.76089L85.8677 8.70275C87.2245 8.91205 88.3875 12.6795 87.806 14.3539C87.3408 15.6934 84.5754 18.3307 83.251 19.4818C82.6307 19.733 78.7283 20.0748 76.8545 20.2144L75.9822 20.269C75.8853 18.2275 74.5091 14.0609 69.7796 13.726C67.6474 13.7179 63.4413 15.1693 63.6739 21.0395L63.48 21.0516Z" fill="currentColor"/>
<path d="M16.3781 26.8653C13.2314 26.8322 10.6862 24.0296 10.7171 20.6058C10.7235 17.2336 13.3192 14.4333 16.4904 14.4148C19.6857 14.3965 22.2782 17.2772 22.2466 20.7789C22.1921 24.1506 19.5488 26.8985 16.3781 26.8653Z" fill="currentColor"/>
<path d="M69.6819 26.6559C66.5352 26.6228 63.99 23.8203 64.0208 20.3964C64.0272 17.0242 66.623 14.224 69.7941 14.2054C72.9894 14.1871 75.5819 17.0679 75.5503 20.5696C75.4959 23.9413 72.8526 26.6892 69.6819 26.6559Z" fill="currentColor"/>
</g>
<defs>
<clipPath id="clip0_473_551">
<rect width="88" height="27" fill="white"/>
</clipPath>
</defs>
</svg>
