<svg width="90" height="33" viewBox="0 0 90 33" fill="none" xmlns="http://www.w3.org/2000/svg">
<g clip-path="url(#clip0_473_556)">
<path d="M54.4825 0.04235C59.5491 0.399035 64.6157 0.528737 69.7153 0.820572C70.6365 0.885423 71.5576 1.01513 72.3144 0.334182C72.6105 0.0423479 72.9394 0.0423499 73.0052 0.52874C73.137 1.56637 73.9923 1.43667 74.6174 1.50152C76.3941 1.79335 78.0718 2.05276 79.8155 2.34459C80.1116 2.40944 80.6711 2.4743 80.2432 2.89583C79.5524 3.51193 79.9473 3.80375 80.4408 4.22531C82.2172 5.74933 83.961 7.20849 85.8035 8.7325C86.2312 9.08921 86.7246 9.41345 87.2839 9.7053C88.4026 10.1917 88.896 11.1645 89.2579 12.2021C89.3237 12.4939 89.4552 12.9803 89.3237 13.11C88.2052 14.5692 88.9618 15.9635 89.4552 17.2605C89.8829 18.3631 89.9487 19.3358 89.7514 20.4707C89.6198 21.5732 89.554 22.6109 89.3237 23.7457C89.1264 25.0753 88.4683 26.048 87.0535 26.2425C85.7047 26.5343 84.3886 26.7291 83.0398 27.0207C82.2503 27.1506 81.1316 27.0532 81.1316 26.2425C81.1316 25.2698 81.1973 25.3021 81.0988 24.2969C80.5065 20.2762 77.1507 17.7145 74.7489 17.4551C69.1231 16.7417 65.2737 19.7898 64.8461 25.3021C64.7145 27.4424 64.0235 27.3125 61.8851 27.3774C50.4029 27.4424 38.9866 27.5073 27.5044 27.6692C27.2083 27.6692 27.0109 27.6692 26.7148 27.6692C25.0369 27.6692 23.7868 28.1233 23.5565 26.048C23.5565 24.8483 23.5236 24.3294 23.3591 23.4864C23.1617 22.4487 22.7011 21.4759 22.0431 20.6329C20.8915 19.1413 19.3781 18.1361 17.766 17.6497C15.2327 16.8714 12.5349 17.52 10.4293 19.044C8.58693 20.3735 7.53412 22.319 7.23802 24.8483C7.17222 25.4643 7.23802 26.2425 7.23802 26.9559C7.17222 28.1233 8.02762 28.2206 5.23111 28.1558C4.11252 28.091 3.05971 27.7991 1.974 27.5396C0.921201 27.1829 0.493502 26.275 0.427702 25.3021C0.230301 22.5784 0.0658002 19.9519 0 17.2605C0 16.7742 0.296105 16.1581 0.625103 15.7365C2.23721 13.6613 4.57312 12.8182 7.04061 12.3966C12.2388 11.4887 17.4041 10.6457 22.6023 9.83501C24.083 9.64045 25.4975 9.15406 26.8136 8.37584C29.643 6.7221 32.604 5.10079 35.4004 3.38222C39.3485 0.950274 43.7901 0.39904 48.2972 0.107206C50.4686 -0.0873501 52.4427 0.04235 54.4825 0.04235Z" fill="currentColor"/>
<path d="M15.58 17.7179C19.7912 17.7179 23.2457 21.1226 23.2457 25.2731C23.2457 29.4236 19.857 32.8284 15.58 32.9258C11.3688 32.9258 7.9143 29.5209 7.9143 25.3704C7.88141 21.1875 11.3359 17.7827 15.58 17.7179Z" fill="currentColor"/>
<path d="M73.1892 32.7957C68.8792 32.7957 65.4248 29.5208 65.4248 25.3054C65.359 21.1549 68.8134 17.7502 73.0246 17.6529C77.2359 17.588 80.6903 20.9928 80.7891 25.1432C80.9537 29.2937 77.499 32.6986 73.1892 32.7957Z" fill="currentColor"/>
</g>
<defs>
<clipPath id="clip0_473_556">
<rect width="90" height="33" fill="white"/>
</clipPath>
</defs>
</svg>
