<svg width="90" height="33" viewBox="0 0 90 33" fill="none" xmlns="http://www.w3.org/2000/svg">
<g clip-path="url(#clip0_473_562)">
<path d="M48.1409 24.8748C41.3954 24.8748 34.6853 24.8748 28.0104 24.8748C27.2685 24.8748 26.5269 24.7358 26.5977 23.9351C26.6682 21.9162 26.8803 21.7422 26.2797 19.584C26.2092 19.3056 25.9971 18.8531 25.8207 18.5746C25.0083 17.2867 24.6552 16.8342 23.7369 16.1032C22.5361 15.1634 21.0528 14.676 19.4989 14.6412C17.7683 14.6064 16.0378 14.7457 14.5898 15.7899C12.2236 17.4607 11.1287 19.4796 11.164 22.1947C11.1994 25.4667 10.6696 24.6312 8.26804 24.5617C5.9018 24.4919 3.53554 24.3529 1.20462 24.2136C0.00384349 24.1439 0.0744799 24.0744 0.533602 22.9605C0.745504 22.5776 0.816133 22.1599 0.816133 21.777C0.957402 20.3846 1.02804 18.9923 1.09867 17.5303C1.16931 15.5462 2.12287 14.0843 3.71214 12.866C6.00774 11.1952 8.69185 10.3946 11.3759 9.66363C16.5676 8.13206 21.9004 7.81877 27.198 7.40107C28.5402 7.26184 29.9528 7.19221 31.2948 7.01818C32.1071 6.87894 32.8488 6.56566 33.5904 6.21759C36.098 5.03408 38.57 3.74619 41.0777 2.49308C44.3267 0.82227 47.7524 -0.0131341 51.4607 0.0216744C55.0985 0.160908 58.8067 -0.117555 62.4445 0.613422C62.833 0.68304 63.3274 0.68304 63.7159 0.613422C64.2457 0.543806 64.8106 0.334956 65.1991 0.961506C65.4112 1.23997 65.8702 1.23998 66.2233 1.30959C70.744 2.24942 75.1939 3.4329 79.4319 5.27777C79.891 5.4866 80.7387 6.25239 80.9505 4.96448C80.9505 4.89487 81.0213 4.82524 81.0918 4.82524C81.2685 4.79042 81.657 4.79044 81.8335 4.79044C82.7871 4.79044 83.7054 4.79044 84.6588 4.72082C85.0473 4.72082 85.6125 4.72081 85.9302 4.51196C87.9435 3.25887 90.1683 3.98983 92.2521 3.78099C92.9937 3.71137 93.3822 4.12909 93.135 4.79044C92.8524 5.4518 92.9937 6.18279 92.1813 6.70491C91.7928 6.98338 91.7928 7.88839 91.7223 8.48012C91.6518 8.75859 91.8636 9.07188 92.0049 9.35034C94.5123 13.2837 94.371 17.6348 94.5123 21.951C94.5123 22.8212 94.3005 23.413 93.4176 23.6217C91.1925 24.0046 89.0382 24.3529 86.8131 24.7009C86.2833 24.7704 85.6476 24.666 85.5771 24.0046C85.5771 22.1599 85.8948 20.6979 85.0119 18.9923C84.235 17.4607 83.7054 16.7994 82.5751 15.9988C81.4803 15.233 80.2795 14.676 78.9375 14.5368C78.4431 14.4672 77.7015 14.3976 77.1717 14.4672C73.4634 14.8501 71.8036 16.7297 70.9204 18.505C70.1788 19.9669 69.8965 21.7073 70.1083 23.3433C70.3201 25.1882 69.9316 24.8748 68.0245 24.8748C61.4203 24.8748 54.8159 24.8748 48.2117 24.8748C48.1409 24.9445 48.1409 24.8748 48.1409 24.8748Z" fill="currentColor"/>
<path d="M26.2442 22.3341C26.1736 26.3719 22.8891 29.5048 18.757 29.435C14.7308 29.3655 11.6229 26.2326 11.6936 22.1949C11.7642 18.0179 14.8721 14.9547 19.0395 15.0244C23.1363 15.0244 26.3149 18.2267 26.2442 22.3341Z" fill="currentColor"/>
<path d="M70.4961 22.1945C70.4961 18.1567 73.6746 14.9543 77.7714 14.9543C81.8682 14.9543 85.1174 18.0871 85.1174 22.1249C85.1174 26.1626 81.8682 29.365 77.8421 29.365C73.7454 29.4348 70.4961 26.3367 70.4961 22.1945Z" fill="currentColor"/>
</g>
<defs>
<clipPath id="clip0_473_562">
<rect width="90" height="33" fill="white"/>
</clipPath>
</defs>
</svg>
