<svg width="14" height="14" viewBox="0 0 14 14" fill="none" xmlns="http://www.w3.org/2000/svg">
    <path d="M1.09634 0.188094C0.845547 -0.062698 0.438886 -0.062698 0.188094 0.188094C-0.062698 0.438886 -0.062698 0.845547 0.188094 1.09634L1.09634 0.188094ZM12.9037 13.8119C13.1545 14.0627 13.5611 14.0627 13.8119 13.8119C14.0627 13.5611 14.0627 13.1545 13.8119 12.9037L12.9037 13.8119ZM0.188094 12.9037C-0.062698 13.1545 -0.062698 13.5611 0.188094 13.8119C0.438886 14.0627 0.845547 14.0627 1.09634 13.8119L0.188094 12.9037ZM13.8119 1.09634C14.0627 0.845547 14.0627 0.438886 13.8119 0.188094C13.5611 -0.062698 13.1545 -0.062698 12.9037 0.188094L13.8119 1.09634ZM0.188094 1.09634L12.9037 13.8119L13.8119 12.9037L1.09634 0.188094L0.188094 1.09634ZM1.09634 13.8119L13.8119 1.09634L12.9037 0.188094L0.188094 12.9037L1.09634 13.8119Z" fill="#656565"/>
</svg>
