<svg width="18" height="18" viewBox="0 0 14 14"><path fill="#000" d="M11.1 12.1h-.2s-.1 0-.1-.1L9 10.2c-.2-.2-.2-.4 0-.6.2-.2.4-.2.6 0l1 1V5.8c0-.2.2-.4.4-.4s.4.2.4.4v4.8l1-1c.2-.2.4-.2.6 0 .2.2.2.4 0 .6L11.4 12s-.1 0-.1.1h-.2zm-7.6-1.2H1.2c-.2 0-.4-.2-.4-.4s.2-.4.4-.4h2.3c.2 0 .4.2.4.4s-.2.4-.4.4zm2.3-2.3H1.2c-.2 0-.4-.2-.4-.4s.2-.4.4-.4h4.7c.2 0 .4.2.4.4s-.2.4-.5.4zm2.4-2.3h-7c-.2 0-.4-.2-.4-.4s.2-.4.4-.4h7c.2 0 .4.2.4.4s-.2.4-.4.4zm2.3-2.4H1.2c-.2 0-.4-.2-.4-.4s.2-.4.4-.4h9.3c.2 0 .4.2.4.4s-.2.4-.4.4z"></path></svg>