<svg width="17" height="17" viewBox="0 0 17 17" fill="none" xmlns="http://www.w3.org/2000/svg">
<path d="M14.875 7.08331C14.875 11.3333 8.5 16.2916 8.5 16.2916C8.5 16.2916 2.125 11.3333 2.125 7.08331C2.125 6.24614 2.28989 5.41716 2.61027 4.64371C2.93064 3.87026 3.40022 3.16748 3.99219 2.57551C4.58417 1.98353 5.28694 1.51395 6.06039 1.19358C6.83384 0.873207 7.66282 0.708313 8.5 0.708313C9.33718 0.708313 10.1662 0.873207 10.9396 1.19358C11.7131 1.51395 12.4158 1.98353 13.0078 2.57551C13.5998 3.16748 14.0694 3.87026 14.3897 4.64371C14.7101 5.41716 14.875 6.24614 14.875 7.08331Z" stroke="black" stroke-width="0.9375" stroke-linecap="round" stroke-linejoin="round"/>
<path d="M8.5 9.20831C9.6736 9.20831 10.625 8.25692 10.625 7.08331C10.625 5.90971 9.6736 4.95831 8.5 4.95831C7.32639 4.95831 6.375 5.90971 6.375 7.08331C6.375 8.25692 7.32639 9.20831 8.5 9.20831Z" stroke="black" stroke-width="0.9375" stroke-linecap="round" stroke-linejoin="round"/>
</svg>
