<svg width="384" height="171" viewBox="0 0 384 171" fill="none" xmlns="http://www.w3.org/2000/svg">
<path d="M26.5964 48.0038C24.3006 46.1528 22.0114 44.319 19.7289 42.5024C18.0327 41.1486 15.7535 39.4446 12.8913 37.3904C10.5955 35.7426 8.31625 34.037 6.05359 32.2736C7.45491 29.4189 9.03181 26.8816 10.7843 24.6617C13.2441 21.5428 16.3399 18.0957 19.4258 15.4646C30.3415 6.16902 43.1158 1.04129 57.7485 0.0814056C61.6278 -0.171854 66.2542 0.16582 71.6276 1.09444C82 2.88915 91.3339 6.97101 99.6292 13.34C100.043 13.6589 100.388 13.9982 100.663 14.3578C100.718 14.4303 100.744 14.5185 100.738 14.6075C100.732 14.6965 100.693 14.7806 100.628 14.8455L83.9711 31.3872C83.8318 31.5265 83.6437 31.6136 83.4411 31.6325C83.2385 31.6515 83.0351 31.601 82.868 31.4903C78.3857 28.5263 74.2016 26.4345 68.8547 25.2057C66.1018 24.5742 63.0275 24.3115 59.6318 24.4178C52.2674 24.6429 45.3519 26.966 38.8853 31.3872C32.8377 35.5144 28.8027 41.2784 26.5964 48.0038Z" fill="#EA3F39"/>
<path d="M6.05364 32.2736C8.3163 34.037 10.5955 35.7426 12.8913 37.3904C15.7536 39.4446 18.0328 41.1486 19.729 42.5024C22.0115 44.319 24.3007 46.1528 26.5964 48.0038C24.8108 54.8293 25.0096 61.6048 27.1927 68.3303L6.95307 83.8729C2.93462 76.5284 0.638836 68.7446 0.0657179 60.5214C-0.010477 59.4052 -0.0204152 57.412 0.0359028 54.5417C0.0822823 52.2874 0.254549 50.3035 0.552703 48.5901C1.45048 43.4279 2.93462 38.6473 5.00513 34.2481C5.3331 33.5602 5.68261 32.902 6.05364 32.2736Z" fill="#FFC227"/>
<path d="M99.8727 102.122C98.7265 100.668 97.8618 99.7188 97.2788 99.2748C93.6314 96.5046 90.032 93.6765 86.4806 90.7906C86.4078 90.7343 85.4951 89.8995 83.7426 88.2862C82.8448 87.4607 81.846 86.7197 80.7461 86.0631C86.6247 82.3768 90.8188 75.9515 93.1841 69.8216C93.1976 69.7856 93.2018 69.747 93.1962 69.7091C93.1907 69.6713 93.1756 69.6352 93.1522 69.604C93.1289 69.5727 93.0979 69.5472 93.062 69.5296C93.026 69.512 92.9861 69.5028 92.9456 69.5027H62.2457C62.1679 69.5027 62.0934 69.4736 62.0384 69.4217C61.9834 69.3698 61.9525 69.2994 61.9525 69.226V47.0751C61.9525 46.896 62.0274 46.7242 62.1606 46.5976C62.2939 46.4709 62.4746 46.3998 62.6631 46.3998H117.658C117.772 46.3999 117.883 46.4393 117.969 46.5108C118.056 46.5822 118.113 46.681 118.13 46.789C118.305 47.9209 118.55 50.2675 118.865 53.8287C120.505 72.2557 113.707 89.2617 99.8727 102.122Z" fill="#4D7CE2"/>
<path d="M80.7461 86.0631C81.846 86.7197 82.8448 87.4607 83.7426 88.2862C85.4951 89.8995 86.4078 90.7343 86.4806 90.7906C90.032 93.6765 93.6314 96.5046 97.2788 99.2748C97.8618 99.7188 98.7265 100.668 99.8727 102.122C91.3323 109.088 81.3656 113.35 69.9728 114.907C67.5181 115.241 66.125 115.427 65.7937 115.465C60.7698 116.042 55.8105 115.596 50.1854 114.616C40.1972 112.877 31.4878 109.266 24.0572 103.782C16.9048 98.5072 11.2034 91.8709 6.95306 83.8729L27.1927 68.3302C32.475 82.8317 46.8858 92.1413 62.9364 91.5035C69.2871 91.2502 75.2237 89.4368 80.7461 86.0631Z" fill="#43A866"/>
<path d="M181.39 55.1373C181.403 55.0552 181.398 54.9712 181.376 54.8911C181.354 54.811 181.314 54.7367 181.261 54.6732C181.207 54.6097 181.14 54.5586 181.065 54.5234C180.99 54.4881 180.908 54.4696 180.825 54.469H167.989C167.884 54.469 167.783 54.4272 167.709 54.3529C167.635 54.2785 167.593 54.1777 167.593 54.0725V48.9975C167.593 48.8893 167.636 48.7856 167.713 48.7091C167.789 48.6327 167.892 48.5897 168 48.5897H186.599C186.8 48.5884 186.994 48.6618 187.145 48.7957C187.295 48.9296 187.39 49.1144 187.413 49.3147C189.887 73.7721 159.379 79.6174 148.622 60.5862C144.983 54.1405 145.085 45.7577 149.221 39.3346C156.497 28.0405 171.865 25.2311 182.068 34.7807C182.097 34.808 182.121 34.8408 182.137 34.877C182.154 34.9132 182.163 34.9521 182.164 34.9914C182.165 35.0306 182.158 35.0693 182.143 35.1052C182.129 35.141 182.107 35.1732 182.079 35.1998L178.396 38.8815C178.332 38.9484 178.244 38.988 178.152 38.9922C178.059 38.9964 177.969 38.9649 177.899 38.9041C174.607 36.0268 170.889 34.7241 166.746 34.9959C152.983 35.8795 147.481 53.0643 157.593 62.0815C165.187 68.8557 179.571 66.6241 181.39 55.1373Z" fill="#1F87FC"/>
<path d="M284.735 30.6119H279.469C279.263 30.6119 279.096 30.7793 279.096 30.9858V70.5889C279.096 70.7954 279.263 70.9627 279.469 70.9627H284.735C284.941 70.9627 285.108 70.7954 285.108 70.5889V30.9858C285.108 30.7793 284.941 30.6119 284.735 30.6119Z" fill="#00AB47"/>
<path d="M217.492 58.0373C217.492 61.7146 216.035 65.2414 213.441 67.8417C210.847 70.442 207.329 71.9029 203.661 71.9029C199.993 71.9029 196.475 70.442 193.882 67.8417C191.288 65.2414 189.831 61.7146 189.831 58.0373C189.831 54.3599 191.288 50.8331 193.882 48.2328C196.475 45.6325 199.993 44.1716 203.661 44.1716C207.329 44.1716 210.847 45.6325 213.441 48.2328C216.035 50.8331 217.492 54.3599 217.492 58.0373ZM203.661 49.7564C201.62 49.7564 199.663 50.6288 198.22 52.1818C196.777 53.7348 195.966 55.841 195.966 58.0373C195.966 60.2335 196.777 62.3397 198.22 63.8927C199.663 65.4457 201.62 66.3181 203.661 66.3181C205.702 66.3181 207.659 65.4457 209.102 63.8927C210.545 62.3397 211.356 60.2335 211.356 58.0373C211.356 55.841 210.545 53.7348 209.102 52.1818C207.659 50.6288 205.702 49.7564 203.661 49.7564Z" fill="#FE2B25"/>
<path d="M247.198 58.0373C247.198 61.7146 245.741 65.2414 243.147 67.8417C240.553 70.442 237.036 71.9029 233.368 71.9029C229.699 71.9029 226.182 70.442 223.588 67.8417C220.994 65.2414 219.537 61.7146 219.537 58.0373C219.537 54.3599 220.994 50.8331 223.588 48.2328C226.182 45.6325 229.699 44.1716 233.368 44.1716C237.036 44.1716 240.553 45.6325 243.147 48.2328C245.741 50.8331 247.198 54.3599 247.198 58.0373ZM233.353 49.7451C232.343 49.7468 231.342 49.9631 230.409 50.3814C229.477 50.7998 228.629 51.4121 227.916 52.1833C227.203 52.9546 226.638 53.8697 226.253 54.8764C225.868 55.8832 225.671 56.9618 225.673 58.0507C225.674 59.1397 225.875 60.2176 226.264 61.223C226.652 62.2284 227.221 63.1415 227.937 63.9103C228.652 64.679 229.502 65.2883 230.436 65.7034C231.37 66.1185 232.371 66.3312 233.382 66.3294C234.392 66.3277 235.393 66.1114 236.326 65.6931C237.258 65.2747 238.106 64.6624 238.819 63.8912C239.532 63.1199 240.097 62.2048 240.482 61.1981C240.867 60.1914 241.064 59.1127 241.062 58.0238C241.061 56.9348 240.86 55.8569 240.471 54.8515C240.083 53.8461 239.514 52.933 238.798 52.1643C238.083 51.3955 237.233 50.7862 236.299 50.3711C235.365 49.956 234.364 49.7433 233.353 49.7451Z" fill="#FDBF01"/>
<path d="M269.209 69.3314C265.337 72.2239 261.303 72.6317 257.108 70.5549C240.271 62.2174 253.593 36.1514 269.322 46.7205C269.374 46.7534 269.433 46.7723 269.494 46.7753C269.555 46.7782 269.615 46.765 269.668 46.7372C269.722 46.7093 269.766 46.6678 269.796 46.617C269.827 46.5662 269.843 46.508 269.842 46.4486V45.4971C269.842 45.3799 269.888 45.2675 269.971 45.1847C270.054 45.1018 270.166 45.0553 270.283 45.0553L275.209 45.0779C275.266 45.0777 275.322 45.0893 275.373 45.1119C275.425 45.1345 275.471 45.1676 275.51 45.2091C275.548 45.2507 275.577 45.2997 275.595 45.3532C275.614 45.4067 275.621 45.4634 275.616 45.5197C275.609 45.7085 275.639 52.1278 275.706 64.7775C275.737 71.2421 275.209 75.5241 274.125 77.6236C269.232 87.1279 255.006 86.0064 250.497 76.3662C250.476 76.3197 250.464 76.2692 250.462 76.2176C250.46 76.166 250.469 76.1144 250.488 76.0658C250.507 76.0173 250.536 75.9727 250.572 75.9348C250.609 75.8969 250.653 75.8664 250.701 75.8451L255.322 73.9306C255.419 73.8903 255.527 73.8879 255.624 73.9237C255.72 73.9596 255.799 74.031 255.842 74.1232C257.413 77.4084 260.757 79.3228 264.328 78.4732C268.275 77.5368 270.106 74.5839 269.819 69.6146C269.815 69.546 269.791 69.4799 269.752 69.4233C269.713 69.3667 269.66 69.3216 269.598 69.2927C269.535 69.2638 269.467 69.2521 269.398 69.2589C269.33 69.2657 269.265 69.2908 269.209 69.3314ZM262.83 49.7564C261.852 49.7599 260.885 49.9777 259.983 50.3976C259.081 50.8175 258.262 51.4312 257.573 52.2036C256.884 52.976 256.339 53.8921 255.968 54.8994C255.598 55.9068 255.409 56.9857 255.413 58.0747C255.416 59.1636 255.613 60.2412 255.991 61.246C256.368 62.2507 256.92 63.163 257.614 63.9305C258.308 64.6981 259.131 65.3061 260.036 65.7196C260.941 66.1332 261.91 66.3442 262.888 66.3408C263.866 66.3374 264.833 66.1195 265.735 65.6996C266.637 65.2797 267.456 64.6661 268.145 63.8936C268.834 63.1212 269.379 62.2052 269.75 61.1978C270.12 60.1905 270.309 59.1115 270.305 58.0226C270.302 56.9336 270.105 55.856 269.727 54.8512C269.35 53.8465 268.798 52.9343 268.104 52.1667C267.41 51.3991 266.587 50.7912 265.682 50.3776C264.777 49.9641 263.808 49.753 262.83 49.7564Z" fill="#1F87FC"/>
<path d="M312.238 66.3635C308.17 71.2875 303.077 72.881 296.961 71.144C287.876 68.5612 285.062 57.4596 289.966 49.8245C293.187 44.8401 300.294 42.7217 305.627 45.3952C309.002 47.0868 311.352 49.9528 312.678 53.9932C312.736 54.1756 312.723 54.3725 312.644 54.5448C312.564 54.717 312.423 54.8518 312.249 54.9221L295.051 62.0475C294.983 62.0752 294.922 62.1185 294.873 62.1739C294.824 62.2294 294.789 62.2956 294.769 62.3676C294.75 62.4396 294.747 62.5155 294.76 62.5896C294.774 62.6636 294.804 62.7339 294.848 62.7952C297.492 66.4579 300.897 67.2962 305.062 65.31C305.951 64.8871 306.674 64.2338 307.232 63.3502C307.367 63.1406 307.577 62.9909 307.819 62.9319C308.06 62.8729 308.315 62.9091 308.531 63.0331L312 65.0381C312.111 65.1025 312.206 65.1902 312.279 65.2952C312.352 65.4001 312.402 65.5197 312.425 65.6458C312.447 65.7719 312.442 65.9014 312.41 66.0253C312.378 66.1492 312.319 66.2646 312.238 66.3635ZM294.249 57.3463L305.503 52.5092C305.524 52.5006 305.543 52.4878 305.559 52.4716C305.575 52.4555 305.588 52.4363 305.596 52.4151C305.605 52.394 305.609 52.3714 305.608 52.3486C305.608 52.3259 305.603 52.3034 305.593 52.2827L305.56 52.192C305.082 51.0769 304.03 50.2631 302.634 49.9296C301.237 49.5961 299.611 49.7701 298.113 50.4135L297.842 50.5268C297.099 50.8456 296.411 51.2702 295.815 51.7765C295.219 52.2827 294.729 52.8606 294.371 53.4771C294.013 54.0937 293.795 54.7367 293.729 55.3695C293.664 56.0023 293.752 56.6125 293.989 57.1651L294.023 57.2557C294.031 57.2768 294.044 57.2959 294.06 57.3119C294.076 57.3279 294.096 57.3405 294.117 57.349C294.138 57.3574 294.16 57.3616 294.183 57.3611C294.206 57.3606 294.228 57.3556 294.249 57.3463Z" fill="#FE2B25"/>
<path d="M143.598 122.854C144.197 121.011 146.803 121.011 147.402 122.854L151.001 133.929C151.268 134.753 152.036 135.311 152.903 135.311H164.548C166.485 135.311 167.291 137.79 165.723 138.929L156.302 145.774C155.601 146.283 155.308 147.186 155.576 148.01L159.174 159.085C159.773 160.927 157.664 162.46 156.097 161.321L146.676 154.476C145.975 153.967 145.025 153.967 144.324 154.476L134.903 161.321C133.336 162.46 131.227 160.927 131.826 159.085L135.424 148.01C135.692 147.186 135.399 146.283 134.698 145.774L125.277 138.929C123.709 137.79 124.515 135.311 126.452 135.311H138.097C138.964 135.311 139.732 134.753 139.999 133.929L143.598 122.854Z" fill="#FFC227"/>
<path d="M355.598 122.854C356.197 121.011 358.803 121.011 359.402 122.854L363.001 133.929C363.268 134.753 364.036 135.311 364.903 135.311H376.548C378.485 135.311 379.291 137.79 377.723 138.929L368.302 145.774C367.601 146.283 367.308 147.186 367.576 148.01L371.174 159.085C371.773 160.927 369.664 162.46 368.097 161.321L358.676 154.476C357.975 153.967 357.025 153.967 356.324 154.476L346.903 161.321C345.336 162.46 343.227 160.927 343.826 159.085L347.424 148.01C347.692 147.186 347.399 146.283 346.698 145.774L337.277 138.929C335.709 137.79 336.515 135.311 338.452 135.311H350.097C350.964 135.311 351.732 134.753 351.999 133.929L355.598 122.854Z" fill="#FFC227"/>
<path d="M302.598 122.854C303.197 121.011 305.803 121.011 306.402 122.854L310.001 133.929C310.268 134.753 311.036 135.311 311.903 135.311H323.548C325.485 135.311 326.291 137.79 324.723 138.929L315.302 145.774C314.601 146.283 314.308 147.186 314.576 148.01L318.174 159.085C318.773 160.927 316.664 162.46 315.097 161.321L305.676 154.476C304.975 153.967 304.025 153.967 303.324 154.476L293.903 161.321C292.336 162.46 290.227 160.927 290.826 159.085L294.424 148.01C294.692 147.186 294.399 146.283 293.698 145.774L284.277 138.929C282.709 137.79 283.515 135.311 285.452 135.311H297.097C297.964 135.311 298.732 134.753 298.999 133.929L302.598 122.854Z" fill="#FFC227"/>
<path d="M249.598 122.854C250.197 121.011 252.803 121.011 253.402 122.854L257.001 133.929C257.268 134.753 258.036 135.311 258.903 135.311H270.548C272.485 135.311 273.291 137.79 271.723 138.929L262.302 145.774C261.601 146.283 261.308 147.186 261.576 148.01L265.174 159.085C265.773 160.927 263.664 162.46 262.097 161.321L252.676 154.476C251.975 153.967 251.025 153.967 250.324 154.476L240.903 161.321C239.336 162.46 237.227 160.927 237.826 159.085L241.424 148.01C241.692 147.186 241.399 146.283 240.698 145.774L231.277 138.929C229.709 137.79 230.515 135.311 232.452 135.311H244.097C244.964 135.311 245.732 134.753 245.999 133.929L249.598 122.854Z" fill="#FFC227"/>
<path d="M196.598 122.854C197.197 121.011 199.803 121.011 200.402 122.854L204.001 133.929C204.268 134.753 205.036 135.311 205.903 135.311H217.548C219.485 135.311 220.291 137.79 218.723 138.929L209.302 145.774C208.601 146.283 208.308 147.186 208.576 148.01L212.174 159.085C212.773 160.927 210.664 162.46 209.097 161.321L199.676 154.476C198.975 153.967 198.025 153.967 197.324 154.476L187.903 161.321C186.336 162.46 184.227 160.927 184.826 159.085L188.424 148.01C188.692 147.186 188.399 146.283 187.698 145.774L178.277 138.929C176.709 137.79 177.515 135.311 179.452 135.311H191.097C191.964 135.311 192.732 134.753 192.999 133.929L196.598 122.854Z" fill="#FFC227"/>
<path d="M28.1573 154.247V148.798L41.8203 127.273H46.5185V134.815H43.7379L35.1246 148.446V148.702H54.5405V154.247H28.1573ZM43.8658 160V152.585L43.9936 150.172V127.273H50.4815V160H43.8658ZM62.5785 160.415C61.5238 160.415 60.6183 160.043 59.8619 159.297C59.1161 158.54 58.7433 157.635 58.7433 156.58C58.7433 155.536 59.1161 154.641 59.8619 153.896C60.6183 153.15 61.5238 152.777 62.5785 152.777C63.6012 152.777 64.4961 153.15 65.2631 153.896C66.0302 154.641 66.4137 155.536 66.4137 156.58C66.4137 157.283 66.2326 157.928 65.8704 158.514C65.5188 159.089 65.0554 159.553 64.4801 159.904C63.9048 160.245 63.271 160.415 62.5785 160.415ZM82.8293 160.447C80.3683 160.447 78.1791 160.048 76.2615 159.249C74.3545 158.439 72.8577 157.337 71.771 155.941C70.6844 154.545 70.1411 152.963 70.1411 151.195C70.1411 149.831 70.45 148.58 71.0679 147.44C71.6965 146.289 72.5487 145.336 73.6247 144.579C74.7007 143.812 75.9046 143.322 77.2362 143.109V142.885C75.4891 142.534 74.0722 141.687 72.9855 140.344C71.8989 138.991 71.3556 137.42 71.3556 135.63C71.3556 133.936 71.8509 132.429 72.8417 131.108C73.8325 129.776 75.1908 128.732 76.9166 127.976C78.6531 127.209 80.624 126.825 82.8293 126.825C85.0345 126.825 87.0001 127.209 88.7259 127.976C90.4624 128.743 91.8261 129.792 92.8169 131.124C93.8076 132.445 94.3083 133.947 94.319 135.63C94.3083 137.431 93.7544 139.002 92.657 140.344C91.5597 141.687 90.1535 142.534 88.4383 142.885V143.109C89.7487 143.322 90.9365 143.812 92.0019 144.579C93.0779 145.336 93.9301 146.289 94.5587 147.44C95.1979 148.58 95.5228 149.831 95.5335 151.195C95.5228 152.963 94.9742 154.545 93.8875 155.941C92.8009 157.337 91.2987 158.439 89.3811 159.249C87.4742 160.048 85.2902 160.447 82.8293 160.447ZM82.8293 155.366C83.9266 155.366 84.8854 155.169 85.7057 154.775C86.526 154.37 87.1652 153.816 87.6233 153.113C88.0921 152.399 88.3264 151.578 88.3264 150.652C88.3264 149.703 88.0867 148.867 87.6073 148.143C87.1279 147.408 86.4781 146.832 85.6578 146.417C84.8374 145.991 83.8946 145.778 82.8293 145.778C81.7746 145.778 80.8318 145.991 80.0008 146.417C79.1698 146.832 78.5146 147.408 78.0352 148.143C77.5665 148.867 77.3321 149.703 77.3321 150.652C77.3321 151.578 77.5612 152.399 78.0193 153.113C78.4774 153.816 79.1219 154.37 79.9529 154.775C80.7838 155.169 81.7426 155.366 82.8293 155.366ZM82.8293 140.744C83.7455 140.744 84.5605 140.558 85.2742 140.185C85.988 139.812 86.5473 139.295 86.9521 138.635C87.357 137.974 87.5594 137.212 87.5594 136.349C87.5594 135.497 87.357 134.751 86.9521 134.112C86.5473 133.462 85.9933 132.956 85.2902 132.594C84.5871 132.221 83.7668 132.035 82.8293 132.035C81.9024 132.035 81.0821 132.221 80.3683 132.594C79.6546 132.956 79.0953 133.462 78.6904 134.112C78.2963 134.751 78.0992 135.497 78.0992 136.349C78.0992 137.212 78.3016 137.974 78.7064 138.635C79.1112 139.295 79.6705 139.812 80.3843 140.185C81.0981 140.558 81.9131 140.744 82.8293 140.744Z" fill="black"/>
</svg>
