<svg width="40" height="40" viewBox="0 0 40 40" fill="none" xmlns="http://www.w3.org/2000/svg">
<path d="M17.86 0.109375C17.446 0.265625 17.0241 0.617188 16.8132 1C16.7038 1.19531 16.5475 1.77344 16.4069 2.5C16.071 4.25781 15.9225 4.45312 14.4694 5.03906C14.0085 5.22656 13.3522 5.5 13.0085 5.65625C12.321 5.96094 11.8288 6.01562 11.3757 5.82812C11.235 5.76562 10.696 5.44531 10.1882 5.10156C9.03971 4.34375 8.93815 4.29688 8.33659 4.29688C7.57878 4.29688 7.2819 4.48438 5.82878 5.875C4.41471 7.23438 4.21159 7.53125 4.20378 8.22656C4.19596 8.86719 4.33659 9.1875 5.04753 10.1172C6.11784 11.5312 6.1569 11.7969 5.53971 13.1797C5.32878 13.6719 5.03971 14.3516 4.91471 14.6875C4.64128 15.3984 4.23503 15.8594 3.72721 16.0469C3.54753 16.1094 2.97721 16.2422 2.46159 16.3359C1.35221 16.5391 1.11784 16.6328 0.695964 17.0078C0.0709636 17.5781 0.0397135 17.6797 0.016276 19.8203C-0.014974 21.9062 0.0240885 22.1562 0.414714 22.6719C0.789714 23.1562 1.17253 23.3359 2.36003 23.5625C4.16471 23.9062 4.47721 24.1406 5.0319 25.5078C5.2194 25.9844 5.50065 26.6484 5.6569 26.9922C5.96159 27.6797 6.01628 28.1719 5.82878 28.625C5.76628 28.7656 5.44596 29.3047 5.10221 29.8125C4.3444 30.9609 4.29753 31.0625 4.29753 31.6641C4.29753 32.4609 4.48503 32.75 5.99284 34.2344C6.78971 35.0312 7.42253 35.5859 7.5944 35.6641C7.93815 35.8047 8.69596 35.8203 9.07096 35.6875C9.2194 35.6406 9.77409 35.3125 10.3132 34.9609C10.8522 34.6094 11.4069 34.2812 11.5553 34.2344C12.0163 34.0781 12.4225 34.125 13.0866 34.4219C13.4303 34.5703 14.0866 34.8516 14.5475 35.0391C16.0007 35.6328 16.1413 35.8203 16.4928 37.5781C16.7897 39.1172 16.946 39.4062 17.6569 39.8359C17.9147 39.9922 18.0319 40 20.0632 40C22.3757 40 22.4303 39.9922 22.9147 39.5391C23.2819 39.2031 23.4382 38.7891 23.6803 37.5703C23.7975 36.9297 23.9538 36.3125 24.0163 36.1953C24.2897 35.7031 24.7038 35.3828 25.36 35.1562C25.6022 35.0703 26.235 34.8047 26.7585 34.5703C27.7585 34.125 28.1725 34.0469 28.6491 34.2188C28.7663 34.2656 29.36 34.625 29.9538 35.0234L31.0397 35.7422L31.61 35.7656C32.5241 35.8125 32.61 35.7656 34.1647 34.2344C35.7272 32.6875 35.8913 32.4375 35.8835 31.6875C35.8757 31.0469 35.735 30.7656 34.9928 29.8672C33.8991 28.5469 33.8366 28.2188 34.4616 26.8203C34.6725 26.3281 34.9538 25.6562 35.0866 25.3281C35.3444 24.6328 35.6569 24.2188 36.0475 24.0312C36.196 23.9609 36.8444 23.8047 37.4772 23.6797C38.11 23.5547 38.7272 23.4141 38.8366 23.375C39.1491 23.25 39.6022 22.8281 39.7897 22.4688C39.9538 22.1719 39.9616 22.0312 39.985 20.25C40.0163 18.125 39.9616 17.7656 39.5241 17.2422C39.1647 16.8125 38.7897 16.6562 37.485 16.4062C35.7428 16.0703 35.5475 15.9219 34.9616 14.4688C34.7741 14.0078 34.5007 13.3516 34.3444 13.0078C34.0397 12.3203 33.985 11.8281 34.1725 11.375C34.235 11.2344 34.5632 10.6953 34.8991 10.1875C35.61 9.13281 35.7038 8.89844 35.7038 8.28906C35.7038 7.54688 35.4928 7.22656 34.0085 5.76562C32.6022 4.36719 32.36 4.21094 31.6882 4.20312C31.0319 4.19531 30.6882 4.35156 29.8678 5.02344C28.5319 6.10938 28.2116 6.16406 26.8053 5.53906C26.3132 5.3125 25.6725 5.04688 25.3913 4.94531C24.2507 4.51562 23.9928 4.17188 23.7116 2.64844C23.485 1.45312 23.3522 1.10156 22.9772 0.679688C22.4225 0.0625 22.321 0.0390625 20.1178 0.0234375C18.5944 0.0078125 18.0944 0.0234375 17.86 0.109375ZM21.9772 9.10156C24.3835 9.53125 26.7428 10.8828 28.3366 12.7344C30.7272 15.5156 31.6257 19.2188 30.7507 22.6875C30.5866 23.3047 30.2038 24.4141 30.1022 24.5234C30.0475 24.5938 28.6647 23.1641 28.321 22.6953C27.6178 21.7031 27.321 20.8828 27.1491 19.4375C26.9382 17.6016 26.3835 16.3906 25.2194 15.2422C24.2663 14.2891 23.235 13.6875 21.946 13.3516C21.071 13.1172 19.4538 13.0938 18.6335 13.3125C18.3366 13.3906 18.071 13.4688 18.0475 13.4922C18.0319 13.5078 18.9069 14.4141 20.0007 15.5078L21.9928 17.5L19.86 19.625L17.735 21.7578L15.7507 19.7734L13.7585 17.7812L13.6725 18C13.6257 18.125 13.5319 18.5391 13.4694 18.9375C13.1803 20.5781 13.6022 22.5078 14.5397 23.875C14.9538 24.4766 15.7507 25.2734 16.3678 25.6953C17.446 26.4453 18.2507 26.7266 19.8757 26.9219C21.2897 27.1016 22.2116 27.4453 23.0475 28.1172C23.5241 28.5 24.8444 29.8125 24.8444 29.9062C24.8444 29.9453 24.485 30.1172 24.0475 30.2969C21.1413 31.4375 17.9928 31.3203 15.196 29.9609C12.0007 28.4062 9.7819 25.4922 9.0944 21.9531C8.88346 20.8672 8.89909 18.9141 9.12565 17.8359C10.1413 13.0703 13.9147 9.59375 18.7194 8.98438C19.4616 8.89062 21.1491 8.95312 21.9772 9.10156Z" fill="white"/>
</svg>
