<svg width="48" height="48" viewBox="0 0 48 48" fill="none" xmlns="http://www.w3.org/2000/svg">
<path d="M19.2178 5.76562V7.6875H20.6475H22.0772V8.69062V9.69375L21.6694 9.75C15.0928 10.6547 9.6272 15.2109 7.57408 21.5016C5.76002 27.0656 6.87095 33.15 10.5319 37.7109C11.0663 38.3812 12.1678 39.5062 12.8194 40.0547C16.1475 42.8484 20.2116 44.2687 24.4913 44.1422C28.3303 44.025 31.7803 42.7641 34.8038 40.3687C35.4928 39.8203 36.9131 38.4047 37.471 37.7109C39.2522 35.4844 40.4756 32.8078 40.9913 30.0187C41.3569 28.0266 41.3569 25.7391 40.9913 23.7469C39.6881 16.7016 34.1147 11.1375 27.0928 9.87188C26.746 9.81094 26.3381 9.74531 26.1928 9.72656L25.921 9.69844V8.69062V7.6875H27.3506H28.7803V5.76562V3.84375H23.9991H19.2178V5.76562ZM26.1319 11.6719C28.7475 12.0656 31.0678 13.0219 33.1303 14.5547C37.485 17.7891 39.8147 23.0437 39.2756 28.4297C38.8069 33.1312 36.1256 37.3969 32.0475 39.9469C31.396 40.3547 30.1163 40.9828 29.3663 41.2641C26.1413 42.4734 22.4944 42.5484 19.2413 41.475C14.2678 39.8297 10.4428 35.7656 9.1397 30.7359C8.78814 29.3812 8.65689 28.3359 8.65689 26.9062C8.6522 25.5234 8.78345 24.4406 9.09283 23.1891C10.1756 18.8578 13.1428 15.1594 17.1413 13.1531C18.8522 12.3 20.6475 11.7797 22.5928 11.5781C23.3194 11.5031 25.3913 11.5594 26.1319 11.6719Z" fill="white"/>
<path d="M22.9868 14.4375C19.1384 14.7563 15.6603 16.8234 13.5321 20.0625C12.7259 21.2906 12.0415 22.9781 11.7649 24.4125C11.3431 26.5922 11.479 28.7719 12.1681 30.8437C13.2274 34.0172 15.4353 36.5531 18.4681 38.0672C21.8946 39.7781 26.0524 39.7828 29.5071 38.0812C30.9134 37.3875 32.2399 36.3984 33.2196 35.3016C35.1978 33.0937 36.3228 30.3891 36.454 27.525L36.4821 26.8594H30.2431H23.9993V20.625V14.3906L23.7087 14.3953C23.5446 14.4 23.2212 14.4188 22.9868 14.4375Z" fill="white"/>
<path d="M34.9685 8.98125C34.2091 9.74531 33.6091 10.3781 33.6419 10.3922C33.7685 10.4391 35.006 11.2734 35.4466 11.6109C37.2278 12.9563 38.92 14.8031 40.0544 16.6313C40.1997 16.8656 40.3357 17.0719 40.3544 17.0813C40.3732 17.0953 41.006 16.4859 41.7607 15.7313L43.1341 14.3578L43.0638 14.2219C43.0263 14.1469 42.8013 13.8141 42.5622 13.4813C41.2591 11.6484 39.7403 10.0687 37.9216 8.6625C37.5044 8.34375 36.4263 7.59375 36.3794 7.59375C36.3653 7.59375 35.7278 8.21719 34.9685 8.98125Z" fill="white"/>
</svg>
