<svg width="48" height="48" viewBox="0 0 48 48" fill="none" xmlns="http://www.w3.org/2000/svg">
<path d="M19.6167 3.075C18.7167 3.26719 17.9151 3.91406 17.526 4.75781C17.3995 5.03906 17.2495 5.64375 17.2495 5.88281V6H16.7714C15.9135 6 15.4167 6.1875 14.9198 6.68438C14.5682 7.03125 14.3714 7.41563 14.287 7.90781C14.0995 9.00938 14.8354 10.1297 15.9323 10.4156C16.2135 10.4859 16.6167 10.4953 20.2073 10.4953C22.7198 10.5 24.2667 10.4813 24.426 10.4531C25.5839 10.2328 26.4042 9.06094 26.212 7.90781C26.1276 7.41094 25.9307 7.03125 25.5745 6.675C25.0776 6.17813 24.5901 6 23.7229 6H23.2682L23.2167 5.62969C23.1089 4.89375 22.8557 4.3875 22.3307 3.86719C21.6276 3.16406 20.6057 2.86875 19.6167 3.075ZM20.5964 4.92656C20.6948 4.95469 20.8776 5.07188 21.0042 5.18906C21.876 6.00469 21.0651 7.39688 19.8979 7.07344C19.6448 7.00313 19.2464 6.60469 19.176 6.35156C19.0542 5.91094 19.1432 5.55938 19.4432 5.24063C19.7667 4.90781 20.1464 4.8 20.5964 4.92656Z" fill="white"/>
<path d="M9.18203 9.08437C8.38984 9.29531 7.76172 9.94219 7.56953 10.7437C7.46641 11.1891 7.46641 39.0609 7.56953 39.5063C7.71016 40.1063 8.08984 40.6125 8.62891 40.9313C9.20547 41.2734 8.56797 41.2547 18.5008 41.2406L27.4211 41.2266L27.1586 40.8984C26.3664 39.9141 25.4008 38.1984 24.9414 36.9797C24.5664 35.9766 24.2992 34.9031 24.107 33.6328C24.032 33.1313 24.0227 32.6953 24.0227 29.5078C24.0227 26.0906 24.0273 25.9359 24.1164 25.6641C24.3133 25.0641 24.8477 24.5016 25.4383 24.2812C25.607 24.2156 25.9539 24.1547 26.3664 24.1125C28.6539 23.8781 30.6133 23.2687 32.432 22.2375L32.9992 21.9141V16.4766C32.9992 10.5609 33.0039 10.7391 32.7367 10.2094C32.4602 9.66094 31.7898 9.16406 31.1758 9.04688C31.0352 9.01875 30.2055 9 29.2961 9H27.6648L27.632 9.17344C27.5383 9.68906 27.1117 10.4297 26.6336 10.9031C26.1508 11.3859 25.593 11.7047 24.9133 11.8875C24.6039 11.9719 24.3414 11.9766 20.2492 11.9766C16.1477 11.9766 15.8945 11.9719 15.5852 11.8875C14.6477 11.6344 13.8789 11.0813 13.3586 10.2891C13.1242 9.92813 12.918 9.46406 12.8664 9.17344L12.8336 9L11.1602 9.00469C9.73984 9.00469 9.44453 9.01875 9.18203 9.08437ZM16.2414 14.6016C16.3258 14.6438 16.4148 14.7281 16.4477 14.7938C16.4852 14.8781 16.4992 15.6516 16.4992 17.4422V19.9781L16.3633 20.1141L16.2273 20.25H13.668H11.1086L10.9586 20.1141L10.8039 19.9781V17.4C10.8039 14.8875 10.8086 14.8219 10.8977 14.7188C10.9492 14.6625 11.0336 14.5969 11.0852 14.5734C11.1367 14.5547 12.2852 14.5359 13.6305 14.5359C15.7539 14.5312 16.1055 14.5406 16.2414 14.6016ZM29.2492 17.5312V18.2812H23.6242H17.9992V17.5312V16.7812H23.6242H29.2492V17.5312ZM16.3633 22.6359L16.4992 22.7719V25.3078C16.4992 27.0984 16.4852 27.8719 16.4477 27.9563C16.3258 28.2188 16.3023 28.2188 13.6305 28.2188C11.2633 28.2188 11.1742 28.2141 11.0242 28.125C10.9398 28.0734 10.8508 27.975 10.8227 27.9094C10.7945 27.8297 10.7852 26.8687 10.7898 25.2797L10.8039 22.7719L10.9586 22.6359L11.1086 22.5H13.668H16.2273L16.3633 22.6359ZM22.4992 25.5V26.25H20.2492H17.9992V25.5V24.75H20.2492H22.4992V25.5ZM16.3773 30.6141L16.4992 30.7594V33.3141V35.8688L16.3633 36.0047L16.2273 36.1406H13.6633C10.8414 36.1406 10.9352 36.15 10.832 35.85C10.7992 35.7516 10.7805 34.8938 10.7805 33.2953C10.7805 30.75 10.7898 30.6422 11.0008 30.5203C11.057 30.4875 11.9195 30.4734 13.6727 30.4688H16.2555L16.3773 30.6141ZM22.4992 33.4688V34.2188H20.2492H17.9992V33.4688V32.7188H20.2492H22.4992V33.4688Z" fill="white"/>
<path d="M11.7188 17.4141V19.3594H13.6641H15.6094V17.4141V15.4687H13.6641H11.7188V17.4141ZM15.0188 16.3406C15.1078 16.4344 15.1406 16.5141 15.1406 16.6547C15.1406 16.8375 15.1125 16.875 14.3813 17.6109C13.5984 18.3937 13.4344 18.5109 13.2141 18.4266C13.1531 18.4031 12.9047 18.1828 12.6703 17.9391C12.2766 17.5406 12.2344 17.4797 12.2344 17.325C12.2344 17.0812 12.4406 16.875 12.6797 16.875C12.8203 16.875 12.8953 16.9172 13.1063 17.1187L13.3641 17.3625L13.9359 16.7906C14.4797 16.2422 14.5172 16.2187 14.7 16.2187C14.8453 16.2187 14.925 16.2469 15.0188 16.3406Z" fill="white"/>
<path d="M11.7188 25.3359V27.2812H13.6641H15.6094V25.3359V23.3906H13.6641H11.7188V25.3359ZM14.9063 24.2109C15.0797 24.3 15.1406 24.4125 15.1406 24.6375C15.1406 24.7969 15.0891 24.8625 14.4281 25.5328C13.3688 26.6016 13.3688 26.6062 12.6938 25.9312C12.2625 25.5 12.2344 25.4578 12.2344 25.2797C12.2344 25.0172 12.4078 24.8438 12.675 24.8438C12.8484 24.8438 12.9 24.8719 13.1016 25.0781L13.3313 25.3125L13.875 24.7781C14.5641 24.0984 14.625 24.0656 14.9063 24.2109Z" fill="white"/>
<path d="M11.7188 33.3047V35.25H13.6641H15.6094V33.3047V31.3594H13.6641H11.7188V33.3047ZM15.0047 32.2453C15.1078 32.3484 15.1406 32.4281 15.1406 32.5594C15.1406 32.7234 15.0938 32.7844 14.3578 33.525C13.5328 34.3547 13.4063 34.4391 13.1672 34.3078C13.0031 34.2234 12.3797 33.6094 12.3 33.4594C12.1594 33.1922 12.2484 32.925 12.5109 32.8125C12.7125 32.7328 12.8625 32.7844 13.1297 33.0328L13.3641 33.2484L13.9406 32.6812C14.4703 32.1562 14.5312 32.1094 14.6906 32.1094C14.8219 32.1094 14.9016 32.1422 15.0047 32.2453Z" fill="white"/>
<path d="M34.2964 22.9031C34.2495 22.9172 33.987 23.0672 33.7104 23.2359C31.587 24.525 29.112 25.3453 26.5854 25.5984C25.9667 25.6594 25.8167 25.7203 25.6198 25.9828C25.5214 26.1141 25.5214 26.1562 25.5073 29.1703C25.4933 32.3531 25.5167 33.0422 25.6901 34.0453C26.0651 36.2672 27.0214 38.3391 28.5729 40.2891C29.1354 40.9922 30.5933 42.4406 31.3479 43.0406C32.0792 43.6219 32.9979 44.2594 33.7245 44.6766C34.1886 44.9484 34.2683 44.9766 34.4979 44.9766C34.7276 44.9766 34.8073 44.9484 35.2714 44.6766C37.5026 43.3781 39.5651 41.5266 40.9573 39.5812C42.4292 37.5094 43.2636 35.2687 43.4511 32.8594C43.4839 32.4234 43.4979 31.0969 43.4886 29.1469C43.4745 26.1562 43.4745 26.1141 43.3761 25.9828C43.1792 25.7203 43.0292 25.6594 42.4104 25.5984C39.8698 25.3406 37.4698 24.5484 35.3229 23.2547C34.7792 22.9266 34.5261 22.8375 34.2964 22.9031ZM39.1198 29.5031C39.4995 29.6812 39.7433 30.0703 39.7433 30.5156C39.7479 30.9656 39.7292 30.9891 36.6261 34.0828C33.4198 37.275 33.5511 37.1672 33.0167 37.1109C32.8667 37.0969 32.6792 37.0359 32.562 36.9656C32.3089 36.8156 29.4729 33.9656 29.3651 33.7547C29.0604 33.15 29.3979 32.3766 30.0495 32.1844C30.3542 32.0906 30.3917 32.0906 30.7058 32.1844C30.9401 32.2547 31.0339 32.3344 32.037 33.3328L33.1151 34.4062L35.5058 32.0109C37.3901 30.1266 37.9479 29.5922 38.1308 29.5031C38.4448 29.3531 38.7964 29.3531 39.1198 29.5031Z" fill="white"/>
</svg>
