<svg width="37" height="37" viewBox="0 0 37 37" fill="none" xmlns="http://www.w3.org/2000/svg">
<path d="M8.31107 3.24473C7.78353 3.41094 7.40775 3.65664 6.98861 4.11191C6.56947 4.55996 6.32377 5.06582 6.21537 5.70898C6.15756 6.04141 6.1431 9.0332 6.15756 15.7178L6.17924 25.2568L6.33822 25.676C6.64896 26.507 7.34271 27.2225 8.14486 27.5404L8.564 27.7139L21.355 27.7355C30.9663 27.75 34.2472 27.7355 34.5435 27.6705C35.6997 27.4248 36.6826 26.4492 36.9283 25.293C36.9861 24.9967 37.0005 22.3662 36.9861 15.1758L36.9644 5.45605L36.8054 5.07305C36.5742 4.49492 36.1044 3.93125 35.6058 3.60605C34.7747 3.07129 35.8804 3.10742 21.579 3.11465C9.47455 3.11465 8.68685 3.12188 8.31107 3.24473ZM16.5494 9.4668C17.4238 9.81367 18.0958 10.5363 18.3704 11.4396C18.804 12.885 18.1464 14.4098 16.7806 15.0818C16.2458 15.3492 16.2097 15.3564 15.4365 15.3564C14.6921 15.3564 14.6054 15.342 14.1646 15.1324C12.2062 14.2002 11.7437 11.6926 13.254 10.1822C13.6298 9.79922 14.2441 9.44512 14.7283 9.32227C15.1619 9.21387 16.1013 9.28613 16.5494 9.4668ZM33.8931 12.3213V13.875H29.2681H24.6431V12.3719C24.6431 11.5408 24.6648 10.8398 24.6937 10.8182C24.7154 10.7893 26.7966 10.7676 29.3187 10.7676H33.8931V12.3213ZM17.1419 16.9896C18.7318 17.1631 20.0181 17.6979 20.8564 18.5289C21.2755 18.948 21.3984 19.1215 21.4923 19.4395C21.6441 19.9453 21.6441 20.827 21.4923 21.1377C21.2611 21.6291 21.514 21.6146 15.3208 21.593L9.74193 21.5713L9.53236 21.3328C9.33002 21.1016 9.32279 21.0799 9.32279 20.285C9.32279 19.5189 9.33724 19.4539 9.53959 19.107C10.1322 18.0664 11.8087 17.2064 13.666 16.9896C14.4609 16.8957 16.2964 16.8957 17.1419 16.9896ZM33.8931 18.5V20.0176H29.2681H24.6431V18.5V16.9824H29.2681H33.8931V18.5Z" fill="white"/>
<path d="M2.30571 9.35118C1.2145 9.65469 0.311176 10.6014 0.0799261 11.707C0.0148871 12.0033 0.00043396 14.5615 0.0148871 21.8242L0.0365668 31.5439L0.195551 31.927C0.549653 32.7869 1.31567 33.5023 2.17563 33.7697C2.53696 33.8854 3.54868 33.8926 15.5375 33.8781L28.5092 33.8564L28.9284 33.6902C29.4487 33.4807 30.1713 32.8231 30.4459 32.31C30.6049 32.0209 30.8506 31.1898 30.8579 30.908C30.8579 30.8791 24.6141 30.8574 16.9829 30.8574H3.10786V20.0537V9.25L2.87661 9.25723C2.74653 9.25723 2.48637 9.30782 2.30571 9.35118Z" fill="white"/>
</svg>
