<svg width="56" height="57" viewBox="0 0 56 57" fill="none" xmlns="http://www.w3.org/2000/svg">
<path d="M43.84 15.6H12.48C10.0058 15.6 8 17.6057 8 20.08V38C8 40.4742 10.0058 42.48 12.48 42.48H43.84C46.3142 42.48 48.32 40.4742 48.32 38V20.08C48.32 17.6057 46.3142 15.6 43.84 15.6ZM23.68 39.12C22.4144 39.12 21.2588 38.6821 20.32 37.9715C19.3811 38.6821 18.2255 39.12 16.96 39.12C13.8721 39.12 11.36 36.6079 11.36 33.52C11.36 30.4321 13.8721 27.92 16.96 27.92C18.2255 27.92 19.3811 28.3579 20.32 29.0685C21.2588 28.3579 22.4144 27.92 23.68 27.92C26.7678 27.92 29.28 30.4321 29.28 33.52C29.28 36.6079 26.7678 39.12 23.68 39.12Z" fill="currentColor"/>
<path d="M23.5202 29.72C22.8202 29.72 22.1709 29.9348 21.6328 30.3011C22.1076 31.1234 22.4002 32.0641 22.4002 33.08C22.4002 34.0959 22.1076 35.0366 21.6328 35.8589C22.1709 36.2251 22.8202 36.44 23.5202 36.44C25.3759 36.44 26.8802 34.9357 26.8802 33.08C26.8802 31.2243 25.3759 29.72 23.5202 29.72Z" fill="currentColor"/>
</svg>
