<svg width="40" height="40" viewBox="0 0 40 40" fill="none" xmlns="http://www.w3.org/2000/svg">
<path d="M6.75684 1.79688C6.5459 1.88281 6.28027 2.17969 6.17871 2.44531C6.12402 2.57812 6.09277 3.3125 6.09277 4.22656V5.78125H3.60059C1.26465 5.78125 1.10059 5.78906 0.928711 5.92969L0.741211 6.07812L0.717773 19.3125C0.709961 26.5859 0.717773 32.6172 0.741211 32.7109C0.764648 32.8047 0.858398 32.9609 0.952148 33.0469C1.12402 33.2031 1.18652 33.2031 11.499 33.2031C17.2021 33.2031 21.874 33.1797 21.874 33.1406C21.874 33.1094 21.8193 32.8125 21.7568 32.4766C21.6943 32.1406 21.6396 31.6016 21.6396 31.2812V30.7031H12.5068H3.36621L3.14746 30.5156L2.92871 30.3281V21.3359V12.3516L3.1084 12.1719L3.28809 11.9922L16.9912 11.9688L30.6943 11.9531L30.9131 12.1406L31.1318 12.3281L31.1553 16.8281L31.1709 21.3281H31.8193C32.3818 21.3281 32.6162 21.3594 33.3428 21.5234L33.5146 21.5625V13.8281C33.5146 6.19531 33.5146 6.09375 33.3584 5.9375C33.21 5.78906 33.1006 5.78125 30.7803 5.78125H28.3584V4.11719C28.3584 2.29688 28.335 2.19531 27.8975 1.89844C27.4131 1.57031 26.749 1.75 26.4678 2.27344C26.3428 2.5 26.3271 2.73438 26.3271 4.15625V5.78125L17.249 5.76562L8.16309 5.74219L8.12402 4.01562C8.08496 2.42188 8.06934 2.26562 7.92871 2.10938C7.61621 1.75781 7.13965 1.63281 6.75684 1.79688ZM8.12402 6.78906C8.12402 7.6875 8.1084 7.8125 7.95996 8C7.46777 8.625 6.59277 8.55469 6.24902 7.85938C6.12402 7.58594 6.09277 7.375 6.09277 6.65625V5.78125H7.1084H8.12402V6.78906ZM28.3584 6.73438C28.3584 7.80469 28.3037 7.98438 27.8975 8.25781C27.5771 8.47656 27.2334 8.48438 26.8818 8.29688C26.4287 8.05469 26.3271 7.75781 26.3271 6.70312V5.78125H27.3428H28.3584V6.73438Z" fill="white"/>
<path d="M5.80469 15.0312L5.58594 15.2188V17.7344V20.25L5.80469 20.4375L6.02344 20.625H8.48438H10.9453L11.1328 20.4297L11.3281 20.2422V17.7344V15.2266L11.1328 15.0391L10.9453 14.8438H8.48438H6.02344L5.80469 15.0312Z" fill="white"/>
<path d="M14.5547 15.0312L14.3359 15.2188V17.7344V20.25L14.5547 20.4375L14.7734 20.625H17.2344H19.6953L19.8828 20.4297L20.0781 20.2422V17.7344V15.2266L19.8828 15.0391L19.6953 14.8438H17.2344H14.7734L14.5547 15.0312Z" fill="white"/>
<path d="M23.1465 15.0312L22.9277 15.2188V17.7344V20.25L23.1465 20.4375L23.3652 20.625H25.8262H28.2871L28.4746 20.4297L28.6699 20.2422V17.7344V15.2266L28.4746 15.0391L28.2871 14.8438H25.8262H23.3652L23.1465 15.0312Z" fill="white"/>
<path d="M6.03125 22.5859C5.57812 22.7187 5.54688 22.9062 5.54688 25.4297C5.54688 28 5.57031 28.1328 6.07031 28.2812C6.26562 28.3437 7.11719 28.3594 8.64844 28.3437L10.9219 28.3203L11.125 28.1328L11.3281 27.9453V25.4297V22.9141L11.125 22.7266L10.9219 22.5391L8.60938 22.5234C7.26562 22.5156 6.17969 22.5391 6.03125 22.5859Z" fill="white"/>
<path d="M14.7871 22.5859C14.3184 22.7266 14.2949 22.8516 14.2949 25.4297C14.2949 28.0469 14.3105 28.1328 14.8262 28.2812C15.0137 28.3437 15.8965 28.3594 17.3965 28.3437L19.6699 28.3203L19.873 28.1328L20.0762 27.9453V25.4297V22.9141L19.873 22.7266L19.6699 22.5391L17.3574 22.5234C16.0527 22.5156 14.9277 22.5391 14.7871 22.5859Z" fill="white"/>
<path d="M29.9062 22.6953C25.6171 23.3984 22.578 27.3203 22.9765 31.625C23.1718 33.7422 24.0077 35.4453 25.578 36.9375C28.0859 39.3125 31.7577 39.8594 34.8984 38.3125C38.5937 36.5078 40.3984 32.2031 39.1015 28.2813C38.6874 27.0391 38.078 26.0469 37.1093 25.0703C35.9921 23.9297 34.6874 23.1953 33.1015 22.8047C32.2499 22.6016 30.7968 22.5469 29.9062 22.6953ZM30.9843 24.2578C31.4765 24.4609 31.4843 24.5234 31.4843 28.125V31.3281H33.5468H35.6093L35.8437 31.5234C35.9687 31.6328 36.1015 31.8125 36.1249 31.9219C36.203 32.2109 36.0468 32.6172 35.7968 32.7891C35.6015 32.9219 35.3749 32.9297 32.9843 32.9297H30.3749L30.1093 32.6406L29.8437 32.3438V28.5313C29.8437 24.3203 29.828 24.4766 30.3437 24.25C30.6484 24.1172 30.6562 24.1172 30.9843 24.2578Z" fill="white"/>
</svg>
