<svg width="26" height="27" viewBox="0 0 26 27" fill="none" xmlns="http://www.w3.org/2000/svg">
<path d="M13 26.5C20.1797 26.5 26 20.6797 26 13.5C26 6.3203 20.1797 0.5 13 0.5C5.8203 0.5 0 6.3203 0 13.5C0 20.6797 5.8203 26.5 13 26.5Z" fill="url(#paint0_linear_2599_21)"/>
<path d="M13.1116 9.25757C10.7724 9.25757 8.86914 11.1607 8.86914 13.5C8.86914 15.8392 10.7724 17.7424 13.1116 17.7424C15.4508 17.7424 17.3539 15.8392 17.3539 13.5C17.3539 11.1607 15.4508 9.25757 13.1116 9.25757ZM13.1116 16.2175C11.6131 16.2175 10.394 14.9985 10.394 13.5C10.394 12.0015 11.6131 10.7824 13.1116 10.7824C14.6101 10.7824 15.8291 12.0015 15.8291 13.5C15.8291 14.9985 14.6101 16.2175 13.1116 16.2175Z" fill="white"/>
<path d="M17.6017 9.98225C18.1595 9.98225 18.6116 9.53009 18.6116 8.97232C18.6116 8.41456 18.1595 7.9624 17.6017 7.9624C17.044 7.9624 16.5918 8.41456 16.5918 8.97232C16.5918 9.53009 17.044 9.98225 17.6017 9.98225Z" fill="white"/>
<path d="M16.4797 22.1134H9.6021C6.74889 22.1134 4.42773 19.7922 4.42773 16.939V10.0611C4.42773 7.20784 6.74888 4.88672 9.6021 4.88672H16.4797C19.3329 4.88672 21.6544 7.20784 21.6544 10.0611V16.939C21.6544 19.7922 19.3329 22.1134 16.4797 22.1134ZM9.6021 6.50736C7.64245 6.50736 6.04838 8.10143 6.04838 10.0611V16.939C6.04838 18.8987 7.64245 20.4927 9.6021 20.4927H16.4797C18.4394 20.4927 20.0337 18.8987 20.0337 16.939V10.0611C20.0337 8.10143 18.4394 6.50736 16.4797 6.50736H9.6021Z" fill="white"/>
<defs>
<linearGradient id="paint0_linear_2599_21" x1="1.91452" y1="24.5855" x2="30.0088" y2="-3.50882" gradientUnits="userSpaceOnUse">
<stop offset="0.0011" stop-color="#FBE18A"/>
<stop offset="0.2094" stop-color="#FCBB45"/>
<stop offset="0.3765" stop-color="#F75274"/>
<stop offset="0.5238" stop-color="#D53692"/>
<stop offset="0.7394" stop-color="#8F39CE"/>
<stop offset="1" stop-color="#5B4FE9"/>
</linearGradient>
</defs>
</svg>
