<svg width="26" height="27" viewBox="0 0 26 27" fill="none" xmlns="http://www.w3.org/2000/svg">
<g clip-path="url(#clip0_473_318)">
<path d="M13 26.5C20.1797 26.5 26 20.6797 26 13.5C26 6.3203 20.1797 0.5 13 0.5C5.8203 0.5 0 6.3203 0 13.5C0 20.6797 5.8203 26.5 13 26.5Z" fill="url(#paint0_linear_473_318)"/>
<path d="M13.1116 9.2576C10.7724 9.2576 8.86914 11.1608 8.86914 13.5C8.86914 15.8392 10.7724 17.7424 13.1116 17.7424C15.4508 17.7424 17.3539 15.8392 17.3539 13.5C17.3539 11.1608 15.4508 9.2576 13.1116 9.2576ZM13.1116 16.2176C11.6131 16.2176 10.394 14.9985 10.394 13.5C10.394 12.0015 11.6131 10.7825 13.1116 10.7825C14.6101 10.7825 15.8291 12.0015 15.8291 13.5C15.8291 14.9985 14.6101 16.2176 13.1116 16.2176Z" fill="black"/>
<path d="M17.6017 9.98228C18.1595 9.98228 18.6116 9.53012 18.6116 8.97235C18.6116 8.41459 18.1595 7.96243 17.6017 7.96243C17.044 7.96243 16.5918 8.41459 16.5918 8.97235C16.5918 9.53012 17.044 9.98228 17.6017 9.98228Z" fill="white"/>
<path d="M16.4797 22.1134H9.6021C6.74889 22.1134 4.42773 19.7922 4.42773 16.939V10.0611C4.42773 7.20787 6.74888 4.88675 9.6021 4.88675H16.4797C19.3329 4.88675 21.6544 7.20787 21.6544 10.0611V16.939C21.6544 19.7922 19.3329 22.1134 16.4797 22.1134ZM9.6021 6.5074C7.64245 6.5074 6.04838 8.10146 6.04838 10.0611V16.939C6.04838 18.8987 7.64245 20.4928 9.6021 20.4928H16.4797C18.4394 20.4928 20.0337 18.8987 20.0337 16.939V10.0611C20.0337 8.10146 18.4394 6.5074 16.4797 6.5074H9.6021Z" fill="black"/>
</g>
<defs>
<linearGradient id="paint0_linear_473_318" x1="1.91452" y1="24.5855" x2="30.0088" y2="-3.50882" gradientUnits="userSpaceOnUse">
<stop offset="1" stop-color="white"/>
</linearGradient>
<clipPath id="clip0_473_318">
<rect width="26" height="26" fill="white" transform="translate(0 0.5)"/>
</clipPath>
</defs>
</svg>
