<svg width="32" height="32" viewBox="0 0 32 32" fill="none" xmlns="http://www.w3.org/2000/svg">
<g clip-path="url(#clip0_850_250)">
<path d="M24.9857 0.709385C25.9984 1.69105 26.8388 2.51126 26.8526 2.53709C26.8595 2.56292 24.7929 4.53271 22.2509 6.90938L17.6354 11.2365L14.3287 8.13646L11.0221 5.03646L5.51105 10.2031L0 15.3698V16.4483V17.5333H1.15043H2.30775L6.66149 13.4517L11.0221 9.36354L14.3287 12.4635L17.6354 15.5635L18.9925 14.2977C27.4519 6.44438 29.2913 4.74584 29.3326 4.74584C29.3601 4.74584 30.2075 5.5273 31.227 6.47667L33.0663 8.2075V3.57042V-1.06666H28.0995H23.1327L24.9857 0.709385Z" fill="white"/>
<path d="M26.4531 21.6667V32H29.7598H33.0664V21.6667V11.3334H29.7598H26.4531V21.6667Z" fill="white"/>
<path d="M17.6367 24.7667V32H20.9434H24.25V24.7667V17.5333H20.9434H17.6367V24.7667Z" fill="white"/>
<path d="M8.81641 25.8V32H12.123H15.4297V25.8V19.6H12.123H8.81641V25.8Z" fill="white"/>
<path d="M0 27.8667V32H3.30663H6.61327V27.8667V23.7333H3.30663H0V27.8667Z" fill="white"/>
</g>
<defs>
<clipPath id="clip0_850_250">
<rect width="32" height="32" fill="white"/>
</clipPath>
</defs>
</svg>
