<svg viewBox="-150 -50 900 900" xmlns="http://www.w3.org/2000/svg"><path fill="currentColor" d="M298.324 0.5C462.546 0.5 596.149 134.156 596.149 298.443C596.149 420.872 529.073 541.912 460.503 633.646C391.944 725.367 321.955 787.71 316.251 792.734C311.128 797.246 304.728 799.503 298.324 799.503C291.921 799.503 285.521 797.244 280.4 792.734C274.692 787.708 204.703 725.364 136.146 633.645C67.5759 541.91 0.500089 420.871 0.5 298.443C0.5 134.156 134.102 0.500199 298.324 0.5ZM298.324 54.7461C164.014 54.7463 54.7461 164.069 54.7461 298.443C54.7462 391.339 100.735 486.072 154.1 564.737C207.472 643.415 268.268 706.087 297.977 734.875L298.324 735.212L298.673 734.875C328.381 706.086 389.177 643.413 442.55 564.735C495.914 486.07 541.903 391.338 541.903 298.443C541.903 164.069 432.634 54.7461 298.324 54.7461Z"/><circle fill="none" cx="298.324" cy="299" r="141" stroke="currentColor" stroke-width="30"/></svg>
