<svg width="30" height="30" viewBox="0 0 30 30" fill="none" xmlns="http://www.w3.org/2000/svg">
<path d="M7.21875 6.02344C6.32812 6.96094 5.39062 8.85938 5.39062 9.70313C5.39062 10.1016 5.76562 11.1563 6.21094 12.0234C8.8125 17.0859 12.6797 20.9063 17.4844 23.1328C20.0391 24.3047 20.6719 24.3281 22.3828 23.3672C23.4844 22.7578 23.8594 22.3828 24.1172 21.7031C24.4219 20.9063 24.3984 20.7891 23.9766 20.2031C23.25 19.2188 21.6328 18.5156 20.0156 18.4453C18.6562 18.3984 18.6328 18.4219 18.2812 19.1719C17.7891 20.2266 17.0625 20.3672 15.7266 19.6641C14.3906 18.9844 10.0547 14.6953 9.63281 13.6406C9.21094 12.6094 9.63281 11.625 10.8281 10.8516C11.3437 10.5 11.7187 10.0547 11.7187 9.79688C11.7187 8.55469 9.28125 5.39063 8.34375 5.39063C8.0625 5.39063 7.54687 5.67188 7.21875 6.02344Z" fill="currentColor"/>
</svg>
