<svg width="973" height="443" viewBox="0 0 973 443" fill="none" xmlns="http://www.w3.org/2000/svg">
<g clip-path="url(#clip0_22_19)">
<path d="M666.14 66.64L664.37 65.24C664.177 65.0873 663.969 64.9597 663.75 64.86C638 52.57 610.95 43.56 582.18 34.19C566.833 29.19 553.583 25.4334 542.43 22.92C524.803 18.94 508.813 16 494.46 14.1C477.66 11.8734 459.84 10.7033 441 10.59C415.18 10.4433 390.877 11.8834 368.09 14.91C348.59 17.4967 329.913 20.6334 312.06 24.32C294.16 28.0134 277.943 32.2034 263.41 36.89C259.39 38.19 251.59 42.38 250.92 47.17C250.28 51.81 255.94 55.88 259.73 57.53C262.617 58.7967 266.713 60.11 272.02 61.47C279.2 63.31 285.86 64.8234 292 66.01C306.693 68.8567 324.113 71.5733 344.26 74.16C365.747 76.92 390.28 79.15 417.86 80.85C420.77 81.03 423.34 81.45 427.4 81.92C427.5 81.9363 427.59 81.9863 427.658 82.0616C427.725 82.1369 427.764 82.2331 427.769 82.3338C427.773 82.4346 427.743 82.5339 427.683 82.6151C427.624 82.6964 427.538 82.7546 427.44 82.78C426.373 83 425.257 83.1167 424.09 83.13C395.79 83.47 375.587 83.47 363.48 83.13C357.373 82.9634 344.317 82.1934 324.31 80.82C312.73 80.0267 299.727 78.7167 285.3 76.89C267.05 74.58 234.07 70.44 208.34 68.26C183.74 66.17 159.2 66.07 135.01 67.52C107.43 69.17 79.87 73.04 52.4 76.35C40.64 77.7633 29.11 78.1 17.81 77.36C16.51 77.27 15.24 76.78 13.95 76.21C13.7654 76.131 13.6143 75.9899 13.5228 75.8111C13.4314 75.6323 13.4054 75.4272 13.4493 75.2313C13.4932 75.0353 13.6044 74.861 13.7634 74.7384C13.9224 74.6158 14.1193 74.5527 14.32 74.56C23.27 74.74 30.07 74.61 38.87 73.66C57.65 71.6333 79.5433 67.6034 104.55 61.57C126.403 56.3034 141.533 52.5067 149.94 50.18C171.293 44.2667 198.463 37.0267 231.45 28.46C243.397 25.36 257.16 22.0434 272.74 18.51C278.527 17.1967 290.537 14.9167 308.77 11.67C334.623 7.0767 362.173 3.63669 391.42 1.35002C400.78 0.620021 410.44 0.550015 419.2 1.51396e-05C423.227 -0.253318 426.933 -0.393332 430.32 -0.419998C457.96 -0.593332 484.603 1.37667 510.25 5.49001C529.563 8.59001 549.233 13.3667 569.26 19.82C583.107 24.28 599.7 30.76 619.04 39.26C624.113 41.4867 630.927 44.8934 639.48 49.48C652.007 56.1934 658.74 59.81 659.68 60.33C662.827 62.0767 665.067 64.1033 666.4 66.41C666.417 66.4454 666.423 66.4855 666.415 66.5242C666.407 66.5629 666.387 66.598 666.358 66.6241C666.328 66.6502 666.291 66.666 666.251 66.6688C666.212 66.6717 666.173 66.6616 666.14 66.64Z" fill="#214230"/>
<path d="M972.93 144.04C972.975 144.097 972.999 144.167 972.997 144.24C972.996 144.312 972.969 144.382 972.921 144.436C972.874 144.491 972.809 144.527 972.737 144.539C972.666 144.551 972.592 144.537 972.53 144.5C953.3 134.82 931.67 126.82 911.55 119.74C864.27 103.09 813.06 92.98 763 87.74C748.24 86.1934 731.217 84.92 711.93 83.92C679.763 82.2667 646.537 81.6633 612.25 82.11C594.37 82.35 568.87 82.8367 535.75 83.57C514.443 84.0434 484.333 83.9667 445.42 83.3401C445.208 83.3367 445 83.2729 444.821 83.1562C444.643 83.0394 444.5 82.8744 444.41 82.68L444.4 82.6501C444.364 82.5756 444.348 82.4935 444.351 82.411C444.355 82.3284 444.379 82.2478 444.421 82.176C444.464 82.1042 444.523 82.0434 444.594 81.9988C444.665 81.9542 444.746 81.9272 444.83 81.92C500.84 77.62 557.81 72.57 613.5 70.2C633.227 69.36 650.01 68.98 663.85 69.06C665.183 69.0734 666.287 68.9801 667.16 68.7801C668.59 68.4501 670.06 69.09 671.98 69.1C722.36 69.4067 771.613 74.4767 819.74 84.31C836.467 87.73 852.73 91.8 868.53 96.52C882.117 100.58 898.147 106.387 916.62 113.94C933.96 121.033 951.503 129.96 969.25 140.72C970.797 141.66 972.023 142.767 972.93 144.04Z" fill="#214230"/>
<path d="M0.42 141.01C1.80667 133.177 3.83001 125.617 6.49001 118.33C11.3967 104.897 20.41 95.68 33.53 90.68C37.4167 89.2 43.6967 87.8433 52.37 86.61C70.03 84.0967 90.5733 82.7567 114 82.5901C134.813 82.4434 149.563 82.5367 158.25 82.87C161.183 82.9767 177.113 83.8467 206.04 85.48C206.16 85.4864 206.278 85.5165 206.387 85.5684C206.496 85.6203 206.593 85.6931 206.673 85.7824C206.753 85.8717 206.814 85.9758 206.853 86.0887C206.892 86.2016 206.908 86.321 206.9 86.44L206.89 86.48C206.875 86.7303 206.765 86.9655 206.583 87.1382C206.401 87.3108 206.161 87.4079 205.91 87.41C177.31 87.76 148.62 89.77 120.45 93.13C98.09 95.8 76.57 100.51 56.49 106.96C50.81 108.787 43.82 111.553 35.52 115.26C26.0534 119.487 17.3234 125.15 9.33003 132.25C6.25003 134.99 3.81005 138.13 1.03005 141.31C0.979725 141.37 0.910736 141.411 0.834124 141.428C0.757512 141.444 0.677699 141.434 0.607439 141.399C0.537179 141.365 0.480523 141.308 0.446551 141.237C0.412579 141.166 0.40321 141.087 0.42 141.01Z" fill="#214230"/>
<path d="M210.34 267.04C210.272 267.056 210.209 267.091 210.16 267.141C210.11 267.191 210.076 267.254 210.061 267.324C210.045 267.393 210.049 267.466 210.072 267.534C210.095 267.602 210.136 267.663 210.19 267.71L298.38 341.58C298.484 341.669 298.559 341.787 298.593 341.919C298.628 342.051 298.622 342.191 298.575 342.319C298.528 342.448 298.443 342.559 298.332 342.638C298.22 342.716 298.087 342.759 297.95 342.76H239.29C238.837 342.76 238.388 342.671 237.97 342.498C237.551 342.324 237.17 342.07 236.85 341.75C235.377 340.277 233.947 338.95 232.56 337.77C207.34 316.33 173.18 287.583 130.08 251.53C127.78 249.62 126.88 248.13 127.94 245.49C128.056 245.201 128.255 244.953 128.511 244.778C128.768 244.604 129.071 244.51 129.38 244.51C165.107 244.503 186.223 244.467 192.73 244.4C198.043 244.347 203.767 243.42 209.9 241.62C220.79 238.43 226.79 231.43 227.54 220.18C227.773 216.673 227.73 213.44 227.41 210.48C225 187.88 202.06 185.8 184.25 185.73C161.67 185.65 135.5 185.643 105.74 185.71C105.504 185.71 105.278 185.804 105.111 185.971C104.944 186.138 104.85 186.364 104.85 186.6V341.88C104.85 342.111 104.758 342.332 104.595 342.495C104.432 342.658 104.211 342.75 103.98 342.75H57.8701C57.7268 342.75 57.5895 342.693 57.4882 342.592C57.387 342.491 57.3301 342.353 57.3301 342.21V161.69C57.3301 161.621 57.3438 161.552 57.3706 161.489C57.3974 161.425 57.4366 161.367 57.4859 161.319C57.5353 161.27 57.5938 161.232 57.658 161.207C57.7223 161.181 57.7909 161.169 57.86 161.17C92.0667 161.383 140.863 161.457 204.25 161.39C210.857 161.383 218.75 162.36 227.93 164.32C237.85 166.44 245.427 168.83 250.66 171.49C263.18 177.85 273.54 189.87 275.7 204.27C278.11 220.32 276.42 238.57 264.96 250.32C250.64 264.99 230.7 266.3 211.09 266.92C210.897 266.927 210.647 266.967 210.34 267.04Z" fill="#214230"/>
<path d="M517.64 161.36C517.749 161.36 517.853 161.403 517.93 161.48C518.007 161.557 518.05 161.661 518.05 161.77V185.06C518.05 185.137 518.035 185.212 518.005 185.283C517.975 185.353 517.931 185.417 517.876 185.47C517.821 185.523 517.756 185.565 517.684 185.592C517.613 185.62 517.536 185.633 517.46 185.63C509.753 185.37 502.433 185.25 495.5 185.27C493.147 185.277 454.59 185.39 379.83 185.61C379.739 185.61 379.65 185.628 379.566 185.663C379.482 185.697 379.406 185.748 379.342 185.812C379.278 185.876 379.227 185.952 379.193 186.036C379.158 186.12 379.14 186.209 379.14 186.3V229.73C379.14 230.04 379.263 230.338 379.483 230.557C379.702 230.777 380 230.9 380.31 230.9H501.88C502.076 230.9 502.264 230.978 502.403 231.117C502.542 231.256 502.62 231.444 502.62 231.64V255.23C502.62 255.352 502.573 255.469 502.488 255.555C502.404 255.642 502.289 255.69 502.17 255.69H380C379.788 255.69 379.584 255.773 379.434 255.921C379.284 256.07 379.2 256.27 379.2 256.48V317.9C379.2 318.16 379.303 318.409 379.487 318.593C379.671 318.777 379.92 318.88 380.18 318.88H523.65C523.812 318.88 523.967 318.944 524.081 319.059C524.196 319.173 524.26 319.328 524.26 319.49V341.9C524.26 342.099 524.181 342.29 524.04 342.43C523.9 342.571 523.709 342.65 523.51 342.65H331.59C331.481 342.65 331.377 342.607 331.3 342.53C331.223 342.453 331.18 342.349 331.18 342.24V161.85C331.18 161.72 331.231 161.595 331.321 161.504C331.411 161.412 331.533 161.36 331.66 161.36H517.64Z" fill="#214230"/>
<path d="M622.42 161.38H576.22C575.949 161.38 575.73 161.599 575.73 161.87V342.29C575.73 342.561 575.949 342.78 576.22 342.78H622.42C622.691 342.78 622.91 342.561 622.91 342.29V161.87C622.91 161.599 622.691 161.38 622.42 161.38Z" fill="#214230"/>
<path d="M751.27 318.17C751.26 318.253 751.268 318.337 751.293 318.417C751.318 318.497 751.36 318.571 751.416 318.633C751.472 318.696 751.54 318.745 751.617 318.779C751.693 318.813 751.776 318.831 751.86 318.83H913.31C913.406 318.83 913.497 318.868 913.565 318.935C913.632 319.003 913.67 319.095 913.67 319.19V342.6C913.67 342.658 913.646 342.714 913.603 342.756C913.56 342.797 913.501 342.82 913.44 342.82H663.06C662.846 342.821 662.637 342.76 662.458 342.644C662.278 342.529 662.136 342.363 662.049 342.168C661.962 341.973 661.934 341.756 661.968 341.545C662.002 341.335 662.096 341.138 662.24 340.98C665.16 337.747 669.85 333.103 676.31 327.05C685.69 318.27 695.78 309.37 704.37 300.63C709.53 295.39 715.95 290.29 721.37 284.96C722.823 283.533 733.947 273.247 754.74 254.1C778.68 232.05 802.7 209.05 826.78 186.64C826.865 186.562 826.924 186.46 826.95 186.348C826.976 186.236 826.967 186.118 826.925 186.011C826.883 185.904 826.809 185.812 826.714 185.747C826.618 185.683 826.505 185.649 826.39 185.65H686.61C686.387 185.65 686.174 185.562 686.016 185.404C685.858 185.246 685.77 185.033 685.77 184.81V161.55C685.77 161.484 685.795 161.42 685.84 161.373C685.885 161.326 685.946 161.3 686.01 161.3H914.91C915.085 161.3 915.257 161.345 915.409 161.431C915.562 161.518 915.689 161.642 915.778 161.792C915.868 161.942 915.917 162.113 915.921 162.288C915.925 162.463 915.883 162.636 915.8 162.79C915.313 163.703 914.3 164.943 912.76 166.51C910.767 168.537 903.123 175.81 889.83 188.33C878.083 199.39 858.147 217.877 830.02 243.79C813.51 258.99 798.54 273.57 785.63 285.32C778.53 291.787 772.82 297.127 768.5 301.34C761.99 307.68 751.37 317.32 751.27 318.17Z" fill="#214230"/>
<path d="M251.07 436.62C251.383 438.273 251.37 439.76 251.03 441.08C250.966 441.332 250.833 441.561 250.646 441.742C250.459 441.922 250.224 442.046 249.97 442.1C239.79 444.24 230.75 443.697 222.85 440.47C214.11 436.9 210.99 425.04 215.76 417.33C218.02 413.67 222.183 411.07 228.25 409.53C234.943 407.83 241.907 407.98 249.14 409.98C249.611 410.109 250.027 410.39 250.323 410.778C250.619 411.167 250.78 411.641 250.78 412.13V413.88C250.781 414.074 250.737 414.266 250.653 414.441C250.569 414.617 250.446 414.77 250.294 414.892C250.142 415.013 249.965 415.098 249.776 415.141C249.586 415.184 249.389 415.184 249.2 415.14C238.47 412.73 219.36 411.48 222.4 429.12C224.34 440.41 242.71 438.12 249.83 435.88C249.961 435.839 250.099 435.826 250.235 435.842C250.371 435.858 250.502 435.903 250.619 435.973C250.737 436.043 250.837 436.137 250.915 436.248C250.993 436.36 251.046 436.486 251.07 436.62Z" fill="#214230"/>
<path d="M440.28 430.45C440.044 430.45 439.818 430.545 439.651 430.714C439.484 430.882 439.39 431.111 439.39 431.35V441.96C439.39 442.27 439.266 442.568 439.044 442.787C438.823 443.007 438.523 443.13 438.21 443.13H432.15C431.856 443.13 431.573 443.014 431.365 442.808C431.157 442.602 431.04 442.322 431.04 442.03V409.67C431.04 409.464 431.12 409.266 431.264 409.118C431.408 408.971 431.604 408.885 431.81 408.88C440.01 408.573 447.157 408.53 453.25 408.75C454.883 408.803 457.3 409.323 460.5 410.31C465.17 411.75 467.43 415.7 466.79 420.54C466.237 424.753 463.667 427.623 459.08 429.15C458.922 429.202 458.779 429.293 458.666 429.415C458.552 429.537 458.471 429.686 458.43 429.847C458.389 430.009 458.39 430.178 458.432 430.34C458.474 430.501 458.556 430.649 458.67 430.77L468.67 441.53C468.786 441.653 468.862 441.806 468.891 441.972C468.92 442.138 468.9 442.308 468.833 442.463C468.766 442.617 468.655 442.748 468.514 442.84C468.373 442.932 468.208 442.981 468.04 442.98H462.24C461.76 442.98 461.287 442.881 460.848 442.69C460.409 442.499 460.015 442.22 459.69 441.87L449.67 431.09C449.484 430.888 449.257 430.727 449.004 430.617C448.751 430.507 448.477 430.45 448.2 430.45H440.28ZM439.38 415.38L439.4 423.76C439.4 424.046 439.514 424.321 439.716 424.524C439.919 424.726 440.194 424.84 440.48 424.84L452.57 424.81C454.386 424.807 456.127 424.271 457.409 423.32C458.692 422.369 459.412 421.082 459.41 419.74V419.32C459.409 418.655 459.231 417.997 458.886 417.384C458.541 416.77 458.035 416.213 457.398 415.744C456.761 415.275 456.005 414.903 455.173 414.651C454.341 414.398 453.45 414.268 452.55 414.27L440.46 414.3C440.318 414.3 440.178 414.328 440.047 414.382C439.916 414.437 439.797 414.516 439.696 414.616C439.596 414.717 439.516 414.836 439.462 414.967C439.408 415.098 439.38 415.238 439.38 415.38Z" fill="#214230"/>
<path d="M556.38 418.54C556.355 418.514 556.322 418.496 556.287 418.488C556.251 418.481 556.214 418.484 556.18 418.498C556.147 418.512 556.118 418.536 556.099 418.567C556.079 418.598 556.069 418.634 556.07 418.67V441.62C556.07 441.983 555.927 442.332 555.672 442.589C555.417 442.846 555.071 442.99 554.71 442.99H549.41C549.281 442.99 549.154 442.965 549.035 442.915C548.916 442.866 548.808 442.794 548.717 442.703C548.626 442.612 548.554 442.504 548.505 442.385C548.455 442.266 548.43 442.139 548.43 442.01V409.94C548.43 409.672 548.536 409.415 548.726 409.226C548.915 409.036 549.172 408.93 549.44 408.93H554.5C554.921 408.93 555.338 409.015 555.726 409.18C556.114 409.345 556.466 409.586 556.76 409.89C559.12 412.35 567.263 420.08 581.19 433.08C581.257 433.147 581.387 433.173 581.58 433.16C581.699 433.155 581.811 433.103 581.893 433.015C581.975 432.928 582.02 432.811 582.02 432.69V410.09C582.02 409.732 582.162 409.389 582.415 409.135C582.669 408.882 583.012 408.74 583.37 408.74H588.8C589.158 408.74 589.501 408.882 589.755 409.135C590.008 409.389 590.15 409.732 590.15 410.09V441.85C590.15 442.018 590.117 442.185 590.053 442.34C589.988 442.495 589.894 442.636 589.775 442.755C589.656 442.874 589.515 442.968 589.36 443.033C589.205 443.097 589.038 443.13 588.87 443.13H582.74C582.188 443.13 581.657 442.915 581.26 442.53L556.38 418.54Z" fill="#214230"/>
<path d="M315.46 441.66C315.537 441.794 315.578 441.945 315.578 442.099C315.578 442.254 315.538 442.405 315.461 442.539C315.384 442.673 315.273 442.784 315.139 442.861C315.006 442.939 314.854 442.98 314.7 442.98H308.95C308.537 442.98 308.131 442.87 307.775 442.663C307.418 442.456 307.123 442.158 306.92 441.8L303.46 435.82C303.248 435.452 302.942 435.147 302.573 434.935C302.205 434.722 301.786 434.61 301.36 434.61H282.7C282.436 434.61 282.177 434.681 281.95 434.815C281.723 434.949 281.537 435.14 281.41 435.37L277.71 442C277.549 442.283 277.316 442.517 277.035 442.681C276.754 442.844 276.435 442.93 276.11 442.93H269.96C269.882 442.93 269.805 442.909 269.737 442.87C269.669 442.83 269.613 442.774 269.574 442.706C269.534 442.639 269.513 442.562 269.513 442.484C269.512 442.405 269.532 442.328 269.57 442.26L287.66 409.88C287.846 409.552 288.115 409.279 288.44 409.089C288.765 408.899 289.134 408.8 289.51 408.8H295.44C295.76 408.8 296.074 408.885 296.351 409.044C296.629 409.204 296.859 409.433 297.02 409.71L315.46 441.66ZM285.36 428.7C285.331 428.759 285.318 428.825 285.322 428.891C285.325 428.957 285.345 429.021 285.38 429.077C285.415 429.133 285.464 429.179 285.521 429.211C285.579 429.243 285.644 429.26 285.71 429.26L298.94 429.31C299.007 429.311 299.074 429.294 299.133 429.261C299.192 429.229 299.241 429.181 299.276 429.124C299.312 429.067 299.331 429.001 299.334 428.934C299.336 428.867 299.321 428.8 299.29 428.74L292.72 415.34C292.688 415.275 292.638 415.219 292.576 415.181C292.514 415.142 292.443 415.122 292.37 415.122C292.297 415.122 292.226 415.142 292.164 415.181C292.102 415.219 292.052 415.275 292.02 415.34L285.36 428.7Z" fill="#214230"/>
<path d="M345.8 430.34C345.684 430.339 345.568 430.361 345.46 430.405C345.352 430.449 345.254 430.514 345.171 430.597C345.088 430.68 345.023 430.778 344.978 430.887C344.933 430.996 344.91 431.112 344.91 431.23L344.89 441.74C344.89 441.892 344.86 442.043 344.801 442.184C344.742 442.325 344.656 442.452 344.547 442.56C344.439 442.668 344.31 442.753 344.168 442.812C344.026 442.87 343.874 442.9 343.72 442.9L337.72 442.89C337.575 442.89 337.431 442.861 337.297 442.806C337.163 442.751 337.041 442.669 336.939 442.567C336.836 442.465 336.755 442.344 336.701 442.21C336.646 442.077 336.619 441.934 336.62 441.79L336.68 409.73C336.68 409.525 336.761 409.328 336.905 409.182C337.049 409.036 337.245 408.953 337.45 408.95C345.57 408.663 352.65 408.633 358.69 408.86C360.31 408.92 362.703 409.44 365.87 410.42C370.49 411.86 372.73 415.77 372.08 420.57C371.527 424.743 368.977 427.58 364.43 429.08C364.272 429.131 364.129 429.221 364.015 429.342C363.901 429.463 363.82 429.61 363.779 429.771C363.738 429.932 363.739 430.101 363.781 430.262C363.823 430.422 363.905 430.57 364.02 430.69L373.9 441.37C374.01 441.493 374.083 441.646 374.109 441.809C374.136 441.972 374.115 442.14 374.049 442.291C373.984 442.442 373.877 442.57 373.74 442.66C373.604 442.751 373.444 442.799 373.28 442.8L367.53 442.79C367.056 442.789 366.588 442.691 366.155 442.502C365.721 442.313 365.332 442.036 365.01 441.69L355.1 430.99C354.916 430.788 354.691 430.627 354.44 430.517C354.188 430.407 353.916 430.35 353.64 430.35L345.8 430.34ZM344.78 414.75L344.76 424.43C344.76 424.608 344.831 424.778 344.956 424.904C345.082 425.029 345.252 425.1 345.43 425.1L355.83 425.12C358.165 425.124 360.406 424.588 362.06 423.63C363.714 422.672 364.646 421.37 364.65 420.01V419.25C364.652 418.576 364.426 417.908 363.985 417.284C363.544 416.661 362.896 416.094 362.079 415.615C361.262 415.137 360.291 414.757 359.222 414.497C358.153 414.237 357.007 414.102 355.85 414.1L345.45 414.08C345.272 414.08 345.102 414.151 344.976 414.276C344.851 414.402 344.78 414.572 344.78 414.75Z" fill="#214230"/>
<path d="M522.71 413.83H501.17C501.057 413.83 500.945 413.852 500.841 413.895C500.737 413.939 500.642 414.002 500.562 414.082C500.482 414.162 500.419 414.257 500.375 414.361C500.332 414.465 500.31 414.577 500.31 414.69V422.29C500.31 422.403 500.332 422.515 500.375 422.619C500.419 422.723 500.482 422.818 500.562 422.898C500.642 422.978 500.737 423.041 500.841 423.085C500.945 423.128 501.057 423.15 501.17 423.15H520.11C520.223 423.15 520.335 423.172 520.439 423.215C520.543 423.259 520.638 423.322 520.718 423.402C520.798 423.482 520.861 423.577 520.905 423.681C520.948 423.785 520.97 423.897 520.97 424.01V427.14C520.97 427.253 520.948 427.365 520.905 427.469C520.861 427.573 520.798 427.668 520.718 427.748C520.638 427.828 520.543 427.891 520.439 427.935C520.335 427.978 520.223 428 520.11 428H501.2C500.972 428 500.753 428.091 500.592 428.252C500.431 428.413 500.34 428.632 500.34 428.86V437.06C500.34 437.288 500.431 437.507 500.592 437.668C500.753 437.829 500.972 437.92 501.2 437.92H523.4C523.628 437.92 523.847 438.011 524.008 438.172C524.169 438.333 524.26 438.552 524.26 438.78V442.02C524.26 442.248 524.169 442.467 524.008 442.628C523.847 442.789 523.628 442.88 523.4 442.88H493.43C493.317 442.88 493.205 442.858 493.101 442.815C492.997 442.771 492.902 442.708 492.822 442.628C492.742 442.548 492.679 442.453 492.635 442.349C492.592 442.245 492.57 442.133 492.57 442.02V409.68C492.57 409.567 492.592 409.455 492.635 409.351C492.679 409.247 492.742 409.152 492.822 409.072C492.902 408.992 492.997 408.929 493.101 408.885C493.205 408.842 493.317 408.82 493.43 408.82H522.71C522.938 408.82 523.157 408.911 523.318 409.072C523.479 409.233 523.57 409.452 523.57 409.68V412.97C523.57 413.198 523.479 413.417 523.318 413.578C523.157 413.739 522.938 413.83 522.71 413.83Z" fill="#214230"/>
<path d="M630.48 408.93C636.22 408.817 642.17 408.793 648.33 408.86C648.632 408.865 648.919 408.988 649.13 409.201C649.342 409.414 649.46 409.701 649.46 410V412.87C649.46 413.183 649.336 413.483 649.114 413.704C648.893 413.926 648.593 414.05 648.28 414.05H635.26C635.066 414.05 634.881 414.127 634.744 414.264C634.607 414.401 634.53 414.586 634.53 414.78V442.4C634.53 442.547 634.474 442.688 634.373 442.792C634.272 442.897 634.134 442.957 633.99 442.96C633.617 442.967 632.5 442.977 630.64 442.99C628.787 442.997 627.673 442.997 627.3 442.99C627.156 442.99 627.017 442.932 626.915 442.83C626.812 442.727 626.753 442.587 626.75 442.44L626.48 414.82C626.479 414.724 626.459 414.629 626.421 414.541C626.383 414.453 626.328 414.374 626.259 414.307C626.19 414.24 626.109 414.187 626.02 414.152C625.931 414.116 625.836 414.099 625.74 414.1L612.72 414.23C612.565 414.231 612.411 414.202 612.268 414.144C612.124 414.086 611.993 414 611.883 413.891C611.772 413.783 611.684 413.653 611.624 413.511C611.563 413.368 611.531 413.215 611.53 413.06L611.5 410.19C611.497 410.04 611.525 409.892 611.58 409.752C611.635 409.613 611.718 409.486 611.823 409.378C611.928 409.27 612.053 409.184 612.191 409.124C612.33 409.065 612.479 409.033 612.63 409.03C618.79 408.91 624.74 408.877 630.48 408.93Z" fill="#214230"/>
<path d="M684.29 408.93C685.61 408.937 686.483 408.943 686.91 408.95C687.339 408.956 687.759 409.073 688.129 409.29C688.499 409.508 688.806 409.818 689.02 410.19L707.11 441.52C707.194 441.667 707.238 441.834 707.237 442.004C707.236 442.173 707.191 442.34 707.106 442.486C707.021 442.633 706.899 442.755 706.753 442.84C706.606 442.925 706.44 442.969 706.27 442.97H700.88C700.454 442.97 700.036 442.857 699.667 442.643C699.299 442.428 698.993 442.12 698.78 441.75L695.16 435.49C695.011 435.23 694.795 435.014 694.535 434.864C694.275 434.715 693.98 434.638 693.68 434.64C690.513 434.667 687.373 434.677 684.26 434.67C681.14 434.67 677.997 434.653 674.83 434.62C674.53 434.618 674.235 434.695 673.975 434.844C673.715 434.994 673.499 435.21 673.35 435.47L669.72 441.72C669.505 442.09 669.197 442.397 668.827 442.609C668.456 442.822 668.036 442.932 667.61 442.93L662.22 442.92C662.051 442.918 661.886 442.872 661.741 442.786C661.595 442.7 661.475 442.578 661.391 442.432C661.307 442.286 661.263 442.12 661.263 441.951C661.263 441.782 661.307 441.617 661.39 441.47L679.55 410.18C679.764 409.808 680.071 409.498 680.441 409.28C680.811 409.063 681.231 408.946 681.66 408.94C682.087 408.933 682.963 408.93 684.29 408.93ZM677.06 428.78C677.033 428.833 677.019 428.893 677.021 428.953C677.024 429.012 677.041 429.071 677.072 429.122C677.103 429.173 677.147 429.215 677.199 429.245C677.251 429.274 677.31 429.29 677.37 429.29L690.68 429.45C690.739 429.451 690.798 429.436 690.85 429.408C690.902 429.38 690.947 429.339 690.979 429.289C691.011 429.239 691.029 429.181 691.033 429.122C691.037 429.063 691.025 429.004 691 428.95L684.5 415.48C684.47 415.423 684.426 415.376 684.371 415.343C684.316 415.31 684.254 415.292 684.19 415.292C684.126 415.292 684.063 415.31 684.009 415.343C683.954 415.376 683.91 415.423 683.88 415.48L677.06 428.78Z" fill="#214230"/>
<path d="M760.71 442.91H730.43C730.221 442.91 730.019 442.827 729.871 442.679C729.723 442.53 729.64 442.33 729.64 442.12V409.81C729.64 409.6 729.723 409.4 729.871 409.251C730.019 409.103 730.221 409.02 730.43 409.02H736.98C737.19 409.02 737.39 409.103 737.539 409.251C737.687 409.4 737.77 409.6 737.77 409.81V436.97C737.77 437.179 737.853 437.38 738.001 437.529C738.149 437.677 738.351 437.76 738.56 437.76H760.71C760.919 437.76 761.12 437.843 761.269 437.991C761.417 438.14 761.5 438.34 761.5 438.55V442.12C761.5 442.33 761.417 442.53 761.269 442.679C761.12 442.827 760.919 442.91 760.71 442.91Z" fill="#214230"/>
</g>
<defs>
<clipPath id="clip0_22_19">
<rect width="973" height="443" fill="white"/>
</clipPath>
</defs>
</svg>
