<svg width="17" height="12" viewBox="0 0 17 12" fill="none" xmlns="http://www.w3.org/2000/svg">
<path d="M12.4714 11.5714H0.514286C0.257143 11.5714 0 11.3143 0 11.0571C0 10.8 0.257143 10.5429 0.514286 10.5429H12.4714C12.7286 10.5429 12.9857 10.8 12.9857 11.0571C12.9857 11.3143 12.7286 11.5714 12.4714 11.5714ZM13.2429 8.61429C12.9857 8.61429 12.7286 8.35714 12.7286 8.1V1.92857L11.4429 3.21429C11.1857 3.47143 10.8 3.47143 10.5429 3.21429C10.4143 2.95714 10.4143 2.57143 10.5429 2.44286L12.8571 0.128571L12.9857 0H13.3714C13.5 0.128571 13.6286 0.128571 13.6286 0.128571L15.9429 2.44286C16.2 2.7 16.2 2.95714 15.9429 3.21429C15.6857 3.47143 15.4286 3.47143 15.1714 3.21429L13.8857 1.92857V8.1C13.7571 8.35714 13.5 8.61429 13.2429 8.61429ZM9.51429 8.61429H0.514286C0.257143 8.61429 0 8.35714 0 8.1C0 7.84286 0.257143 7.58571 0.514286 7.58571H9.51429C9.77143 7.58571 10.0286 7.84286 10.0286 8.1C10.0286 8.35714 9.77143 8.61429 9.51429 8.61429ZM6.42857 5.65714H0.514286C0.257143 5.65714 0 5.4 0 5.14286C0 4.88571 0.257143 4.62857 0.514286 4.62857H6.55714C6.81429 4.62857 7.07143 4.88571 7.07143 5.14286C7.07143 5.4 6.81429 5.65714 6.42857 5.65714ZM3.47143 2.57143H0.514286C0.257143 2.57143 0 2.31429 0 2.05714C0 1.8 0.257143 1.54286 0.514286 1.54286H3.47143C3.72857 1.54286 3.98571 1.8 3.98571 2.05714C3.98571 2.31429 3.72857 2.57143 3.47143 2.57143Z" fill="black"/>
</svg>
