<svg width="17" height="12" viewBox="0 0 17 12" fill="none" xmlns="http://www.w3.org/2000/svg">
<path d="M12.4714 -1.72853e-05H0.514286C0.257143 -1.72853e-05 0 0.257125 0 0.514268C0 0.771411 0.257143 1.02855 0.514286 1.02855H12.4714C12.7286 1.02855 12.9857 0.771411 12.9857 0.514268C12.9857 0.257125 12.7286 -1.72853e-05 12.4714 -1.72853e-05ZM13.2429 2.95713C12.9857 2.95713 12.7286 3.21427 12.7286 3.47141V9.64284L11.4429 8.35713C11.1857 8.09998 10.8 8.09998 10.5429 8.35713C10.4143 8.61427 10.4143 8.99998 10.5429 9.12855L12.8571 11.4428L12.9857 11.5714H13.3714C13.5 11.4428 13.6286 11.4428 13.6286 11.4428L15.9429 9.12855C16.2 8.87141 16.2 8.61427 15.9429 8.35713C15.6857 8.09998 15.4286 8.09998 15.1714 8.35713L13.8857 9.64284V3.47141C13.7571 3.21427 13.5 2.95713 13.2429 2.95713ZM9.51429 2.95713H0.514286C0.257143 2.95713 0 3.21427 0 3.47141C0 3.72855 0.257143 3.9857 0.514286 3.9857H9.51429C9.77143 3.9857 10.0286 3.72855 10.0286 3.47141C10.0286 3.21427 9.77143 2.95713 9.51429 2.95713ZM6.42857 5.91427H0.514286C0.257143 5.91427 0 6.17141 0 6.42855C0 6.6857 0.257143 6.94284 0.514286 6.94284H6.55714C6.81429 6.94284 7.07143 6.6857 7.07143 6.42855C7.07143 6.17141 6.81429 5.91427 6.42857 5.91427ZM3.47143 8.99998H0.514286C0.257143 8.99998 0 9.25713 0 9.51427C0 9.77141 0.257143 10.0286 0.514286 10.0286H3.47143C3.72857 10.0286 3.98571 9.77141 3.98571 9.51427C3.98571 9.25713 3.72857 8.99998 3.47143 8.99998Z" fill="black"/>
</svg>
