<svg width="26" height="27" viewBox="0 0 26 27" fill="none" xmlns="http://www.w3.org/2000/svg">
<path d="M13 26.5C20.1797 26.5 26 20.6797 26 13.5C26 6.3203 20.1797 0.5 13 0.5C5.8203 0.5 0 6.3203 0 13.5C0 20.6797 5.8203 26.5 13 26.5Z" fill="url(#paint0_linear_473_313)"/>
<path d="M8.7998 14.4503L10.3421 18.7193C10.3421 18.7193 10.535 19.1187 10.7415 19.1187C10.9479 19.1187 14.0191 15.9237 14.0191 15.9237L17.4343 9.32733L8.85484 13.3483L8.7998 14.4503Z" fill="#747474"/>
<path d="M10.8442 15.5451L10.5482 18.6917C10.5482 18.6917 10.4242 19.6559 11.3882 18.6917C12.3521 17.7276 13.2748 16.9841 13.2748 16.9841" fill="#404242"/>
<path d="M8.82748 14.6027L5.65483 13.5689C5.65483 13.5689 5.27567 13.4151 5.39776 13.0663C5.42289 12.9943 5.47359 12.9331 5.62526 12.8279C6.32823 12.3379 18.6367 7.91394 18.6367 7.91394C18.6367 7.91394 18.9843 7.79683 19.1892 7.87472C19.2399 7.89042 19.2856 7.9193 19.3215 7.95842C19.3573 7.99754 19.3822 8.04548 19.3934 8.09735C19.4156 8.18896 19.4249 8.28322 19.421 8.37739C19.42 8.45886 19.4101 8.53437 19.4027 8.65277C19.3277 9.86232 17.0843 18.8895 17.0843 18.8895C17.0843 18.8895 16.9501 19.4178 16.4692 19.4358C16.351 19.4397 16.2333 19.4196 16.123 19.377C16.0127 19.3343 15.9122 19.2699 15.8273 19.1875C14.8836 18.3758 11.6219 16.1838 10.9012 15.7017C10.8849 15.6906 10.8713 15.6762 10.861 15.6594C10.8508 15.6425 10.8444 15.6237 10.842 15.6042C10.832 15.5534 10.8872 15.4905 10.8872 15.4905C10.8872 15.4905 16.5667 10.4421 16.7178 9.91215C16.7295 9.87109 16.6853 9.85083 16.626 9.86882C16.2487 10.0076 9.70953 14.1371 8.98782 14.5929C8.93587 14.6086 8.88096 14.612 8.82748 14.6027Z" fill="black"/>
<defs>
<linearGradient id="paint0_linear_473_313" x1="13" y1="26.5" x2="13" y2="0.5" gradientUnits="userSpaceOnUse">
<stop stop-color="white"/>
<stop offset="1" stop-color="white"/>
</linearGradient>
</defs>
</svg>
