<svg width="383" height="174" viewBox="0 0 383 174" fill="none" xmlns="http://www.w3.org/2000/svg">
<path d="M302.637 46.0727C304.592 45.9424 306.076 44.3063 305.951 42.4184C305.826 40.5305 304.14 39.1057 302.184 39.236C300.229 39.3664 298.745 41.0025 298.87 42.8904C298.995 44.7783 300.681 46.2031 302.637 46.0727Z" fill="black"/>
<path d="M187.496 46.1333C189.463 46.054 190.996 44.4518 190.92 42.5547C190.844 40.6575 189.188 39.1839 187.221 39.2632C185.254 39.3425 183.721 40.9447 183.797 42.8418C183.873 44.7389 185.529 46.2125 187.496 46.1333Z" fill="black"/>
<path d="M264.645 68.8756C264.645 68.8438 264.635 68.8127 264.616 68.7866C264.598 68.7605 264.572 68.7407 264.543 68.7298C264.513 68.7189 264.482 68.7175 264.452 68.7258C264.422 68.7341 264.395 68.7517 264.376 68.7761C262.171 71.442 259.459 72.6172 256.24 72.3015C251.815 71.8678 248.687 69.1343 247.327 65.0916C244.782 57.5436 248.283 47.4172 257.612 47.6479C259.465 47.693 261.185 48.2129 262.774 49.2077C263.515 49.6732 263.805 50.1348 264.36 50.7475C264.372 50.7613 264.389 50.7709 264.407 50.7751C264.425 50.7793 264.444 50.7778 264.461 50.7709C264.478 50.764 264.493 50.7519 264.503 50.7364C264.514 50.7208 264.519 50.7025 264.519 50.6839V39.7975C264.519 39.7215 264.548 39.6486 264.601 39.5949C264.654 39.5412 264.725 39.511 264.8 39.511H270.176C270.232 39.511 270.286 39.5336 270.325 39.5739C270.364 39.6142 270.386 39.6689 270.386 39.7259V71.7763C270.386 71.8322 270.364 71.8858 270.325 71.9254C270.286 71.9649 270.232 71.9872 270.176 71.9872H264.967C264.881 71.9872 264.8 71.9532 264.739 71.8928C264.679 71.8323 264.645 71.7503 264.645 71.6649V68.8756ZM252.767 60.0662C252.878 63.7507 254.805 67.1846 258.932 67.0612C263.059 66.9339 264.78 63.3926 264.669 59.7081C264.558 56.0236 262.631 52.5898 258.504 52.7171C254.376 52.8405 252.656 56.3817 252.767 60.0662Z" fill="black"/>
<path d="M155.097 39.8652C162.725 39.8573 166.697 39.8573 167.011 39.8652C167.059 39.8673 167.105 39.8883 167.138 39.9239C167.171 39.9595 167.19 40.0069 167.19 40.0562V45.2567C167.19 45.3168 167.166 45.3745 167.123 45.4171C167.081 45.4596 167.023 45.4835 166.964 45.4835H158.621C158.584 45.4835 158.547 45.4986 158.521 45.5254C158.494 45.5523 158.479 45.5887 158.479 45.6267V71.8082C158.479 71.8494 158.462 71.8888 158.432 71.9179C158.403 71.947 158.362 71.9634 158.32 71.9634C158.204 71.9634 157.14 71.9647 155.128 71.9674C153.117 71.97 152.052 71.9713 151.933 71.9713C151.891 71.9703 151.852 71.9535 151.823 71.9245C151.794 71.8955 151.778 71.8566 151.778 71.8162L151.723 45.6347C151.723 45.5967 151.708 45.5603 151.681 45.5334C151.654 45.5065 151.618 45.4915 151.58 45.4915L143.238 45.5074C143.178 45.5074 143.12 45.4835 143.078 45.4409C143.036 45.3984 143.012 45.3407 143.012 45.2806L143 40.0801C143.001 40.0315 143.02 39.9851 143.053 39.9503C143.086 39.9156 143.131 39.8951 143.178 39.8931C143.496 39.8825 147.468 39.8732 155.097 39.8652Z" fill="black"/>
<path d="M365.967 51.8498C366.075 51.6641 366.374 51.1787 366.863 50.3935C368.366 47.9743 370.816 47.5446 373.441 47.5645C373.549 47.5655 373.653 47.6096 373.73 47.6871C373.806 47.7646 373.849 47.8692 373.849 47.9783V53.0992C373.849 53.1325 373.842 53.1654 373.83 53.1961C373.817 53.2267 373.798 53.2545 373.775 53.2779C373.751 53.3012 373.723 53.3196 373.692 53.332C373.661 53.3443 373.628 53.3504 373.595 53.3499C371.268 53.33 369.071 53.513 367.478 55.4866C366.423 56.7943 365.869 58.5159 365.816 60.6512C365.803 61.1526 365.824 64.8517 365.88 71.7485C365.88 71.7807 365.874 71.8127 365.862 71.8426C365.851 71.8725 365.833 71.8998 365.81 71.9227C365.788 71.9457 365.761 71.9639 365.731 71.9764C365.702 71.9888 365.67 71.9952 365.638 71.9952H360.083C360.036 71.9952 359.99 71.9764 359.957 71.9428C359.924 71.9092 359.905 71.8637 359.905 71.8162V48.4836C359.905 48.4055 359.936 48.3306 359.991 48.2754C360.046 48.2202 360.12 48.1892 360.198 48.1892H365.555C365.629 48.1892 365.701 48.2189 365.754 48.2719C365.806 48.3249 365.836 48.3968 365.836 48.4717V51.814C365.837 51.8291 365.842 51.8435 365.852 51.8553C365.861 51.867 365.874 51.8755 365.889 51.8795C365.903 51.8834 365.919 51.8827 365.933 51.8774C365.947 51.8721 365.959 51.8624 365.967 51.8498Z" fill="black"/>
<path d="M173.517 51.5036C173.516 51.523 173.522 51.5421 173.534 51.5577C173.545 51.5733 173.562 51.5844 173.58 51.5891C173.599 51.5938 173.619 51.5918 173.636 51.5835C173.654 51.5751 173.668 51.561 173.676 51.5434C175.399 48.3841 178 47.1228 181.479 47.7594C181.538 47.7706 181.591 47.8021 181.63 47.8486C181.668 47.8951 181.689 47.9537 181.689 48.0141V53.3896C181.689 53.4192 181.683 53.4485 181.671 53.4757C181.66 53.5028 181.642 53.5273 181.621 53.5475C181.599 53.5676 181.574 53.5831 181.546 53.5929C181.518 53.6027 181.488 53.6067 181.459 53.6045C181.023 53.5726 180.765 53.3061 180.285 53.3339C175.615 53.6244 173.739 55.8287 173.716 60.4284C173.692 64.7283 173.701 68.4924 173.743 71.7206C173.744 71.7539 173.738 71.7869 173.726 71.8178C173.713 71.8486 173.695 71.8768 173.672 71.9005C173.648 71.9242 173.621 71.943 173.59 71.9558C173.56 71.9687 173.527 71.9753 173.494 71.9753H167.994C167.938 71.9753 167.883 71.9526 167.843 71.9123C167.803 71.872 167.78 71.8174 167.78 71.7604V48.3921C167.78 48.3372 167.802 48.2846 167.841 48.2458C167.879 48.2069 167.932 48.1851 167.986 48.1851H173.291C173.321 48.1851 173.35 48.1909 173.378 48.2021C173.405 48.2133 173.43 48.2297 173.451 48.2504C173.472 48.2711 173.489 48.2957 173.5 48.3227C173.512 48.3497 173.517 48.3787 173.517 48.408V51.5036Z" fill="black"/>
<path d="M345.667 72.2857C329.72 74.2154 326.814 49.6415 342.713 47.7157C358.612 45.7898 361.618 70.3519 345.667 72.2857ZM343.974 52.6743C343.19 52.7032 342.42 52.9198 341.709 53.3117C340.998 53.7036 340.359 54.2633 339.83 54.9586C339.3 55.654 338.889 56.4715 338.621 57.3644C338.354 58.2573 338.234 59.2081 338.269 60.1627C338.339 62.0904 339.036 63.9161 340.205 65.238C341.375 66.5599 342.922 67.2699 344.505 67.2116C345.289 67.1827 346.059 66.9661 346.77 66.5742C347.481 66.1823 348.12 65.6227 348.65 64.9273C349.179 64.2319 349.59 63.4145 349.858 62.5216C350.126 61.6286 350.245 60.6778 350.211 59.7232C350.14 57.7955 349.444 55.9698 348.274 54.6479C347.104 53.326 345.558 52.6161 343.974 52.6743Z" fill="black"/>
<path d="M201.022 69.1105C201.012 69.1003 200.999 69.0932 200.985 69.0901C200.972 69.087 200.957 69.0881 200.944 69.0932C200.931 69.0983 200.92 69.1072 200.912 69.1188C200.903 69.1303 200.899 69.1441 200.899 69.1582V80.2078C200.899 80.2742 200.872 80.338 200.824 80.385C200.777 80.432 200.712 80.4584 200.645 80.4584H195.213C195.149 80.4584 195.087 80.4329 195.042 80.3873C194.997 80.3418 194.971 80.2801 194.971 80.2157V48.3682C194.971 48.3207 194.99 48.2752 195.023 48.2416C195.057 48.208 195.102 48.1892 195.15 48.1892H200.696C200.746 48.1892 200.793 48.2089 200.828 48.2439C200.863 48.279 200.883 48.3266 200.883 48.3762V51.5315C200.884 51.5529 200.891 51.5734 200.905 51.5902C200.918 51.6071 200.936 51.6194 200.956 51.6255C200.977 51.6316 200.999 51.6312 201.019 51.6244C201.039 51.6175 201.057 51.6045 201.069 51.5872C202.859 48.8842 205.306 47.5738 208.412 47.656C216.829 47.8828 219.66 55.22 218.764 62.5373C218.066 68.1953 214.308 72.0947 208.44 72.2618C205.382 72.3493 202.909 71.2989 201.022 69.1105ZM207.166 52.7443C205.564 52.6965 204.004 53.4113 202.83 54.7313C201.657 56.0513 200.966 57.8684 200.909 59.7829C200.881 60.7308 201.01 61.6742 201.288 62.559C201.565 63.4439 201.987 64.2529 202.528 64.9399C203.07 65.6269 203.72 66.1785 204.443 66.5631C205.165 66.9477 205.946 67.1578 206.739 67.1815C208.342 67.2292 209.902 66.5145 211.076 65.1945C212.249 63.8745 212.94 62.0574 212.997 60.1429C213.025 59.1949 212.896 58.2516 212.618 57.3667C212.341 56.4819 211.919 55.6729 211.377 54.9858C210.836 54.2988 210.186 53.7472 209.463 53.3626C208.74 52.978 207.96 52.7679 207.166 52.7443Z" fill="black"/>
<path d="M237.478 68.5573C237.478 68.5264 237.468 68.4965 237.449 68.4717C237.431 68.447 237.405 68.4287 237.375 68.4194C237.346 68.4102 237.315 68.4105 237.285 68.4202C237.256 68.43 237.231 68.4487 237.213 68.4738C235.783 70.5959 233.886 71.8333 231.523 72.1861C228.967 72.5681 226.744 72.1013 224.854 70.7856C221.571 68.5016 220.727 63.3608 223.55 60.1737C225.052 58.4707 226.797 58.0887 229.251 57.6869C231.744 57.2784 234.238 57.2226 236.733 57.5197C236.762 57.5236 236.792 57.5215 236.821 57.5135C236.85 57.5056 236.876 57.4919 236.9 57.4733C236.923 57.4548 236.942 57.4317 236.957 57.4055C236.971 57.3793 236.98 57.3505 236.983 57.3208C237.161 55.6854 236.895 53.8034 235.377 52.9877C233.352 51.9028 231.415 52.0328 229.564 53.3777C228.906 53.8551 228.573 54.5355 228.244 55.2796C228.187 55.4065 228.095 55.5143 227.978 55.5898C227.862 55.6654 227.725 55.7055 227.586 55.7053H223.019C222.948 55.7056 222.878 55.6905 222.814 55.6611C222.75 55.6317 222.693 55.5886 222.647 55.5349C222.601 55.4812 222.567 55.4181 222.548 55.3499C222.528 55.2818 222.524 55.2103 222.535 55.1403C222.955 52.4479 224.349 50.4412 226.718 49.1202C230.254 47.1466 235.539 47.1426 239.052 49.1321C241.935 50.7595 242.954 53.7756 242.942 56.9508C242.918 62.7335 242.931 67.6767 242.981 71.7803C242.982 71.8068 242.977 71.833 242.968 71.8576C242.958 71.8822 242.943 71.9046 242.925 71.9235C242.906 71.9424 242.884 71.9575 242.86 71.9677C242.836 71.9779 242.81 71.9832 242.783 71.9832H237.974C237.842 71.9832 237.716 71.9304 237.623 71.8364C237.531 71.7424 237.478 71.6148 237.478 71.4819V68.5573ZM236.705 61.26C233.819 61.2241 228.597 60.9297 227.868 64.0174C227.491 65.6129 228.538 67.0772 230.167 67.2682C231.579 67.4353 232.6 67.4326 233.232 67.2602C236.087 66.4777 237.329 64.5545 236.959 61.4907C236.952 61.4283 236.923 61.3705 236.876 61.3281C236.829 61.2856 236.769 61.2614 236.705 61.26Z" fill="black"/>
<path d="M309.179 64.1328H314.039C314.15 64.1329 314.258 64.1691 314.346 64.2359C314.434 64.3028 314.498 64.3965 314.527 64.5028C314.91 65.861 315.767 66.7841 317.096 67.2722C318.952 67.9526 321.914 67.9884 323.23 66.2098C324.713 64.2124 322.703 63.15 320.986 62.776C318.147 62.1606 316.183 61.7123 315.094 61.4311C312.315 60.7149 309.837 58.8965 309.599 55.8009C309.305 52.0169 311.962 49.0009 315.495 48.1016C318.259 47.3987 320.957 47.4982 323.587 48.4C326.634 49.4452 328.462 51.6137 329.07 54.9056C329.081 54.9647 329.079 55.0256 329.064 55.0838C329.049 55.142 329.022 55.1962 328.983 55.2426C328.945 55.2889 328.897 55.3262 328.843 55.3519C328.789 55.3775 328.73 55.3909 328.67 55.3911H323.813C323.746 55.3911 323.68 55.374 323.621 55.3413C323.562 55.3087 323.512 55.2614 323.476 55.204C323.063 54.5475 322.742 53.5926 322.096 53.0872C320.925 52.1668 319.469 51.9188 317.727 52.3432C315.189 52.9639 314.269 56.159 317.441 56.8235C322.615 57.9058 331.29 58.4986 329.173 66.6634C328.547 69.0707 326.108 70.9846 323.908 71.665C321.529 72.3997 319.023 72.539 316.391 72.0827C312.064 71.332 309.566 68.7921 308.897 64.4631C308.891 64.4223 308.893 64.3806 308.905 64.3409C308.916 64.3012 308.935 64.2644 308.962 64.2331C308.989 64.2017 309.022 64.1765 309.059 64.1592C309.097 64.1419 309.137 64.1329 309.179 64.1328Z" fill="black"/>
<path d="M190.063 48.1852H184.393C184.319 48.1852 184.258 48.2458 184.258 48.3205V71.836C184.258 71.9108 184.319 71.9713 184.393 71.9713H190.063C190.137 71.9713 190.198 71.9108 190.198 71.836V48.3205C190.198 48.2458 190.137 48.1852 190.063 48.1852Z" fill="black"/>
<path d="M285.068 65.1554C285.116 65.1554 285.146 65.1302 285.159 65.0798C286.788 59.8435 288.526 54.326 290.373 48.5274C290.409 48.4142 290.479 48.3153 290.574 48.2452C290.669 48.1751 290.783 48.1373 290.901 48.1375H296.693C296.733 48.1379 296.771 48.1476 296.806 48.1658C296.841 48.184 296.871 48.2102 296.893 48.2422C296.916 48.2742 296.93 48.311 296.936 48.3495C296.941 48.3881 296.936 48.4272 296.923 48.4637L288.716 71.7605C288.698 71.8127 288.665 71.8586 288.621 71.8925C288.578 71.9264 288.525 71.9469 288.47 71.9515C288.19 71.9806 287.067 71.9992 285.1 72.0072C283.133 72.0178 282.01 72.0098 281.73 71.9833C281.675 71.979 281.623 71.9591 281.58 71.926C281.536 71.8928 281.503 71.8478 281.484 71.7963L273.055 48.5791C273.041 48.5427 273.036 48.5035 273.04 48.4647C273.045 48.4259 273.059 48.3888 273.081 48.3564C273.103 48.324 273.133 48.2973 273.168 48.2786C273.203 48.2599 273.241 48.2497 273.281 48.2489L279.073 48.1932C279.191 48.1919 279.306 48.2287 279.402 48.2981C279.497 48.3676 279.568 48.466 279.605 48.5791C281.508 54.3592 283.297 59.8608 284.973 65.0838C284.989 65.1315 285.021 65.1554 285.068 65.1554Z" fill="black"/>
<path d="M304.96 48.1931H299.481C299.358 48.1931 299.258 48.2929 299.258 48.4159V71.7883C299.258 71.9113 299.358 72.0111 299.481 72.0111H304.96C305.083 72.0111 305.182 71.9113 305.182 71.7883V48.4159C305.182 48.2929 305.083 48.1931 304.96 48.1931Z" fill="black"/>
<path d="M142.598 126.854C143.197 125.011 145.803 125.011 146.402 126.854L150.001 137.929C150.268 138.753 151.036 139.311 151.903 139.311H163.548C165.485 139.311 166.291 141.79 164.723 142.929L155.302 149.774C154.601 150.283 154.308 151.186 154.576 152.01L158.174 163.085C158.773 164.927 156.664 166.46 155.097 165.321L145.676 158.476C144.975 157.967 144.025 157.967 143.324 158.476L133.903 165.321C132.336 166.46 130.227 164.927 130.826 163.085L134.424 152.01C134.692 151.186 134.399 150.283 133.698 149.774L124.277 142.929C122.709 141.79 123.515 139.311 125.452 139.311H137.097C137.964 139.311 138.732 138.753 138.999 137.929L142.598 126.854Z" fill="#00B67A"/>
<path d="M354.598 126.854C355.197 125.011 357.803 125.011 358.402 126.854L362.001 137.929C362.268 138.753 363.036 139.311 363.903 139.311H375.548C377.485 139.311 378.291 141.79 376.723 142.929L367.302 149.774C366.601 150.283 366.308 151.186 366.576 152.01L370.174 163.085C370.773 164.927 368.664 166.46 367.097 165.321L357.676 158.476C356.975 157.967 356.025 157.967 355.324 158.476L345.903 165.321C344.336 166.46 342.227 164.927 342.826 163.085L346.424 152.01C346.692 151.186 346.399 150.283 345.698 149.774L336.277 142.929C334.709 141.79 335.515 139.311 337.452 139.311H349.097C349.964 139.311 350.732 138.753 350.999 137.929L354.598 126.854Z" fill="#00B67A"/>
<path d="M301.598 126.854C302.197 125.011 304.803 125.011 305.402 126.854L309.001 137.929C309.268 138.753 310.036 139.311 310.903 139.311H322.548C324.485 139.311 325.291 141.79 323.723 142.929L314.302 149.774C313.601 150.283 313.308 151.186 313.576 152.01L317.174 163.085C317.773 164.927 315.664 166.46 314.097 165.321L304.676 158.476C303.975 157.967 303.025 157.967 302.324 158.476L292.903 165.321C291.336 166.46 289.227 164.927 289.826 163.085L293.424 152.01C293.692 151.186 293.399 150.283 292.698 149.774L283.277 142.929C281.709 141.79 282.515 139.311 284.452 139.311H296.097C296.964 139.311 297.732 138.753 297.999 137.929L301.598 126.854Z" fill="#00B67A"/>
<path d="M248.598 126.854C249.197 125.011 251.803 125.011 252.402 126.854L256.001 137.929C256.268 138.753 257.036 139.311 257.903 139.311H269.548C271.485 139.311 272.291 141.79 270.723 142.929L261.302 149.774C260.601 150.283 260.308 151.186 260.576 152.01L264.174 163.085C264.773 164.927 262.664 166.46 261.097 165.321L251.676 158.476C250.975 157.967 250.025 157.967 249.324 158.476L239.903 165.321C238.336 166.46 236.227 164.927 236.826 163.085L240.424 152.01C240.692 151.186 240.399 150.283 239.698 149.774L230.277 142.929C228.709 141.79 229.515 139.311 231.452 139.311H243.097C243.964 139.311 244.732 138.753 244.999 137.929L248.598 126.854Z" fill="#00B67A"/>
<path d="M195.598 126.854C196.197 125.011 198.803 125.011 199.402 126.854L203.001 137.929C203.268 138.753 204.036 139.311 204.903 139.311H216.548C218.485 139.311 219.291 141.79 217.723 142.929L208.302 149.774C207.601 150.283 207.308 151.186 207.576 152.01L211.174 163.085C211.773 164.927 209.664 166.46 208.097 165.321L198.676 158.476C197.975 157.967 197.025 157.967 196.324 158.476L186.903 165.321C185.336 166.46 183.227 164.927 183.826 163.085L187.424 152.01C187.692 151.186 187.399 150.283 186.698 149.774L177.277 142.929C175.709 141.79 176.515 139.311 178.452 139.311H190.097C190.964 139.311 191.732 138.753 191.999 137.929L195.598 126.854Z" fill="#00B67A"/>
<path d="M25.1573 157.247V151.798L38.8203 130.273H43.5185V137.815H40.7379L32.1246 151.446V151.702H51.5405V157.247H25.1573ZM40.8658 163V155.585L40.9936 153.172V130.273H47.4815V163H40.8658ZM59.5785 163.415C58.5238 163.415 57.6183 163.043 56.8619 162.297C56.1161 161.54 55.7433 160.635 55.7433 159.58C55.7433 158.536 56.1161 157.641 56.8619 156.896C57.6183 156.15 58.5238 155.777 59.5785 155.777C60.6012 155.777 61.4961 156.15 62.2631 156.896C63.0302 157.641 63.4137 158.536 63.4137 159.58C63.4137 160.283 63.2326 160.928 62.8704 161.514C62.5188 162.089 62.0554 162.553 61.4801 162.904C60.9048 163.245 60.271 163.415 59.5785 163.415ZM80.1808 163.447C78.4976 163.437 76.873 163.154 75.3069 162.6C73.7515 162.047 72.3559 161.146 71.1201 159.9C69.8843 158.653 68.9042 157.002 68.1798 154.946C67.466 152.89 67.1091 150.365 67.1091 147.371C67.1198 144.623 67.434 142.167 68.0519 140.005C68.6805 137.831 69.5754 135.988 70.7366 134.475C71.9085 132.963 73.3094 131.812 74.9394 131.024C76.5693 130.225 78.3964 129.825 80.4205 129.825C82.6045 129.825 84.5328 130.251 86.2053 131.104C87.8779 131.945 89.2203 133.091 90.2323 134.539C91.2551 135.988 91.873 137.613 92.086 139.413H85.2625C84.9962 138.273 84.4369 137.379 83.5846 136.729C82.7323 136.079 81.6776 135.754 80.4205 135.754C78.2899 135.754 76.6705 136.681 75.5626 138.534C74.4653 140.388 73.906 142.908 73.8847 146.093H74.1084C74.5985 145.124 75.259 144.298 76.0899 143.616C76.9316 142.924 77.885 142.396 78.9504 142.034C80.0264 141.661 81.161 141.475 82.3541 141.475C84.2931 141.475 86.0189 141.933 87.5317 142.849C89.0445 143.755 90.2377 145.001 91.1112 146.588C91.9848 148.176 92.4216 149.992 92.4216 152.038C92.4216 154.254 91.9049 156.224 90.8715 157.95C89.8488 159.676 88.4159 161.029 86.5729 162.009C84.7405 162.979 82.6098 163.458 80.1808 163.447ZM80.1489 158.014C81.2142 158.014 82.1677 157.759 83.0093 157.247C83.8509 156.736 84.5115 156.043 84.9909 155.17C85.4703 154.296 85.71 153.316 85.71 152.229C85.71 151.143 85.4703 150.168 84.9909 149.305C84.5221 148.442 83.8722 147.755 83.0413 147.244C82.2103 146.732 81.2622 146.477 80.1968 146.477C79.3978 146.477 78.6574 146.626 77.9756 146.924C77.3044 147.222 76.7132 147.638 76.2018 148.17C75.7011 148.703 75.3069 149.321 75.0193 150.024C74.7316 150.717 74.5878 151.457 74.5878 152.245C74.5878 153.3 74.8275 154.264 75.3069 155.138C75.797 156.011 76.4575 156.709 77.2884 157.231C78.1301 157.753 79.0835 158.014 80.1489 158.014Z" fill="black"/>
<g clip-path="url(#clip0_171_214)">
<path d="M117.989 42.8028H72.9372L59.0213 0L45.0626 42.8028L0.0111084 42.7602L36.4963 69.2398L22.5361 112L59.0213 85.563L95.4622 112L81.5463 69.2398L117.989 42.8028Z" fill="#00B67A"/>
<path d="M84.6776 78.921L81.5464 69.2399L59.0214 85.563L84.6776 78.921Z" fill="#005128"/>
</g>
<defs>
<clipPath id="clip0_171_214">
<rect width="118" height="112" fill="white"/>
</clipPath>
</defs>
</svg>
