<svg width="29" height="28" viewBox="0 0 29 28" fill="none" xmlns="http://www.w3.org/2000/svg">
<g clip-path="url(#clip0_2417_1150)">
<path d="M28.1161 14.4684C27.9538 13.8555 27.5709 13.3105 27.0292 12.9215C26.4756 12.5087 25.8022 12.2536 25.0921 12.1877C22.7745 11.9788 19.2796 11.8762 14.6061 11.8762C9.93269 11.8762 6.44415 11.9788 4.13924 12.1877C3.42563 12.2503 2.74836 12.5057 2.19324 12.9215C1.63833 13.3391 1.27306 13.8548 1.09742 14.4684C0.771604 15.677 0.607422 17.4993 0.607422 19.9363C0.607422 22.4166 0.771604 24.2377 1.09869 25.4054C1.26288 26.0191 1.62433 26.5359 2.1856 26.9524C2.7456 27.3677 3.39088 27.608 4.12269 27.6722C6.44033 27.8903 9.93524 28 14.6087 28C19.2809 28 22.7771 27.8903 25.0934 27.6722C25.8006 27.6172 26.4727 27.3661 27.0203 26.9524C27.574 26.5359 27.9405 26.0203 28.1161 25.4054C28.4432 24.1968 28.6074 22.3746 28.6074 19.9363C28.6074 17.4573 28.4432 15.635 28.1161 14.4684ZM8.60015 16.0468H6.57779V24.9365H4.68906V16.0468H2.70488V14.5781H8.60015V16.0468ZM13.7012 24.9365H12.0187V24.093C11.3391 24.7288 10.6963 25.0473 10.0918 25.0473C9.51269 25.0473 9.14742 24.8536 8.99597 24.4686C8.89542 24.219 8.84451 23.8387 8.84451 23.3277V17.2181H10.5258V22.9054C10.5258 23.239 10.5321 23.421 10.5449 23.4525C10.5831 23.6707 10.7141 23.7803 10.942 23.7803C11.2818 23.7803 11.6407 23.5622 12.0187 23.1247V17.2181H13.7V24.9365H13.7012ZM20.1247 22.6254C20.1247 23.3849 20.0687 23.9063 19.9554 24.1875C19.7403 24.7591 19.2936 25.0473 18.614 25.0473C18.0094 25.0473 17.424 24.7603 16.8563 24.1875V24.9376H15.1751V14.5792H16.8563V17.9694C17.3985 17.4059 17.984 17.1248 18.614 17.1248C19.2936 17.1248 19.7403 17.4176 19.9554 17.9998C20.0687 18.2704 20.1247 18.7861 20.1247 19.5467V22.6254ZM26.51 21.3433H23.1283V22.7024C23.1283 23.421 23.4172 23.7803 23.9976 23.7803C24.4138 23.7803 24.6658 23.5937 24.7536 23.218C24.7791 23.1142 24.7918 22.7969 24.7918 22.2649H26.5112V22.4691C26.5112 22.9789 26.4985 23.281 26.4731 23.3755C26.4237 23.6837 26.2868 23.9746 26.076 24.219C25.6229 24.7708 24.942 25.0473 24.0345 25.0473C23.1665 25.0473 22.4856 24.7813 21.9943 24.2505C21.6291 23.8655 21.4471 23.2612 21.4471 22.4387V19.7345C21.4471 18.912 21.6227 18.3077 21.9752 17.9228C22.4665 17.3908 23.1411 17.126 23.9976 17.126C24.8414 17.126 25.5096 17.3908 26.0009 17.9228C26.342 18.3077 26.5112 18.912 26.5112 19.7345V21.3433H26.51ZM17.7052 18.3906C17.4151 18.3906 17.1325 18.5061 16.8551 18.7336V23.435C17.1325 23.6648 17.4151 23.7792 17.7052 23.7792C18.1965 23.7792 18.4421 23.4315 18.4421 22.7316V19.4359C18.4421 18.7394 18.1978 18.3906 17.7052 18.3906ZM23.9785 18.3906C23.4121 18.3906 23.1283 18.7441 23.1283 19.4522V20.1708H24.8287V19.4522C24.8287 18.7441 24.5449 18.3906 23.9785 18.3906ZM7.50433 6.23441V10.4681H9.39306V6.23441L11.6789 0H9.75197L8.46779 4.10883L7.12633 0.00116662H5.12306C5.4756 0.87613 5.88542 1.84909 6.35124 2.92355C6.94433 4.35965 7.32742 5.46327 7.50433 6.23441ZM14.2103 10.5777C15.0796 10.5777 15.7465 10.3129 16.2123 9.78093C16.5649 9.39711 16.7418 8.7823 16.7418 7.93884V5.20312C16.7418 4.36898 16.5649 3.76001 16.2123 3.37503C15.7465 2.84305 15.0783 2.57823 14.2103 2.57823C13.3665 2.57823 12.7047 2.84305 12.2261 3.37503C11.8736 3.76001 11.698 4.36898 11.698 5.20312V7.93767C11.698 8.7718 11.8736 9.38544 12.2261 9.77976C12.706 10.3129 13.3665 10.5777 14.2103 10.5777ZM13.3983 4.92196C13.3983 4.20449 13.6694 3.84517 14.2103 3.84517C14.7512 3.84517 15.0223 4.20449 15.0223 4.92196V8.20366C15.0223 8.93279 14.7512 9.29678 14.2103 9.29678C13.6694 9.29678 13.3983 8.93396 13.3983 8.20366V4.92196ZM19.4056 10.5777C20.0356 10.5777 20.6847 10.2557 21.3516 9.60943V10.4681H23.0711V2.67272H21.3516V8.62597C20.9736 9.07279 20.6147 9.29678 20.2749 9.29678C20.0483 9.29678 19.916 9.18245 19.8778 8.95263C19.8651 8.93279 19.8587 8.7508 19.8587 8.40548V2.67272H18.1392V8.82897C18.1392 9.36094 18.1901 9.74943 18.2907 10.0014C18.4549 10.3852 18.8265 10.5777 19.4056 10.5777Z" fill="currentColor"/>
</g>
<defs>
<clipPath id="clip0_2417_1150">
<rect width="28" height="28" fill="white" transform="translate(0.607422)"/>
</clipPath>
</defs>
</svg>
