<svg width="22" height="22" viewBox="0 0 22 22" fill="none" xmlns="http://www.w3.org/2000/svg">
<path d="M8.72571 4.44491H3.20734C2.62192 4.44491 2.06047 4.67747 1.64652 5.09143C1.23256 5.50539 1 6.06684 1 6.65226V18.7927C1 19.3781 1.23256 19.9395 1.64652 20.3535C2.06047 20.7674 2.62192 21 3.20734 21H15.3477C15.9332 21 16.4946 20.7674 16.9086 20.3535C17.3225 19.9395 17.5551 19.3781 17.5551 18.7927V13.2743M17.0032 1.68573C17.4423 1.24667 18.0378 1 18.6588 1C19.2797 1 19.8752 1.24667 20.3143 1.68573C20.7533 2.1248 21 2.72031 21 3.34124C21 3.96218 20.7533 4.55768 20.3143 4.99675L10.9331 14.378L6.51836 15.4816L7.62203 11.0669L17.0032 1.68573Z" stroke="black" stroke-width="2" stroke-linecap="round" stroke-linejoin="round"/>
</svg>
