<svg width="38" height="38" viewBox="0 0 38 38" fill="none" xmlns="http://www.w3.org/2000/svg">
<path d="M6.36758 0.493553C6.28594 0.523239 6.15977 0.575195 6.08926 0.608593C6.01876 0.645702 4.76446 1.87402 3.30235 3.33613C0.352154 6.28633 0.474615 6.1416 0.470904 6.64258C0.463482 7.1918 0.0738338 6.75762 5.21348 11.9047C10.3568 17.0555 9.98575 16.7215 10.5238 16.7141C10.9988 16.7104 11.0471 16.677 12.1047 15.6527C12.6168 15.1555 13.0473 14.7473 13.0621 14.7398C13.0732 14.7361 13.244 14.892 13.4369 15.0887L13.7895 15.4412L12.4275 16.7846C11.151 18.0426 11.0545 18.1465 10.9432 18.3877C10.8318 18.6252 10.8207 18.6809 10.8207 19C10.8207 19.308 10.8356 19.3822 10.9283 19.5938C11.0285 19.8127 11.1584 19.9574 12.3941 21.2006L13.7523 22.5625L13.3553 22.9596L12.9582 23.3566L12.5203 23.0561C11.2586 22.1951 9.99688 21.7053 8.42715 21.4604C7.77032 21.3602 6.42696 21.3676 5.73672 21.4789C5.117 21.5791 4.39336 21.7609 3.88126 21.9465C3.32462 22.1543 2.37461 22.633 1.90704 22.9447C1.12403 23.468 0.363287 24.1471 0.196295 24.4736C0.0627009 24.7408 0.0441463 25.1045 0.151763 25.4014C0.229693 25.6129 0.326177 25.7168 1.91075 27.3125C2.83106 28.2402 4.00001 29.4203 4.51212 29.9361L5.43614 30.8713L4.8795 31.4391C4.57149 31.7508 4.28575 32.0736 4.24122 32.1553C4.12989 32.3779 4.08165 32.6971 4.12247 32.9197C4.27461 33.7139 5.12071 34.1258 5.84805 33.7621C5.92969 33.7213 6.25254 33.4355 6.56426 33.1275L7.12833 32.5672L9.71856 35.1463C11.7744 37.1984 12.3422 37.7477 12.4906 37.8182C12.6391 37.8887 12.7356 37.9072 12.9916 37.9072C13.4295 37.9072 13.6299 37.807 14.0344 37.3766C15.4074 35.9145 16.2684 34.0887 16.5393 32.0625C16.6135 31.5021 16.6246 30.3518 16.5578 29.8174C16.4057 28.5854 16.0606 27.4572 15.5076 26.4219C15.3147 26.0545 14.9176 25.4273 14.7246 25.1861L14.6133 25.0414L15.0252 24.6295L15.4408 24.2139L16.8027 25.5758C18.4096 27.1789 18.365 27.1455 19.0033 27.1455C19.6119 27.1455 19.6527 27.1195 20.7104 26.0768C21.1891 25.6018 21.8051 25.0006 22.076 24.7334L22.5658 24.251L22.9295 24.6146L23.2895 24.9783L22.3766 25.8764C21.3041 26.9266 21.2856 26.9562 21.2856 27.4795C21.2856 27.7541 21.3004 27.8469 21.3746 27.999C21.4451 28.1475 22.3432 29.0641 26.0318 32.7564C31.1529 37.885 30.7707 37.5361 31.3236 37.5361C31.8654 37.5361 31.7133 37.6623 34.6895 34.6861C37.6656 31.71 37.5395 31.8621 37.5395 31.3203C37.5395 30.7674 37.8846 31.1496 32.7783 26.0434C27.6721 20.9371 28.0543 21.2822 27.5014 21.2822C27.0523 21.2822 26.9039 21.375 26.1691 22.0875C25.8315 22.4215 25.4158 22.826 25.2488 22.9893L24.9408 23.2824L24.7145 23.0635C24.592 22.941 24.4398 22.7777 24.3768 22.6998L24.2617 22.5588L26.3955 20.4176C28.5775 18.2207 28.8039 17.9721 29.1861 17.3078C30.4887 15.0516 30.2363 12.209 28.5553 10.2051C27.6721 9.15117 26.4104 8.39414 25.0522 8.11211C23.7756 7.84121 22.3654 8.01191 21.1742 8.57226C20.2131 9.02129 20.0164 9.18828 17.5857 11.6078L15.4445 13.7416L15.3035 13.6266C15.2256 13.5635 15.0623 13.4113 14.9398 13.2889L14.7209 13.0625L15.0141 12.7545C15.1773 12.5875 15.5818 12.1719 15.9158 11.8342C16.6283 11.0994 16.7211 10.951 16.7211 10.502C16.7211 9.94902 17.0662 10.3312 11.96 5.225C7.85567 1.11699 7.38438 0.660545 7.1877 0.571484C6.93165 0.456444 6.58653 0.423046 6.36758 0.493553ZM7.33243 3.9707L7.96329 4.60156L6.28223 6.28262L4.60489 7.95996L3.96661 7.31797L3.32462 6.67969L4.99454 5.00977C5.91114 4.09316 6.67188 3.33984 6.68301 3.33984C6.69415 3.33984 6.98731 3.62558 7.33243 3.9707ZM10.3012 6.93945L10.932 7.57031L9.25098 9.25137L7.57364 10.9287L6.93536 10.2867L6.29337 9.64844L7.96329 7.97851C8.87989 7.06191 9.64063 6.30859 9.65176 6.30859C9.6629 6.30859 9.95606 6.59433 10.3012 6.93945ZM13.2477 9.88594L13.8563 10.4982L13.667 10.7135C13.5631 10.8322 12.8135 11.593 12.0008 12.4057L10.5238 13.8789L9.89297 13.248L9.26211 12.6172L10.932 10.9473C11.8486 10.027 12.6094 9.27734 12.6205 9.27734C12.6316 9.27734 12.9137 9.55195 13.2477 9.88594ZM24.1986 10.4648C24.6402 10.5205 25.015 10.6281 25.4084 10.8137C25.8723 11.0326 26.1691 11.2404 26.4994 11.5744C27.7797 12.8658 27.9578 14.9439 26.9113 16.4469C26.7815 16.6361 25.5643 17.8793 22.8627 20.5771L19.0033 24.4365L16.2869 21.7164L13.5668 19L17.352 15.2111C19.6565 12.9029 21.2522 11.3369 21.4303 11.2033C22.2022 10.6207 23.2301 10.3461 24.1986 10.4648ZM27.0672 27.0602L25.3861 28.7412L24.7553 28.1104L24.1244 27.4795L25.8018 25.8021L27.4828 24.1211L28.1137 24.752L28.7445 25.3828L27.0672 27.0602ZM30.0359 30.0289L28.3549 31.71L27.724 31.0791C27.3789 30.734 27.0932 30.4334 27.0932 30.4111C27.0932 30.3926 27.8391 29.6281 28.752 28.7152L30.4145 27.0527L31.0639 27.7021L31.7133 28.3516L30.0359 30.0289ZM33.0047 32.9977L31.3236 34.6787L30.6928 34.0479C30.3477 33.7027 30.0619 33.4021 30.0619 33.3799C30.0619 33.3613 30.8078 32.5969 31.7207 31.684L33.3832 30.0215L34.0326 30.6709L34.682 31.3203L33.0047 32.9977Z" fill="white"/>
<path d="M0.911091 32.0959C0.569685 32.185 0.269099 32.4299 0.11324 32.749C0.0278882 32.9197 0.0204664 32.9754 0.0241773 33.3984C0.0390211 35.8514 2.15054 37.9629 4.60347 37.9777C5.03765 37.9814 5.07847 37.974 5.2566 37.8812C5.53863 37.7328 5.65367 37.6215 5.79468 37.3617C5.90972 37.1465 5.92086 37.1019 5.92086 36.8125C5.92086 36.523 5.90972 36.4785 5.79468 36.2633C5.5609 35.8365 5.28258 35.6769 4.67027 35.6213C3.97633 35.5619 3.51988 35.3578 3.06344 34.9014C2.63297 34.4709 2.44 34.0256 2.37691 33.3131C2.34722 32.9717 2.32496 32.8789 2.22476 32.6896C2.02437 32.3148 1.6941 32.107 1.26734 32.081C1.13375 32.0736 0.974177 32.0773 0.911091 32.0959Z" fill="white"/>
</svg>
