<svg width="27" height="26" viewBox="0 0 27 26" fill="none" xmlns="http://www.w3.org/2000/svg">
<g clip-path="url(#clip0_2417_804)">
<path d="M9.19658 21.0702C9.19047 21.075 9.18281 21.0756 9.17659 21.0802C8.51869 21.6254 7.73761 22.0232 6.88477 22.2395L7.86479 24.0363C7.97869 24.2451 8.19756 24.375 8.43543 24.375H18.0637C18.3016 24.375 18.5204 24.2451 18.6343 24.0363L20.8935 19.8944C18.7684 19.5123 17.1496 17.6536 17.1496 15.4202C17.1496 15.2168 17.1676 15.0179 17.1936 14.8215L9.19658 21.0702Z" fill="black"/>
<path d="M9.78239 8.125L5.9248 10.7491C8.92871 10.9922 11.3 13.5096 11.3 16.575C11.3 17.0312 11.2423 17.4734 11.143 17.8998L18.8038 11.9139L18.8217 11.8999L18.8658 11.8655L18.8716 11.8625C19.447 11.4042 20.1347 11.0836 20.8871 10.9471L16.7384 8.125L16.4824 7.95087C16.4856 8.00971 16.5 8.06537 16.5 8.125C16.5 9.91706 15.0421 11.375 13.25 11.375C11.458 11.375 10 9.91706 10 8.125C10 8.07057 10.0134 8.01983 10.0161 7.96603L9.78239 8.125Z" fill="black"/>
<path d="M23.65 6.39989V4.60632C23.65 4.37087 23.5251 4.15119 23.3188 4.03772C20.5874 2.5355 17.0836 1.625 13.25 1.625C9.41641 1.625 5.9126 2.5355 3.18126 4.03772C2.97495 4.15119 2.85002 4.37087 2.85002 4.60632V6.39989C2.85002 6.65813 3.0029 6.89188 3.23949 6.99539L4.16454 7.40009L0.735494 9.74327C0.459868 9.93161 0.371728 10.2981 0.531589 10.5912L1.46572 12.3037C1.66072 12.1217 1.86662 11.952 2.08502 11.7977C2.09513 11.7899 2.10033 11.7784 2.111 11.7711L7.47105 8.125L11.4531 5.41629C11.4638 5.40895 11.4766 5.40836 11.4877 5.40173C11.9963 5.07146 12.5997 4.875 13.25 4.875C13.8715 4.875 14.4472 5.05932 14.9414 5.36318C14.9839 5.38028 15.0284 5.38948 15.0678 5.4163L19.0498 8.12501L24.1205 11.5743C24.2061 11.6284 24.2894 11.6853 24.3711 11.7448L24.4098 11.7711C24.4137 11.7738 24.4155 11.7782 24.4194 11.7809C24.6367 11.9438 24.8388 12.1248 25.0238 12.3231L25.9685 10.5912C26.1283 10.2981 26.0402 9.93162 25.7646 9.74328L22.3355 7.40011L23.2606 6.99541C23.4971 6.8919 23.65 6.65813 23.65 6.39989Z" fill="black"/>
<path d="M2.91236 12.7985L2.9001 12.8068C1.69349 13.625 0.900391 15.0073 0.900391 16.575C0.900391 19.0879 2.93751 21.125 5.45039 21.125C7.96327 21.125 10.0004 19.0879 10.0004 16.575C10.0004 14.0621 7.96327 12.025 5.45039 12.025C4.51054 12.025 3.63742 12.3102 2.91236 12.7985ZM8.05039 16.575C8.05039 18.0087 6.88405 19.175 5.45039 19.175C4.01673 19.175 2.85039 18.0087 2.85039 16.575C2.85039 15.1413 4.01677 13.975 5.45039 13.975C6.88401 13.975 8.05039 15.1414 8.05039 16.575Z" fill="black"/>
<path d="M5.45039 17.875C6.16836 17.875 6.75039 17.293 6.75039 16.575C6.75039 15.857 6.16836 15.275 5.45039 15.275C4.73242 15.275 4.15039 15.857 4.15039 16.575C4.15039 17.293 4.73242 17.875 5.45039 17.875Z" fill="black"/>
<path d="M13.2498 10.075C14.3268 10.075 15.1998 9.20196 15.1998 8.125C15.1998 7.04805 14.3268 6.175 13.2498 6.175C12.1728 6.175 11.2998 7.04805 11.2998 8.125C11.2998 9.20196 12.1728 10.075 13.2498 10.075Z" fill="black"/>
<path d="M24.9502 15.4202C24.9502 14.3333 24.4116 13.3771 23.5922 12.7871L23.4384 12.6825C22.9348 12.3621 22.3412 12.1702 21.7002 12.1702C19.9053 12.1702 18.4502 13.6253 18.4502 15.4202C18.4502 17.2151 19.9053 18.6702 21.7002 18.6702C23.4951 18.6702 24.9502 17.2152 24.9502 15.4202Z" fill="black"/>
</g>
<defs>
<clipPath id="clip0_2417_804">
<rect width="26" height="26" fill="white" transform="translate(0.25)"/>
</clipPath>
</defs>
</svg>
