<svg width="29" height="28" viewBox="0 0 29 28" fill="none" xmlns="http://www.w3.org/2000/svg">
<path d="M21.7157 8.28254C22.6223 8.28254 23.3573 7.54761 23.3573 6.64103C23.3573 5.73444 22.6223 4.99951 21.7157 4.99951C20.8092 4.99951 20.0742 5.73444 20.0742 6.64103C20.0742 7.54761 20.8092 8.28254 21.7157 8.28254Z" fill="currentColor"/>
<path d="M14.4181 7.10449C10.6159 7.10449 7.52246 10.1979 7.52246 14C7.52246 17.8022 10.6159 20.8956 14.4181 20.8956C18.2203 20.8956 21.3135 17.8022 21.3135 14C21.3135 10.1979 18.2203 7.10449 14.4181 7.10449ZM14.4181 18.4171C11.9825 18.4171 10.0009 16.4357 10.0009 14C10.0009 11.5644 11.9825 9.58299 14.4181 9.58299C16.8537 9.58299 18.835 11.5644 18.835 14C18.835 16.4357 16.8537 18.4171 14.4181 18.4171Z" fill="currentColor"/>
<path d="M19.8919 28H8.71309C4.07552 28 0.302734 24.2272 0.302734 19.5896V8.41035C0.302734 3.77272 4.07551 0 8.71309 0H19.8919C24.5295 0 28.3027 3.77272 28.3027 8.41035V19.5896C28.3027 24.2272 24.5295 28 19.8919 28ZM8.71309 2.63418C5.52789 2.63418 2.93691 5.22516 2.93691 8.41035V19.5896C2.93691 22.7748 5.52789 25.3658 8.71309 25.3658H19.8919C23.0771 25.3658 25.6686 22.7748 25.6686 19.5896V8.41035C25.6686 5.22516 23.0771 2.63418 19.8919 2.63418H8.71309Z" fill="currentColor"/>
</svg>
