<svg width="42" height="26" viewBox="0 0 42 26" fill="none" xmlns="http://www.w3.org/2000/svg">
<g clip-path="url(#clip0_2417_1096)">
<g opacity="1">
<path d="M29.1653 25.1693C35.801 25.1693 41.1802 19.7202 41.1802 12.9983C41.1802 6.27651 35.801 0.827393 29.1653 0.827393C22.5297 0.827393 17.1504 6.27651 17.1504 12.9983C17.1504 19.7202 22.5297 25.1693 29.1653 25.1693Z" fill="currentColor"/>
<path d="M12.8313 25.1693C19.467 25.1693 24.8462 19.7202 24.8462 12.9983C24.8462 6.27651 19.467 0.827393 12.8313 0.827393C6.19567 0.827393 0.816406 6.27651 0.816406 12.9983C0.816406 19.7202 6.19567 25.1693 12.8313 25.1693Z" fill="currentColor"/>
<path d="M41.9962 12.9982C41.9962 20.1769 36.2513 25.9965 29.1646 25.9965C22.0779 25.9965 16.333 20.1769 16.333 12.9982C16.333 5.81952 22.0779 0 29.1646 0C36.2513 0 41.9962 5.81952 41.9962 12.9982ZM17.4737 12.9982C17.4737 19.5388 22.7079 24.841 29.1646 24.841C35.6213 24.841 40.8555 19.5388 40.8555 12.9982C40.8555 6.45769 35.6213 1.15551 29.1646 1.15551C22.7079 1.15551 17.4737 6.45769 17.4737 12.9982Z" fill="#F1F0EB"/>
<path d="M25.6632 12.9982C25.6632 20.1769 19.9183 25.9965 12.8316 25.9965C5.74491 25.9965 0 20.1769 0 12.9982C0 5.81952 5.74491 0 12.8316 0C19.9183 0 25.6632 5.81952 25.6632 12.9982ZM1.1407 12.9982C1.1407 19.5388 6.3749 24.841 12.8316 24.841C19.2883 24.841 24.5225 19.5388 24.5225 12.9982C24.5225 6.45769 19.2883 1.15551 12.8316 1.15551C6.3749 1.15551 1.1407 6.45769 1.1407 12.9982Z" fill="#F1F0EB"/>
</g>
</g>
<defs>
<clipPath id="clip0_2417_1096">
<rect width="42" height="26" fill="white"/>
</clipPath>
</defs>
</svg>
