<svg width="72" height="23" viewBox="0 0 72 23" fill="none" xmlns="http://www.w3.org/2000/svg">
<g opacity="1">
<path d="M25.7937 3.26155C26.8036 3.26155 27.6264 2.43148 27.6825 1.384C27.7012 1.02825 27.5891 0.692264 27.3833 0.4551C27.1589 0.198172 26.8223 0.0795898 26.4483 0.0795898C25.4571 0.0795898 24.6343 0.889904 24.5782 1.95714C24.5595 2.31289 24.6718 2.64887 24.8774 2.88603C25.1018 3.14297 25.4384 3.26155 25.7937 3.26155Z" fill="currentColor"/>
<path d="M7.84098 16.9578C7.13035 16.9578 6.62543 17.2147 6.13921 17.8274L6.02701 17.0566H4.94236V17.1357C4.88626 17.4914 4.84885 17.8669 4.75536 18.2425L3.82031 22.215H5.27898L5.9709 19.3096C6.0831 18.8354 6.38232 18.0645 7.13035 18.0645C7.48567 18.0645 7.67267 18.2425 7.65397 18.6378C7.65397 18.7959 7.61657 18.9342 7.56046 19.1121L6.96204 21.5233L6.77503 22.2348H8.2898L9.09393 18.8749C9.13133 18.6773 9.16873 18.4796 9.16873 18.3017C9.20613 17.4322 8.70121 16.9578 7.84098 16.9578Z" fill="currentColor"/>
<path d="M26.7844 16.9578C26.0737 16.9578 25.5688 17.2147 25.0825 17.8274L24.9703 17.0566H23.8857V17.1357C23.8296 17.4914 23.7735 17.8669 23.6988 18.2425L22.7637 22.215H24.241L24.9329 19.3096C25.0452 18.8354 25.3444 18.0645 26.0924 18.0645C26.4664 18.0645 26.6347 18.2425 26.6161 18.6378C26.6161 18.7959 26.5599 18.9342 26.5225 19.1121L25.9241 21.5233L25.7371 22.2348H27.2332L28.0373 18.8749C28.0747 18.6773 28.1121 18.4796 28.1121 18.3017C28.1495 17.4322 27.6446 16.9578 26.7844 16.9578Z" fill="currentColor"/>
<path d="M50.3664 16.9185C49.6558 16.9185 49.1509 17.1754 48.6647 17.788L48.5524 17.0173H47.4678V17.0963C47.4117 17.4521 47.3555 17.8276 47.2808 18.2031L46.3457 22.1756H47.8231L48.515 19.2703C48.6272 18.8158 48.9264 18.0252 49.6558 18.0252C50.0298 18.0252 50.1981 18.2031 50.1794 18.5984C50.1794 18.7564 50.142 18.8948 50.0858 19.0727L49.4875 21.4839L49.3004 22.1953H50.8152L51.6193 18.8356C51.6567 18.638 51.6941 18.4403 51.6941 18.2624C51.7128 17.4126 51.2079 16.9185 50.3664 16.9185Z" fill="currentColor"/>
<path d="M32.0953 16.8196C30.4496 16.8196 28.5982 18.2426 28.5234 20.5352C28.486 21.5629 28.9909 22.2151 29.8512 22.2151C30.4869 22.2151 31.0293 21.8791 31.4407 21.1874C31.422 21.6419 31.5342 21.9581 31.7961 22.0965H31.8148H32.6189L32.6376 22.0175C32.6563 21.5036 32.7498 20.9107 32.8994 20.2585L33.61 17.0765L33.5539 17.0568C33.2547 16.9184 32.6002 16.8196 32.0953 16.8196ZM31.8335 19.0134C31.5529 20.219 30.9545 21.1083 30.4122 21.1083C30.0756 21.1083 29.9073 20.8712 29.926 20.3771C29.9633 19.0925 30.8797 17.9066 31.8335 17.9066C31.9082 17.9066 32.0018 17.9066 32.0953 17.9461L31.8335 19.0134Z" fill="currentColor"/>
<path d="M55.7525 16.7998C54.1069 16.7998 52.2555 18.2228 52.1807 20.5154C52.1432 21.5431 52.6481 22.1953 53.5084 22.1953C54.1443 22.1953 54.6865 21.8594 55.098 21.1676C55.0793 21.6222 55.1915 21.9186 55.4533 22.0767H55.472H56.2761V21.9977C56.3135 21.4838 56.3884 20.8909 56.538 20.2387L57.2485 17.0567L57.1925 17.037C56.9119 16.8987 56.2761 16.7998 55.7525 16.7998ZM55.4907 19.0133C55.2101 20.219 54.6118 21.1083 54.0694 21.1083C53.7141 21.1083 53.5645 20.8712 53.5832 20.377C53.6207 19.0726 54.5369 17.9066 55.4907 17.9066C55.5655 17.9066 55.659 17.9066 55.7525 17.9461L55.4907 19.0133Z" fill="currentColor"/>
<path d="M12.105 18.0054H13.3766L13.5823 17.116H12.3107L12.7221 15.0408H11.8805L10.8894 17.116H10.1227L9.91699 18.0054H10.6837L10.0479 20.7921C9.78608 21.9383 10.4967 22.2744 11.3943 22.2546C12.0301 22.2546 12.3667 22.1953 12.666 22.136L12.7782 21.3454C12.5912 21.3454 12.292 21.3652 11.9928 21.3059C11.5814 21.2071 11.4131 21.0095 11.5439 20.4561L12.105 18.0054Z" fill="currentColor"/>
<path d="M16.5932 16.9974C15.3027 16.9974 13.9563 18.0251 13.5823 19.6655C13.2269 21.2861 13.9937 22.2743 15.4523 22.2743C16.7615 22.2743 17.1915 22.0174 17.5468 21.879L17.4534 21.0489C17.2477 21.128 16.8549 21.2861 16.1817 21.2861C15.1344 21.2861 14.8353 20.6734 15.0036 19.8631L18.2201 19.8433C18.6876 17.8275 17.79 16.9775 16.5932 16.9974ZM16.9298 18.9935H15.228C15.4336 18.4401 15.7702 17.9856 16.2939 17.9856C16.8362 17.9856 16.9858 18.3413 16.9298 18.9935Z" fill="currentColor"/>
<path d="M22.4839 16.9778C21.8668 16.9778 21.2122 17.6299 21.0066 17.8474L21.1375 17.0963H19.8098L18.6689 22.1361H20.0715L20.857 18.6577C21.0813 18.4996 21.5488 18.1438 21.9416 18.1438C22.2222 18.1438 22.4278 18.2229 22.5213 18.2821L23.2693 17.2149C23.1571 17.1359 22.9141 16.9778 22.4839 16.9778Z" fill="currentColor"/>
<path d="M36.9582 14.9814H36.1167L35.1256 17.0566H34.3589L34.1719 17.9459H34.9386L34.3028 20.7525C34.0222 21.8987 34.7515 22.2347 35.6305 22.2149C36.2663 22.2149 36.6029 22.1557 36.9022 22.0963L37.0143 21.3059C36.8273 21.3059 36.5281 21.3059 36.229 21.2662C35.8175 21.1675 35.6492 20.9698 35.7801 20.4164L36.3411 17.9459H37.6128L37.8184 17.0566H36.5469L36.9582 14.9814Z" fill="currentColor"/>
<path d="M44.0271 16.9182C42.5871 16.9182 41.091 17.946 40.7357 19.5666C40.3804 21.1872 41.4089 22.1951 42.8302 22.1951C44.2702 22.1951 45.7663 21.1675 46.1216 19.5468C46.4956 17.9262 45.4671 16.8985 44.0271 16.9182ZM44.6254 19.5468C44.4385 20.4164 43.7652 21.1872 43.0733 21.1872C42.2318 21.1872 42.0447 20.4164 42.2318 19.5468C42.4375 18.6772 42.9611 17.9064 43.8026 17.9064C44.5133 17.9064 44.8312 18.6772 44.6254 19.5468Z" fill="currentColor"/>
<path d="M16.125 12.8468L17.2097 7.90587C17.378 7.11531 17.8642 5.79114 19.1172 5.79114C19.7342 5.79114 20.0334 6.10736 20.0147 6.7398C20.0147 6.99673 19.94 7.25366 19.8838 7.53035L18.9675 11.6214L18.6683 12.827H21.2116L22.4458 7.13507C22.5207 6.79909 22.558 6.46311 22.558 6.14689C22.5767 4.76342 21.7352 3.93335 20.2766 3.93335C19.0797 3.93335 18.2382 4.36816 17.434 5.41563L17.2097 4.11122H15.3956L15.3769 4.22981C15.3022 4.82272 15.2273 5.47492 15.0777 6.10736L13.6191 12.8468H16.125Z" fill="currentColor"/>
<path d="M39.0337 7.90587C39.202 7.11533 39.6882 5.79115 40.9412 5.79115C41.5583 5.79115 41.8576 6.10737 41.8389 6.73981C41.8389 6.99674 41.7828 7.25366 41.708 7.53036L40.7916 11.6412L40.5298 12.8468H43.0357L44.27 7.15485C44.3447 6.81887 44.3822 6.48288 44.3822 6.16666C44.4009 4.7832 43.5594 3.95312 42.1194 3.95312C40.9225 3.95312 40.081 4.38793 39.2769 5.43541L39.0525 4.131H37.2385L37.2198 4.24959C37.145 4.8425 37.0702 5.4947 36.9205 6.12714L35.4619 12.8665H37.9491L39.0337 7.90587Z" fill="currentColor"/>
<path d="M32.077 3.95312C28.954 3.95312 26.7473 6.3643 26.6725 9.82296C26.6351 12.0365 28.3929 13.0246 30.1321 13.0246C33.1803 13.0246 35.4618 10.5344 35.518 7.13509C35.574 4.9413 33.8349 3.95312 32.077 3.95312ZM30.5062 11.1867C29.6459 11.1867 29.2345 10.653 29.2719 9.56602C29.2906 8.20232 30.1134 5.79115 31.6843 5.79115C32.7877 5.79115 33.012 6.66076 32.9933 7.41178C32.956 8.69642 32.0583 11.1867 30.5062 11.1867Z" fill="currentColor"/>
<path d="M55.7709 13.0445C56.9491 13.0445 57.9215 12.4712 58.6882 11.3052C58.6508 12.0562 58.8939 12.5898 59.3802 12.8468L59.3988 12.8665H60.8949V12.7282C60.9323 11.8389 61.0819 10.8507 61.325 9.76367L62.5405 4.38792L62.4284 4.3484C61.8673 4.131 60.6705 3.95312 59.7168 3.95312C56.6499 3.95312 53.3024 6.34453 53.2275 10.2182C53.2463 11.9575 54.2001 13.0445 55.7709 13.0445ZM59.3053 5.77139C59.4362 5.77139 59.6232 5.77139 59.7915 5.83068L59.3615 7.66871C58.8753 9.70437 57.7906 11.2064 56.7995 11.2064C56.1636 11.2064 55.8457 10.7914 55.8644 9.9613C55.9018 7.76753 57.5474 5.77139 59.3053 5.77139Z" fill="currentColor"/>
<path d="M47.7296 8.61744H49.6558C51.9559 8.61744 54.3683 6.83871 54.4244 3.75556C54.4619 2.07564 53.1154 0.77124 51.3575 0.77124H46.8693L44.4569 11.6215L44.2139 12.8271H46.8319L47.7296 8.61744ZM49.0386 2.70808H50.1794C50.9835 2.70808 51.825 3.16265 51.8063 3.99272C51.7876 5.5343 50.7404 6.6806 48.7768 6.6806H48.141L49.0386 2.70808Z" fill="currentColor"/>
<path d="M8.02856 13.005C11.002 13.005 12.7786 11.5227 13.4518 8.47907L15.1348 0.711914H12.498L12.3297 1.58152C12.311 1.70011 10.8337 8.40001 10.815 8.47907C10.4597 10.1195 9.63683 10.9495 8.38388 10.9495C7.24313 10.9495 6.5325 10.3764 6.5512 9.46726C6.5512 9.19057 6.58861 8.91387 6.68212 8.53836L8.38388 0.73168H5.76577L5.61617 1.54199L4.06401 8.55812C3.98921 8.97317 3.9331 9.36845 3.9331 9.78348C3.8957 12.1552 6.02759 13.005 8.02856 13.005Z" fill="currentColor"/>
<path d="M24.8022 12.867L26.7096 4.11157H24.2224L22.5394 11.6613L22.2588 12.867H24.8022Z" fill="currentColor"/>
<path d="M37.8369 22.0767H39.2395L40.3802 17.0369H38.9776L37.8369 22.0767Z" fill="currentColor"/>
<path d="M40.1557 14.7246C39.576 14.7246 39.1085 15.199 39.0898 15.7919C39.0711 15.9895 39.1459 16.1872 39.2581 16.3255C39.389 16.4639 39.576 16.5429 39.7817 16.5429C40.3615 16.5429 40.829 16.0686 40.8664 15.4757C40.8851 15.278 40.8103 15.0804 40.6981 14.9421C40.5671 14.8037 40.3802 14.7246 40.1557 14.7246Z" fill="currentColor"/>
<path d="M2.77311 14.5466L0.94043 22.1754H2.5487L4.26916 14.5466H2.77311Z" fill="currentColor"/>
<path d="M69.1234 4.15088L66.2061 10.3369L65.9816 4.15088H63.3822L64.149 13.1829C63.6814 15.1988 62.1106 14.9814 61.1381 14.9814H60.708H59.3616C59.2493 14.9814 59.0623 15.0407 58.9688 15.2581L58.6697 16.6218L57.4541 22.0173H58.8567L59.9039 17.3136C59.9412 17.195 60.0535 17.0961 60.1844 17.0961H62.017C64.5977 17.0961 65.5889 15.6337 66.4491 14.0327L71.7601 4.15088H69.1234Z" fill="currentColor"/>
</g>
</svg>
