<svg width="17" height="17" viewBox="0 0 17 17" fill="none" xmlns="http://www.w3.org/2000/svg">
<path d="M15.5847 11.985V13.4017C15.5855 13.5989 15.545 13.7942 15.466 13.975C15.387 14.1557 15.2711 14.318 15.1257 14.4513C14.9803 14.5847 14.8087 14.6862 14.6219 14.7494C14.435 14.8126 14.237 14.8361 14.0405 14.8183C11.1506 14.4263 8.45544 13.1409 6.33196 11.1419C4.20848 9.14285 2.76282 6.53017 2.19716 3.66917C2.1794 3.4727 2.20287 3.27469 2.26607 3.08781C2.32927 2.90093 2.43081 2.72932 2.56417 2.58395C2.69753 2.43859 2.85978 2.32268 3.04054 2.24365C3.22129 2.16462 3.41655 2.12421 3.61382 2.12501H5.03049C5.37425 2.12162 5.70751 2.24335 5.96815 2.46751C6.2288 2.69166 6.39905 3.00295 6.44716 3.34334C6.55341 4.17917 6.80132 5.00792 7.17674 5.78001C7.28258 6.04001 7.30879 6.3256 7.25204 6.60053C7.19529 6.87546 7.05814 7.12733 6.85799 7.32417L6.02216 7.79167C6.8605 9.05689 7.94444 10.1408 9.20966 10.9792L10.3855 9.80334C10.5823 9.60319 10.8342 9.46604 11.1091 9.40929C11.3841 9.35254 11.6697 9.37875 11.9297 9.48459C12.7017 9.86001 13.5234 10.1079 14.3663 10.2142C14.7067 10.2623 15.018 10.4325 15.2422 10.6932C15.4663 10.9538 15.588 11.2871 15.5847 11.6308V11.985Z" stroke="black" stroke-width="0.9375" stroke-linecap="round" stroke-linejoin="round"/>
</svg>
