<svg width="60" height="19" viewBox="0 0 60 19" fill="none" xmlns="http://www.w3.org/2000/svg">
<g clip-path="url(#clip0_2417_1104)">
<g opacity="1">
<path d="M39.0694 0.027832C34.8135 0.027832 31.0101 2.17931 31.0101 6.15435C31.0101 10.713 37.7554 11.0278 37.7554 13.3179C37.7554 14.2822 36.6224 15.1454 34.6873 15.1454C31.941 15.1454 29.8882 13.9392 29.8882 13.9392L29.01 17.9505C29.01 17.9505 31.3746 18.9694 34.514 18.9694C39.1671 18.9694 42.8286 16.7122 42.8286 12.6692C42.8286 7.8522 36.055 7.54669 36.055 5.42108C36.055 4.66571 36.9852 3.83806 38.9149 3.83806C41.092 3.83806 42.8684 4.71523 42.8684 4.71523L43.728 0.841046C43.728 0.841046 41.7951 0.027832 39.0694 0.027832ZM0.131375 0.320224L0.0283203 0.905007C0.0283203 0.905007 1.81882 1.22461 3.43145 1.86213C5.50785 2.59319 5.65576 3.01877 6.00545 4.34061L9.81611 18.6677H14.9244L22.794 0.320224H17.6974L12.6408 12.7948L10.5773 2.22077C10.3881 1.01058 9.42954 0.320224 8.25626 0.320224H0.131375ZM24.8433 0.320224L20.8453 18.6677H25.7052L29.6892 0.320224H24.8433ZM51.9488 0.320224C50.7769 0.320224 50.156 0.93215 49.7004 2.00147L42.5803 18.6677H47.6768L48.6628 15.8901H54.8719L55.4714 18.6677H59.9683L56.0452 0.320224H51.9488ZM52.6117 5.27717L54.1224 12.162H50.0751L52.6117 5.27717Z" fill="currentColor"/>
</g>
</g>
<defs>
<clipPath id="clip0_2417_1104">
<rect width="60" height="19" fill="white"/>
</clipPath>
</defs>
</svg>
