<svg width="26" height="26" viewBox="0 0 26 26" fill="none" xmlns="http://www.w3.org/2000/svg">
<path d="M13 0C5.82058 0 0 5.82177 0 13.0027C0 15.63 0.78107 18.0807 2.12387 20.1247L0.449383 25.7967L6.33951 24.1646C8.28683 25.3311 10.5658 26 13 26C20.1794 26 26 20.1782 26 12.9973C26 5.82177 20.1794 0 13 0Z" fill="#25D366"/>
<path d="M18.9897 15.8455C18.9763 15.7034 18.8909 15.5791 18.7607 15.5214C17.8807 15.1218 16.9962 14.7221 16.1162 14.3225C16.0174 14.2781 15.8962 14.3003 15.8243 14.3847L14.63 15.7167C14.5357 15.8233 14.3875 15.8588 14.2573 15.8055C13.6377 15.5524 12.8026 15.1262 11.9585 14.4069C10.9482 13.5499 10.3556 12.6308 10.0233 12.0314C10.1894 11.9204 10.6429 11.5874 10.845 10.9702C10.845 10.9658 10.8494 10.9613 10.8494 10.9613C10.9752 10.5795 10.9482 10.1666 10.809 9.78914C10.5711 9.16308 10.0951 7.95092 9.91105 7.76443C9.87962 7.73335 9.8437 7.70227 9.8437 7.70227C9.709 7.58239 9.53389 7.51579 9.3498 7.50691C9.28695 7.50247 9.2196 7.50247 9.14776 7.50247C8.94122 7.49803 8.75713 7.49803 8.62243 7.51579C8.24079 7.56907 7.96241 7.82216 7.7873 8.03528C7.57627 8.28837 7.32484 8.66578 7.15871 9.16308C7.14524 9.20748 7.13177 9.24744 7.1183 9.29184C6.93421 9.92234 6.97013 10.5972 7.19014 11.2189C7.39668 11.8005 7.6975 12.4932 8.15099 13.2258C8.91877 14.4735 9.7539 15.2461 10.3196 15.7567C10.9572 16.3384 11.7474 17.0532 13.0001 17.6482C14.1585 18.1988 15.2092 18.403 15.9141 18.4874C16.2015 18.514 16.7313 18.5185 17.3374 18.292C17.6158 18.1855 17.8493 18.0567 18.0379 17.919C18.5362 17.5683 18.8865 17.0399 18.9763 16.4449C18.9763 16.4405 18.9763 16.436 18.9763 16.4316C19.0077 16.2051 19.0032 16.0098 18.9897 15.8455Z" fill="white"/>
</svg>
