<svg width="26" height="27" viewBox="0 0 26 27" fill="none" xmlns="http://www.w3.org/2000/svg">
<path d="M13 0.5C5.82058 0.5 0 6.32177 0 13.5027C0 16.13 0.78107 18.5807 2.12387 20.6247L0.449383 26.2967L6.33951 24.6646C8.28683 25.8311 10.5658 26.5 13 26.5C20.1794 26.5 26 20.6782 26 13.4973C26 6.32177 20.1794 0.5 13 0.5Z" fill="white"/>
<path d="M18.9897 16.3455C18.9763 16.2034 18.8909 16.0791 18.7607 16.0214C17.8807 15.6218 16.9962 15.2221 16.1162 14.8225C16.0174 14.7781 15.8962 14.8003 15.8243 14.8847L14.63 16.2167C14.5357 16.3233 14.3875 16.3588 14.2573 16.3055C13.6377 16.0524 12.8026 15.6262 11.9585 14.9069C10.9482 14.0499 10.3556 13.1308 10.0233 12.5314C10.1894 12.4204 10.6429 12.0874 10.845 11.4702C10.845 11.4658 10.8494 11.4613 10.8494 11.4613C10.9752 11.0795 10.9482 10.6666 10.809 10.2891C10.5711 9.66308 10.0951 8.45092 9.91105 8.26443C9.87962 8.23335 9.8437 8.20227 9.8437 8.20227C9.709 8.08239 9.53389 8.01579 9.3498 8.00691C9.28695 8.00247 9.2196 8.00247 9.14776 8.00247C8.94122 7.99803 8.75713 7.99803 8.62243 8.01579C8.24079 8.06907 7.96241 8.32216 7.7873 8.53528C7.57627 8.78837 7.32484 9.16578 7.15871 9.66308C7.14524 9.70748 7.13177 9.74744 7.1183 9.79184C6.93421 10.4223 6.97013 11.0972 7.19014 11.7189C7.39668 12.3005 7.6975 12.9932 8.15099 13.7258C8.91877 14.9735 9.7539 15.7461 10.3196 16.2567C10.9572 16.8384 11.7474 17.5532 13.0001 18.1482C14.1585 18.6988 15.2092 18.903 15.9141 18.9874C16.2015 19.014 16.7313 19.0185 17.3374 18.792C17.6158 18.6855 17.8493 18.5567 18.0379 18.419C18.5362 18.0683 18.8865 17.5399 18.9763 16.9449C18.9763 16.9405 18.9763 16.936 18.9763 16.9316C19.0077 16.7051 19.0032 16.5098 18.9897 16.3455Z" fill="black"/>
</svg>
