<svg width="16" height="11" viewBox="0 0 16 11" fill="none" xmlns="http://www.w3.org/2000/svg">
<path d="M4.35355 0.646446C4.15829 0.451184 3.84171 0.451184 3.64645 0.646446L0.464466 3.82843C0.269204 4.02369 0.269204 4.34027 0.464466 4.53553C0.659728 4.7308 0.976311 4.7308 1.17157 4.53553L4 1.70711L6.82843 4.53553C7.02369 4.7308 7.34027 4.7308 7.53553 4.53553C7.7308 4.34027 7.7308 4.02369 7.53553 3.82843L4.35355 0.646446ZM4 10H4.5L4.5 1H4H3.5L3.5 10H4Z" fill="black"/>
<path d="M11.6464 10.3536C11.8417 10.5488 12.1583 10.5488 12.3536 10.3536L15.5355 7.17157C15.7308 6.97631 15.7308 6.65973 15.5355 6.46447C15.3403 6.2692 15.0237 6.2692 14.8284 6.46447L12 9.29289L9.17157 6.46447C8.97631 6.2692 8.65973 6.2692 8.46447 6.46447C8.2692 6.65973 8.2692 6.97631 8.46447 7.17157L11.6464 10.3536ZM12 1H11.5V10H12H12.5V1H12Z" fill="black"/>
</svg>
