<svg width="22" height="21" viewBox="0 0 22 21" fill="none" xmlns="http://www.w3.org/2000/svg">
<mask id="path-1-inside-1_2599_48" fill="white">
<path d="M10.4795 7.87502V1.96877H17.5201L19.4402 7.87502M17.5201 14.4375C17.0108 14.4375 16.5224 14.2301 16.1623 13.8609C15.8022 13.4917 15.5999 12.9909 15.5999 12.4688C15.5999 11.9466 15.8022 11.4459 16.1623 11.0767C16.5224 10.7074 17.0108 10.5 17.5201 10.5C18.0293 10.5 18.5177 10.7074 18.8778 11.0767C19.2379 11.4459 19.4402 11.9466 19.4402 12.4688C19.4402 12.9909 19.2379 13.4917 18.8778 13.8609C18.5177 14.2301 18.0293 14.4375 17.5201 14.4375ZM19.3378 1.31252C19.2053 0.927281 18.9591 0.59391 18.6333 0.358706C18.3076 0.123501 17.9185 -0.0018636 17.5201 2.09394e-05H10.4795V18.375H18.1601V19.6875C18.1601 20.0356 18.295 20.3695 18.535 20.6156C18.7751 20.8617 19.1007 21 19.4402 21H20.7203C21.0598 21 21.3854 20.8617 21.6255 20.6156C21.8656 20.3695 22.0004 20.0356 22.0004 19.6875V9.18752L19.3378 1.31252Z"/>
</mask>
<path d="M10.4795 7.87502V1.96877H17.5201L19.4402 7.87502M17.5201 14.4375C17.0108 14.4375 16.5224 14.2301 16.1623 13.8609C15.8022 13.4917 15.5999 12.9909 15.5999 12.4688C15.5999 11.9466 15.8022 11.4459 16.1623 11.0767C16.5224 10.7074 17.0108 10.5 17.5201 10.5C18.0293 10.5 18.5177 10.7074 18.8778 11.0767C19.2379 11.4459 19.4402 11.9466 19.4402 12.4688C19.4402 12.9909 19.2379 13.4917 18.8778 13.8609C18.5177 14.2301 18.0293 14.4375 17.5201 14.4375ZM19.3378 1.31252C19.2053 0.927281 18.9591 0.59391 18.6333 0.358706C18.3076 0.123501 17.9185 -0.0018636 17.5201 2.09394e-05H10.4795V18.375H18.1601V19.6875C18.1601 20.0356 18.295 20.3695 18.535 20.6156C18.7751 20.8617 19.1007 21 19.4402 21H20.7203C21.0598 21 21.3854 20.8617 21.6255 20.6156C21.8656 20.3695 22.0004 20.0356 22.0004 19.6875V9.18752L19.3378 1.31252Z" fill="black"/>
<path d="M10.4795 1.96877V0.968771H9.47949V1.96877H10.4795ZM17.5201 1.96877L18.4711 1.65959L18.2465 0.968771H17.5201V1.96877ZM19.3378 1.31252L20.2851 0.992219L20.2834 0.987241L19.3378 1.31252ZM17.5201 2.09394e-05V1.00003L17.5248 1.00001L17.5201 2.09394e-05ZM10.4795 2.09394e-05V-0.999979H9.47949V2.09394e-05H10.4795ZM10.4795 18.375H9.47949V19.375H10.4795V18.375ZM18.1601 18.375H19.1601V17.375H18.1601V18.375ZM20.7203 21V20V21ZM22.0004 9.18752H23.0004V9.02304L22.9477 8.86722L22.0004 9.18752ZM10.4795 7.87502H11.4795V1.96877H10.4795H9.47949V7.87502H10.4795ZM10.4795 1.96877V2.96877H17.5201V1.96877V0.968771H10.4795V1.96877ZM17.5201 1.96877L16.5691 2.27795L18.4892 8.1842L19.4402 7.87502L20.3912 7.56584L18.4711 1.65959L17.5201 1.96877ZM17.5201 14.4375V13.4375C17.2842 13.4375 17.0528 13.3417 16.8782 13.1627L16.1623 13.8609L15.4464 14.5591C15.992 15.1185 16.7374 15.4375 17.5201 15.4375V14.4375ZM16.1623 13.8609L16.8782 13.1627C16.7028 12.9828 16.5999 12.7337 16.5999 12.4688H15.5999H14.5999C14.5999 13.2482 14.9016 14.0005 15.4464 14.5591L16.1623 13.8609ZM15.5999 12.4688H16.5999C16.5999 12.2039 16.7028 11.9547 16.8782 11.7749L16.1623 11.0767L15.4464 10.3784C14.9016 10.937 14.5999 11.6894 14.5999 12.4688H15.5999ZM16.1623 11.0767L16.8782 11.7749C17.0528 11.5959 17.2842 11.5 17.5201 11.5V10.5V9.50002C16.7374 9.50002 15.992 9.81903 15.4464 10.3784L16.1623 11.0767ZM17.5201 10.5V11.5C17.7559 11.5 17.9873 11.5959 18.1619 11.7749L18.8778 11.0767L19.5937 10.3784C19.0481 9.81903 18.3027 9.50002 17.5201 9.50002V10.5ZM18.8778 11.0767L18.1619 11.7749C18.3374 11.9547 18.4402 12.2039 18.4402 12.4688H19.4402H20.4402C20.4402 11.6894 20.1385 10.937 19.5937 10.3784L18.8778 11.0767ZM19.4402 12.4688H18.4402C18.4402 12.7337 18.3374 12.9828 18.1619 13.1627L18.8778 13.8609L19.5937 14.5591C20.1385 14.0005 20.4402 13.2482 20.4402 12.4688H19.4402ZM18.8778 13.8609L18.1619 13.1627C17.9873 13.3417 17.7559 13.4375 17.5201 13.4375V14.4375V15.4375C18.3027 15.4375 19.0481 15.1185 19.5937 14.5591L18.8778 13.8609ZM19.3378 1.31252L20.2834 0.987241C20.0848 0.40981 19.7142 -0.094257 19.2187 -0.452041L18.6333 0.358706L18.0479 1.16945C18.2039 1.28208 18.3258 1.44475 18.3922 1.6378L19.3378 1.31252ZM18.6333 0.358706L19.2187 -0.452041C18.7228 -0.810096 18.1274 -1.00286 17.5153 -0.999968L17.5201 2.09394e-05L17.5248 1.00001C17.7095 0.999136 17.8923 1.0571 18.0479 1.16945L18.6333 0.358706ZM17.5201 2.09394e-05V-0.999979H10.4795V2.09394e-05V1.00002H17.5201V2.09394e-05ZM10.4795 2.09394e-05H9.47949V18.375H10.4795H11.4795V2.09394e-05H10.4795ZM10.4795 18.375V19.375H18.1601V18.375V17.375H10.4795V18.375ZM18.1601 18.375H17.1601V19.6875H18.1601H19.1601V18.375H18.1601ZM18.1601 19.6875H17.1601C17.1601 20.2929 17.3944 20.8783 17.8192 21.3138L18.535 20.6156L19.2509 19.9174C19.1955 19.8606 19.1601 19.7784 19.1601 19.6875H18.1601ZM18.535 20.6156L17.8192 21.3138C18.2447 21.7502 18.8273 22 19.4402 22V21V20C19.3741 20 19.3055 19.9733 19.2509 19.9174L18.535 20.6156ZM19.4402 21V22H20.7203V21V20H19.4402V21ZM20.7203 21L20.7203 22C21.3332 22 21.9158 21.7502 22.3414 21.3138L21.6255 20.6156L20.9096 19.9174C20.855 19.9733 20.7864 20 20.7203 20V21ZM21.6255 20.6156L22.3414 21.3138C22.7661 20.8783 23.0004 20.2929 23.0004 19.6875H22.0004H21.0004C21.0004 19.7784 20.965 19.8606 20.9096 19.9174L21.6255 20.6156ZM22.0004 19.6875H23.0004V9.18752H22.0004H21.0004V19.6875H22.0004ZM22.0004 9.18752L22.9477 8.86722L20.2851 0.992224L19.3378 1.31252L18.3905 1.63282L21.0531 9.50782L22.0004 9.18752Z" fill="black" mask="url(#path-1-inside-1_2599_48)"/>
<path d="M4.62746 1.83117C4.78744 1.66715 5.00441 1.57501 5.23064 1.57501C5.45688 1.57501 5.67385 1.66715 5.83383 1.83117L9.21228 5.29512C9.29807 5.37476 9.36719 5.47144 9.41542 5.5793C9.46366 5.68716 9.49002 5.80394 9.49289 5.92257C9.49577 6.04119 9.4751 6.15917 9.43214 6.26935C9.38918 6.37954 9.32483 6.47962 9.243 6.56352C9.16117 6.64743 9.06356 6.7134 8.95609 6.75745C8.84863 6.80149 8.73356 6.82268 8.61787 6.81974C8.50217 6.81679 8.38827 6.78977 8.28307 6.74031C8.17787 6.69085 8.08358 6.61999 8.00591 6.53202L6.0837 4.56222V16.7643C6.07297 16.9888 5.97841 17.2006 5.8196 17.3556C5.6608 17.5106 5.44992 17.5971 5.23064 17.5971C5.01136 17.5971 4.80049 17.5106 4.64168 17.3556C4.48288 17.2006 4.38832 16.9888 4.37758 16.7643V4.56222L2.45435 6.53307L2.45128 6.53622C2.29086 6.69802 2.07458 6.78827 1.84955 6.78732C1.62452 6.78637 1.40898 6.6943 1.24986 6.53115C1.09074 6.368 1.00093 6.147 1.00001 5.91628C0.999081 5.68556 1.08711 5.4638 1.24491 5.29932L1.24798 5.29617L4.62746 1.83117Z" fill="black" stroke="black" stroke-width="0.5"/>
</svg>
