<svg width="85" height="27" viewBox="0 0 85 27" fill="none" xmlns="http://www.w3.org/2000/svg">
<path d="M84.7375 18.0564C84.7375 18.5593 84.6079 19.0621 84.327 19.4506C84.2622 19.5649 84.1756 19.6563 84.0892 19.7249C83.7652 20.0677 83.3328 20.4563 82.9007 20.5705C80.6967 20.9591 78.4708 21.1876 76.2667 21.5306C74.8188 21.6447 74.8621 21.4848 74.7107 20.8448C74.6028 20.502 74.5595 19.8392 74.4514 19.4506C73.5006 14.0339 67.45 12.3197 63.9493 16.2508C62.6744 17.7365 62.5015 19.2449 62.2854 21.2561C62.2421 21.9418 61.8747 22.079 60.4487 22.1475C60.1244 22.1019 59.7571 22.1475 59.4328 22.1475C47.5046 22.1475 35.6195 22.1475 23.691 22.1475C23.583 22.1475 23.4749 22.1475 23.3668 22.1475C21.3787 22.1704 21.7462 22.1933 21.6813 20.822C21.4868 19.4735 21.5948 18.8335 21.0547 17.7365C20.8385 17.3022 20.6225 16.8908 20.3416 16.5023C20.039 16.068 19.8445 15.8852 19.3259 15.4509C19.3043 15.428 19.2827 15.4052 19.2395 15.3823C18.656 14.9252 17.9861 14.5595 17.2946 14.3538C15.2849 13.7825 13.3185 14.1253 11.6113 15.4966C10.5092 16.5023 9.81775 17.3936 9.49362 18.8792C9.34235 19.6563 9.25591 20.0906 9.25591 21.0048C9.25591 21.0505 9.25591 21.1191 9.23429 21.1648C9.14785 21.7819 9.81775 22.9704 7.54876 22.079C7.52715 22.079 7.50555 22.079 7.48394 22.079C5.64714 21.8504 3.83196 21.6905 1.99515 21.5077C1.30365 21.4619 0.871459 21.0048 0.698584 20.3648C0.43927 19.2906 0.244786 18.5821 0.179958 17.5079C0.136739 16.3194 0.201568 14.7195 0.374442 13.5082C0.525708 12.0911 1.49813 11.1083 2.68665 10.6055C4.09126 10.0342 5.60393 9.46276 7.11657 9.30278C11.3304 8.73139 15.5442 8.34284 19.7581 7.93145C21.8541 7.77145 23.8639 7.42863 25.7439 6.40012C28.337 5.02879 31.0381 3.886 33.6745 2.69752C36.3109 1.44047 39.5524 0.82337 42.4047 0.640526C44.4792 0.640526 44.1335 0.640526 44.9978 0.640526C46.5321 0.61767 46.5321 0.617676 47.1156 0.617676L50.465 0.640526C50.5298 0.640526 50.5947 0.640526 50.6595 0.640526C51.243 0.686237 53.4687 0.77766 54.0089 0.77766C54.0522 0.77766 54.0953 0.77766 54.1386 0.77766C56.386 0.937649 56.4724 1.02907 58.8927 1.25763C59.6923 1.30334 60.5565 1.14335 61.3778 1.14335C61.4859 1.14335 61.5938 1.30334 61.7452 1.41762C62.0045 1.57761 62.2854 1.87473 62.6096 1.98901C66.1752 3.40604 69.7838 4.84594 73.3494 6.21728C74.1489 6.49155 74.9702 6.78867 75.7696 6.90294C77.9739 7.24578 80.1996 7.58861 82.4037 7.86288C82.836 7.90859 83.16 8.09143 83.2033 8.59425C83.3545 9.85131 83.8516 10.9941 83.4195 12.2968C83.2681 12.754 83.4195 13.3253 83.5273 13.8282C83.5707 14.1481 83.7004 14.3996 83.8947 14.5595C84.4134 15.0395 84.6727 15.748 84.6727 16.4794C84.7375 17.0508 84.7375 17.5536 84.7375 18.0564Z" fill="currentColor"/>
<path d="M15.3716 14.5593C18.8291 14.5593 21.6383 17.7819 21.1413 21.5302C20.7956 24.0901 18.9155 26.1243 16.5385 26.6498C12.8865 27.4269 9.70989 24.4328 9.64506 20.7303C9.60185 17.3477 12.195 14.605 15.3716 14.5593Z" fill="currentColor"/>
<path d="M74.1706 20.662C74.1706 24.0218 71.5774 26.7643 68.4008 26.7643C65.2676 26.7187 62.7393 24.0903 62.7393 20.7077C62.7393 17.2794 65.2676 14.5367 68.4658 14.5367C71.5774 14.491 74.1706 17.2336 74.1706 20.662Z" fill="currentColor"/>
</svg>
