<svg width="36" height="36" viewBox="0 0 36 36" fill="none" xmlns="http://www.w3.org/2000/svg">
<rect x="0.25" y="0.25" width="35.5" height="35.5" rx="11.75" stroke="#B0B0B0" stroke-width="0.5"/>
<path d="M12.0963 11.1881C11.8455 10.9373 11.4389 10.9373 11.1881 11.1881C10.9373 11.4389 10.9373 11.8455 11.1881 12.0963L12.0963 11.1881ZM23.9037 24.8119C24.1545 25.0627 24.5611 25.0627 24.8119 24.8119C25.0627 24.5611 25.0627 24.1545 24.8119 23.9037L23.9037 24.8119ZM11.1881 23.9037C10.9373 24.1545 10.9373 24.5611 11.1881 24.8119C11.4389 25.0627 11.8455 25.0627 12.0963 24.8119L11.1881 23.9037ZM24.8119 12.0963C25.0627 11.8455 25.0627 11.4389 24.8119 11.1881C24.5611 10.9373 24.1545 10.9373 23.9037 11.1881L24.8119 12.0963ZM11.1881 12.0963L23.9037 24.8119L24.8119 23.9037L12.0963 11.1881L11.1881 12.0963ZM12.0963 24.8119L24.8119 12.0963L23.9037 11.1881L11.1881 23.9037L12.0963 24.8119Z" fill="#656565"/>
</svg>
