<svg width="45" height="35" viewBox="0 0 45 35" fill="none" xmlns="http://www.w3.org/2000/svg">
<g clip-path="url(#clip0_763_190)">
<path d="M40.6897 0H4.07603C1.82603 0 0 2.1 0 4.67805V29.9079C0 32.486 1.82603 34.586 4.07603 34.586H40.6897C42.936 34.586 44.7657 32.486 44.7657 29.9079V4.67805C44.7657 2.1 42.936 0 40.6897 0ZM43.2781 29.9079C43.2781 31.5427 42.1178 32.8787 40.6897 32.8787H4.07603C2.64793 32.8787 1.4876 31.5427 1.4876 29.9079V4.67805C1.4876 3.04329 2.64793 1.70732 4.07603 1.70732H40.6897C42.1178 1.70732 43.2781 3.04329 43.2781 4.67805V29.9079Z" fill="#BDBDBD"/>
<path d="M4.15039 6.43231V23.625H19.1306V6.43231H4.15039ZM7.7913 21.9177C8.66527 20.5134 10.1008 19.6341 11.6405 19.6341C13.2062 19.6341 14.6231 20.5006 15.4934 21.9177H7.7913ZM9.11527 15.0287C9.11527 13.4323 10.2458 12.1305 11.6405 12.1305C13.0314 12.1305 14.1657 13.4323 14.1657 15.0287C14.1657 16.6293 13.0314 17.9268 11.6405 17.9268C10.2458 17.9268 9.11527 16.6293 9.11527 15.0287ZM17.643 21.9177H17.2153C16.5719 20.4024 15.5045 19.2287 14.214 18.5628C15.0917 17.7134 15.6533 16.4457 15.6533 15.0287C15.6533 12.489 13.8533 10.4232 11.6405 10.4232C9.42766 10.4232 7.62766 12.489 7.62766 15.0287C7.62766 16.4457 8.18923 17.7134 9.06692 18.5628C7.7727 19.2287 6.70535 20.4024 6.06196 21.9177H5.63799V8.13963H17.643V21.9177Z" fill="#BDBDBD"/>
<path d="M38.3647 6.43231H22.1758V8.13963H38.3647V6.43231Z" fill="#BDBDBD"/>
<path d="M35.3373 9.96646H22.1758V11.6738H35.3373V9.96646Z" fill="#808080"/>
<path d="M35.3373 13.5006H22.1758V15.2079H35.3373V13.5006Z" fill="#808080"/>
<path d="M28.2824 21.9177H22.1758V23.625H28.2824V21.9177Z" fill="#BDBDBD"/>
<path d="M38.3648 21.9177H31.2207V23.625H38.3648V21.9177Z" fill="#BDBDBD"/>
<path d="M35.3373 25.4518H22.1758V27.1592H35.3373V25.4518Z" fill="#808080"/>
<path d="M5.82683 32.0549C5.35452 32.0549 4.97146 31.9311 4.6851 31.6835C4.35411 31.3976 4.17188 30.9665 4.17188 30.4713C4.17188 29.5622 4.81898 28.414 5.77849 27.4195L4.8413 26.1817C5.40659 25.6183 7.13221 23.8982 8.3446 24.7945C8.54915 24.9439 8.71278 25.153 8.82807 25.4049C9.28179 25.2555 9.73551 25.1701 10.1781 25.1701C10.5463 25.1701 10.8698 25.3793 11.0409 25.7293C11.0706 25.789 11.1115 25.8744 11.1413 26.011C11.7624 25.439 12.3425 25.0506 12.7702 25.0506C13.131 25.0506 13.4434 25.2427 13.6219 25.5799C13.7223 25.7677 13.8004 26.011 13.7781 26.3951C15.0128 25.6098 16.6826 24.8671 18.438 25.0549L18.3041 26.7537C16.0764 26.5232 13.9082 28.222 13.0752 28.9646C12.7628 29.2421 12.3314 29.2378 12.0264 28.9518C11.7215 28.6659 11.6285 28.1793 11.807 27.7738C11.8516 27.6671 11.8963 27.5689 11.9334 27.475C11.3607 28.047 10.6206 28.8835 9.95121 29.7457L8.75741 28.7384C9.08097 28.1238 9.37849 27.4409 9.54584 26.9543C9.37849 26.9927 9.20741 27.0482 9.04006 27.1165C9.00659 27.4707 8.93964 27.8506 8.83923 28.2561C8.38179 30.0787 7.23634 32.0549 5.82683 32.0549ZM5.68179 30.339C5.71898 30.3433 5.76733 30.3476 5.82683 30.3476C6.10204 30.3476 6.60411 29.8439 7.03551 28.8793C7.13964 28.6488 7.22518 28.4226 7.29584 28.2049C6.96113 28.4909 6.65989 28.8024 6.41072 29.1012C5.94956 29.6689 5.74502 30.1085 5.68179 30.339Z" fill="#808080"/>
</g>
<defs>
<clipPath id="clip0_763_190">
<rect width="45" height="35" fill="white"/>
</clipPath>
</defs>
</svg>
