<svg width="18" height="18" viewBox="0 0 14 14"><path fill="#000" d="M10.5 10.9H1.2c-.2 0-.4-.2-.4-.4s.2-.4.4-.4h9.3c.2 0 .4.2.4.4s-.2.4-.4.4zm.6-2.3c-.2 0-.4-.2-.4-.4V3.4l-1 1c-.2.2-.5.2-.7 0-.1-.2-.1-.5 0-.6L10.8 2l.1-.1h.3c.1.1.2.1.2.1l1.8 1.8c.2.2.2.4 0 .6-.2.2-.4.2-.6 0l-1-1v4.8c-.1.2-.3.4-.5.4zm-2.9 0h-7c-.2 0-.4-.2-.4-.4s.2-.4.4-.4h7c.2 0 .4.2.4.4s-.2.4-.4.4zM5.8 6.3H1.2c-.2 0-.4-.2-.4-.4s.2-.4.4-.4h4.7c.2 0 .4.2.4.4s-.2.4-.5.4zM3.5 3.9H1.2c-.2 0-.4-.2-.4-.4s.2-.4.4-.4h2.3c.2 0 .4.2.4.4s-.2.4-.4.4z"></path></svg>