<svg width="41" height="41" viewBox="0 0 41 41" fill="none" xmlns="http://www.w3.org/2000/svg">
<g clip-path="url(#clip0_2421_1234)">
<path d="M6.86674 0.532516C6.77866 0.564548 6.64252 0.620602 6.56645 0.656635C6.49037 0.696674 5.13705 2.02197 3.55951 3.59951C0.376409 6.78262 0.508538 6.62646 0.504534 7.16699C0.496526 7.75957 0.0761164 7.29111 5.62153 12.8445C11.1709 18.402 10.7705 18.0416 11.3511 18.0336C11.8636 18.0296 11.9157 17.9936 13.0568 16.8885C13.6093 16.352 14.0738 15.9115 14.0898 15.9035C14.1018 15.8995 14.286 16.0677 14.4942 16.2799L14.8746 16.6603L13.4051 18.1097C12.0278 19.467 11.9237 19.5791 11.8036 19.8394C11.6834 20.0956 11.6714 20.1557 11.6714 20.5C11.6714 20.8323 11.6874 20.9124 11.7875 21.1406C11.8956 21.3769 12.0358 21.533 13.3691 22.8743L14.8345 24.3437L14.4061 24.7722L13.9777 25.2006L13.5052 24.8763C12.1439 23.9474 10.7826 23.4188 9.08891 23.1546C8.38022 23.0465 6.9308 23.0545 6.18608 23.1746C5.51743 23.2827 4.73666 23.4789 4.18412 23.6791C3.58354 23.9033 2.55854 24.4198 2.05405 24.7562C1.20922 25.3207 0.388421 26.0534 0.208245 26.4058C0.0641046 26.694 0.044085 27.0864 0.160198 27.4067C0.24428 27.635 0.348382 27.7471 2.05805 29.4687C3.05102 30.4697 4.31225 31.743 4.86479 32.2995L5.86176 33.3085L5.26117 33.9211C4.92885 34.2574 4.62055 34.6058 4.5725 34.6938C4.45239 34.9341 4.40033 35.2784 4.44438 35.5187C4.60854 36.3755 5.52143 36.8199 6.30619 36.4275C6.39428 36.3835 6.74262 36.0752 7.07895 35.7429L7.68754 35.1383L10.4823 37.921C12.7004 40.1352 13.313 40.7277 13.4732 40.8038C13.6333 40.8799 13.7374 40.8999 14.0137 40.8999C14.4862 40.8999 14.7024 40.7918 15.1388 40.3273C16.6203 38.7498 17.5492 36.7799 17.8414 34.5937C17.9215 33.9892 17.9335 32.7479 17.8615 32.1714C17.6973 30.8421 17.3249 29.6249 16.7284 28.5078C16.5202 28.1114 16.0917 27.4348 15.8835 27.1745L15.7634 27.0184L16.2079 26.5739L16.6563 26.1255L18.1257 27.5949C19.8594 29.3246 19.8114 29.2886 20.5 29.2886C21.1567 29.2886 21.2007 29.2605 22.3418 28.1354C22.8583 27.6229 23.523 26.9743 23.8153 26.686L24.3438 26.1655L24.7362 26.5579L25.1246 26.9503L24.1396 27.9192C22.9825 29.0523 22.9624 29.0844 22.9624 29.6489C22.9624 29.9452 22.9785 30.0453 23.0585 30.2095C23.1346 30.3696 24.1036 31.3586 28.0834 35.3425C33.6088 40.8759 33.1964 40.4995 33.793 40.4995C34.3776 40.4995 34.2134 40.6356 37.4246 37.4245C40.6357 34.2134 40.4996 34.3775 40.4996 33.793C40.4996 33.1964 40.8719 33.6088 35.3625 28.0994C29.8532 22.59 30.2656 22.9624 29.669 22.9624C29.1845 22.9624 29.0244 23.0625 28.2316 23.8312C27.8672 24.1916 27.4188 24.628 27.2386 24.8042L26.9063 25.1205L26.6621 24.8843C26.5299 24.7521 26.3658 24.576 26.2977 24.4919L26.1736 24.3397L28.4758 22.0295C30.8301 19.6592 31.0744 19.3909 31.4868 18.6742C32.8921 16.2398 32.6199 13.1728 30.8061 11.0107C29.8532 9.87363 28.4918 9.05683 27.0264 8.75254C25.6491 8.46025 24.1276 8.64443 22.8423 9.24902C21.8053 9.73349 21.5931 9.91367 18.9705 12.5242L16.6603 14.8265L16.5081 14.7023C16.4241 14.6343 16.2479 14.4701 16.1158 14.338L15.8795 14.0937L16.1958 13.7614C16.372 13.5812 16.8084 13.1328 17.1688 12.7685C17.9375 11.9757 18.0376 11.8155 18.0376 11.3311C18.0376 10.7345 18.41 11.1469 12.9006 5.6375C8.47231 1.20517 7.96381 0.712692 7.7516 0.616596C7.47534 0.492477 7.10297 0.45644 6.86674 0.532516ZM7.90776 4.28418L8.58842 4.96484L6.77465 6.77861L4.96489 8.58838L4.27621 7.8957L3.58354 7.20703L5.3853 5.40527C6.37426 4.41631 7.19506 3.60351 7.20707 3.60351C7.21908 3.60351 7.53539 3.91181 7.90776 4.28418ZM11.1109 7.4873L11.7915 8.16796L9.97778 9.98174L8.16801 11.7915L7.47934 11.0988L6.78666 10.4102L8.58842 8.60839C9.57739 7.61943 10.3982 6.80664 10.4102 6.80664C10.4222 6.80664 10.7385 7.11494 11.1109 7.4873ZM14.29 10.6664L14.9466 11.327L14.7424 11.5593C14.6303 11.6874 13.8215 12.5082 12.9447 13.3851L11.3511 14.9746L10.6705 14.2939L9.98979 13.6133L11.7915 11.8115C12.7805 10.8186 13.6013 10.0098 13.6133 10.0098C13.6253 10.0098 13.9296 10.3061 14.29 10.6664ZM26.1055 11.291C26.582 11.3511 26.9864 11.4672 27.4108 11.6674C27.9113 11.9036 28.2316 12.1278 28.5879 12.4882C29.9693 13.8815 30.1615 16.1237 29.0324 17.7453C28.8922 17.9495 27.5789 19.2908 24.6641 22.2017L20.5 26.3657L17.5692 23.4309L14.6343 20.5L18.7183 16.412C21.2047 13.9216 22.9264 12.2319 23.1186 12.0878C23.9514 11.4592 25.0605 11.1629 26.1055 11.291ZM29.2005 29.1965L27.3868 31.0103L26.7061 30.3296L26.0254 29.6489L27.8352 27.8392L29.649 26.0254L30.3296 26.7061L31.0103 27.3867L29.2005 29.1965ZM32.4037 32.3996L30.5899 34.2134L29.9092 33.5327C29.5369 33.1604 29.2286 32.836 29.2286 32.812C29.2286 32.792 30.0333 31.9672 31.0183 30.9822L32.8121 29.1885L33.5127 29.8892L34.2134 30.5898L32.4037 32.3996ZM35.6068 35.6027L33.793 37.4165L33.1123 36.7358C32.74 36.3635 32.4317 36.0392 32.4317 36.0151C32.4317 35.9951 33.2365 35.1703 34.2214 34.1854L36.0152 32.3916L36.7159 33.0923L37.4165 33.793L35.6068 35.6027Z" fill="white"/>
<path d="M0.981169 34.6298C0.61281 34.7259 0.288494 34.9902 0.120329 35.3345C0.0282396 35.5187 0.0202318 35.5788 0.0242357 36.0352C0.0402513 38.6818 2.31847 40.96 4.96506 40.976C5.43351 40.98 5.47756 40.972 5.66974 40.8719C5.97404 40.7118 6.09816 40.5916 6.25031 40.3114C6.37443 40.0791 6.38644 40.0311 6.38644 39.7188C6.38644 39.4065 6.37443 39.3584 6.25031 39.1262C5.99806 38.6658 5.69777 38.4936 5.03713 38.4335C4.2884 38.3695 3.79592 38.1493 3.30344 37.6568C2.83898 37.1923 2.63078 36.7119 2.56271 35.9431C2.53068 35.5748 2.50666 35.4747 2.39855 35.2705C2.18234 34.8661 1.82599 34.6418 1.36554 34.6138C1.2214 34.6058 1.04924 34.6098 0.981169 34.6298Z" fill="white"/>
</g>
<defs>
<clipPath id="clip0_2421_1234">
<rect width="41" height="41" fill="white"/>
</clipPath>
</defs>
</svg>
