<svg width="27" height="27" viewBox="0 0 27 27" fill="none" xmlns="http://www.w3.org/2000/svg">
<path d="M4.5 14.625V12.375C4.5 9.98805 5.44821 7.69887 7.13604 6.01104C8.82387 4.32321 11.1131 3.375 13.5 3.375C15.8869 3.375 18.1761 4.32321 19.864 6.01104C21.5518 7.69887 22.5 9.98805 22.5 12.375V14.625" stroke="black" stroke-width="2" stroke-linecap="round" stroke-linejoin="round"/>
<path d="M4.5 14.625C4.5 15.2217 4.73705 15.794 5.15901 16.216C5.58097 16.6379 6.15326 16.875 6.75 16.875H7.875V20.25" stroke="black" stroke-width="2" stroke-linecap="round" stroke-linejoin="round"/>
<path d="M22.5 14.625C22.5 15.2217 22.2629 15.794 21.841 16.216C21.419 16.6379 20.8467 16.875 20.25 16.875H19.125V20.25" stroke="black" stroke-width="2" stroke-linecap="round" stroke-linejoin="round"/>
<path d="M13.5 23.625H15.75C16.3467 23.625 16.919 23.3879 17.341 22.966C17.7629 22.544 18 21.9717 18 21.375V20.25" stroke="black" stroke-width="2" stroke-linecap="round" stroke-linejoin="round"/>
</svg>
