<svg width="92" height="30" viewBox="0 0 92 30" fill="none" xmlns="http://www.w3.org/2000/svg">
<path d="M32.1857 4.6797C33.4898 4.6797 34.5524 3.61543 34.6249 2.27241C34.649 1.81629 34.5042 1.38551 34.2385 1.08143C33.9486 0.752014 33.5139 0.599976 33.0309 0.599976C31.751 0.599976 30.6884 1.63891 30.6159 3.00726C30.5917 3.46338 30.7367 3.89416 31.0023 4.19823C31.2921 4.52766 31.7268 4.6797 32.1857 4.6797Z" fill="currentColor"/>
<path d="M9.00091 22.2403C8.0832 22.2403 7.43115 22.5697 6.80323 23.3554L6.65834 22.3671H5.25762V22.4685C5.18516 22.9245 5.13686 23.406 5.01612 23.8875L3.80859 28.9808H5.69233L6.58588 25.2558C6.73078 24.6477 7.11719 23.6593 8.0832 23.6593C8.54206 23.6593 8.78356 23.8875 8.75941 24.3943C8.75941 24.597 8.71111 24.7744 8.63865 25.0024L7.86585 28.094L7.62434 29.0062H9.58052L10.619 24.6983C10.6673 24.445 10.7156 24.1915 10.7156 23.9635C10.7639 22.8485 10.1118 22.2403 9.00091 22.2403Z" fill="currentColor"/>
<path d="M33.4658 22.2403C32.5481 22.2403 31.896 22.5697 31.268 23.3554L31.1232 22.3671H29.7224V22.4685C29.65 22.9245 29.5775 23.406 29.481 23.8875L28.2734 28.9808H30.1813L31.0748 25.2558C31.2198 24.6477 31.6062 23.6593 32.5722 23.6593C33.0551 23.6593 33.2725 23.8875 33.2485 24.3943C33.2485 24.597 33.176 24.7744 33.1276 25.0024L32.3549 28.094L32.1134 29.0062H34.0454L35.0838 24.6983C35.1321 24.445 35.1805 24.1915 35.1805 23.9635C35.2288 22.8485 34.5767 22.2403 33.4658 22.2403Z" fill="currentColor"/>
<path d="M63.9189 22.1897C63.0012 22.1897 62.3492 22.5192 61.7213 23.3047L61.5763 22.3165H60.1757V22.4178C60.1032 22.8739 60.0307 23.3554 59.9341 23.8368L58.7266 28.9301H60.6345L61.528 25.2052C61.6729 24.6224 62.0593 23.6088 63.0012 23.6088C63.4842 23.6088 63.7016 23.8368 63.6774 24.3436C63.6774 24.5463 63.6291 24.7237 63.5566 24.9518L62.7839 28.0432L62.5423 28.9555H64.4985L65.5369 24.6477C65.5852 24.3944 65.6336 24.1409 65.6336 23.9129C65.6577 22.8233 65.0057 22.1897 63.9189 22.1897Z" fill="currentColor"/>
<path d="M40.3242 22.0629C38.199 22.0629 35.808 23.8875 35.7115 26.8268C35.6632 28.1446 36.3152 28.9807 37.4261 28.9807C38.2472 28.9807 38.9476 28.55 39.4789 27.6631C39.4548 28.2459 39.5996 28.6512 39.9378 28.8286H39.962H41.0004L41.0246 28.7273C41.0487 28.0685 41.1694 27.3083 41.3626 26.4721L42.2803 22.3924L42.2078 22.367C41.8215 22.1897 40.9762 22.0629 40.3242 22.0629ZM39.9861 24.8757C39.6238 26.4214 38.8511 27.5617 38.1507 27.5617C37.716 27.5617 37.4986 27.2577 37.5228 26.6241C37.571 24.9771 38.7544 23.4566 39.9861 23.4566C40.0827 23.4566 40.2035 23.4566 40.3242 23.5073L39.9861 24.8757Z" fill="currentColor"/>
<path d="M70.875 22.0376C68.7498 22.0376 66.3589 23.862 66.2623 26.8015C66.2139 28.1191 66.866 28.9554 67.9769 28.9554C68.7981 28.9554 69.4984 28.5247 70.0297 27.6378C70.0056 28.2205 70.1506 28.6006 70.4886 28.8033H70.5128H71.5512V28.702C71.5995 28.0432 71.6962 27.283 71.8894 26.4467L72.8069 22.367L72.7346 22.3417C72.3722 22.1643 71.5512 22.0376 70.875 22.0376ZM70.5369 24.8757C70.1746 26.4214 69.4018 27.5617 68.7015 27.5617C68.2426 27.5617 68.0494 27.2577 68.0736 26.6241C68.1219 24.9516 69.3052 23.4566 70.5369 23.4566C70.6334 23.4566 70.7543 23.4566 70.875 23.5073L70.5369 24.8757Z" fill="currentColor"/>
<path d="M14.5072 23.5833H16.1494L16.4151 22.4429H14.7729L15.3041 19.7822H14.2174L12.9375 22.4429H11.9473L11.6816 23.5833H12.6718L11.8507 27.1562C11.5126 28.6259 12.4303 29.0567 13.5895 29.0314C14.4106 29.0314 14.8453 28.9553 15.2318 28.8793L15.3766 27.8657C15.1351 27.8657 14.7487 27.891 14.3624 27.8151C13.831 27.6883 13.6137 27.435 13.7827 26.7255L14.5072 23.5833Z" fill="currentColor"/>
<path d="M20.3043 22.2909C18.6378 22.2909 16.899 23.6085 16.416 25.7118C15.9571 27.7897 16.9473 29.0566 18.831 29.0566C20.5216 29.0566 21.077 28.7272 21.5359 28.5498L21.4152 27.4855C21.1495 27.587 20.6423 27.7897 19.7729 27.7897C18.4205 27.7897 18.0341 27.004 18.2514 25.9651L22.4053 25.9398C23.009 23.3552 21.8499 22.2655 20.3043 22.2909ZM20.739 24.8502H18.5413C18.8068 24.1407 19.2415 23.5579 19.9177 23.5579C20.6181 23.5579 20.8113 24.0139 20.739 24.8502Z" fill="currentColor"/>
<path d="M27.9111 22.2658C27.1142 22.2658 26.2688 23.1019 26.0032 23.3807L26.1723 22.4177H24.4576L22.9844 28.8794H24.7957L25.8101 24.4196C26.0998 24.2169 26.7035 23.7608 27.2107 23.7608C27.573 23.7608 27.8386 23.8622 27.9594 23.9381L28.9253 22.5698C28.7805 22.4685 28.4666 22.2658 27.9111 22.2658Z" fill="currentColor"/>
<path d="M46.6041 19.7062H45.5174L44.2375 22.3669H43.2474L43.0059 23.5071H43.9959L43.1749 27.1055C42.8125 28.5752 43.7544 29.0059 44.8895 28.9805C45.7106 28.9805 46.1453 28.9046 46.5318 28.8285L46.6766 27.815C46.4351 27.815 46.0488 27.815 45.6624 27.7642C45.131 27.6376 44.9137 27.3841 45.0827 26.6746L45.8072 23.5071H47.4495L47.7151 22.3669H46.0729L46.6041 19.7062Z" fill="currentColor"/>
<path d="M55.7324 22.1896C53.8728 22.1896 51.9408 23.5073 51.4819 25.5851C51.023 27.663 52.3513 28.9553 54.1868 28.9553C56.0464 28.9553 57.9784 27.6377 58.4372 25.5598C58.9203 23.4819 57.592 22.1642 55.7324 22.1896ZM56.5051 25.5598C56.2637 26.6747 55.3942 27.663 54.5006 27.663C53.4139 27.663 53.1724 26.6747 53.4139 25.5598C53.6796 24.4449 54.3558 23.4565 55.4425 23.4565C56.3603 23.4565 56.7708 24.4449 56.5051 25.5598Z" fill="currentColor"/>
<path d="M19.699 16.9695L21.0997 10.6345C21.3171 9.62091 21.945 7.92314 23.5631 7.92314C24.36 7.92314 24.7464 8.32858 24.7222 9.13946C24.7222 9.46887 24.6257 9.79829 24.5532 10.153L23.3698 15.3984L22.9834 16.9442H26.2678L27.8618 9.64624C27.9584 9.21547 28.0066 8.7847 28.0066 8.37926C28.0308 6.60546 26.944 5.54118 25.0604 5.54118C23.5148 5.54118 22.428 6.09867 21.3894 7.44168L21.0997 5.76924H18.7571L18.7329 5.92129C18.6364 6.68149 18.5397 7.5177 18.3465 8.32858L16.4629 16.9695H19.699Z" fill="currentColor"/>
<path d="M49.2826 10.6345C49.5 9.6209 50.1278 7.92311 51.746 7.92311C52.5429 7.92311 52.9294 8.32855 52.9052 9.13943C52.9052 9.46885 52.8327 9.79826 52.7362 10.153L51.5528 15.4237L51.2146 16.9694H54.4508L56.0448 9.67157C56.1413 9.24079 56.1896 8.81001 56.1896 8.40457C56.2138 6.63078 55.127 5.56651 53.2674 5.56651C51.7218 5.56651 50.635 6.12399 49.5966 7.46701L49.3068 5.79457H46.9642L46.9401 5.94661C46.8434 6.70681 46.7469 7.54302 46.5536 8.3539L44.6699 16.9948H47.8818L49.2826 10.6345Z" fill="currentColor"/>
<path d="M40.3006 5.56651C36.2674 5.56651 33.4177 8.65798 33.3211 13.0925C33.2729 15.9305 35.5429 17.1975 37.7889 17.1975C41.7254 17.1975 44.6717 14.0047 44.7442 9.64623C44.8166 6.83349 42.5707 5.56651 40.3006 5.56651ZM38.2719 14.8409C37.161 14.8409 36.6296 14.1567 36.678 12.763C36.7021 11.0146 37.7647 7.92311 39.7934 7.92311C41.2183 7.92311 41.508 9.03808 41.4838 10.001C41.4357 11.6481 40.2764 14.8409 38.2719 14.8409Z" fill="currentColor"/>
<path d="M70.8978 17.2229C72.4193 17.2229 73.6751 16.4879 74.6653 14.993C74.617 15.9558 74.9308 16.64 75.5589 16.9694L75.5829 16.9948H77.515V16.8174C77.5633 15.6772 77.7565 14.4101 78.0704 13.0164L79.6402 6.12398L79.4953 6.07331C78.7708 5.79457 77.2252 5.56651 75.9936 5.56651C72.0329 5.56651 67.7099 8.63263 67.6133 13.5993C67.6374 15.8292 68.8692 17.2229 70.8978 17.2229ZM75.4622 7.89778C75.6312 7.89778 75.8727 7.89778 76.0901 7.97379L75.5347 10.3304C74.9068 12.9404 73.506 14.8663 72.2261 14.8663C71.4049 14.8663 70.9944 14.3341 71.0185 13.2698C71.0669 10.4571 73.192 7.89778 75.4622 7.89778Z" fill="currentColor"/>
<path d="M60.5148 11.5468H63.0023C65.9727 11.5468 69.0881 9.2662 69.1606 5.31317C69.2089 3.15928 67.4701 1.48685 65.2 1.48685H59.4039L56.2885 15.3984L55.9746 16.9442H59.3555L60.5148 11.5468ZM62.2053 3.97016H63.6785C64.7169 3.97016 65.8037 4.55297 65.7795 5.61725C65.7554 7.59376 64.4031 9.06349 61.8672 9.06349H61.0462L62.2053 3.97016Z" fill="currentColor"/>
<path d="M9.24266 17.1722C13.0825 17.1722 15.3769 15.2717 16.2463 11.3693L18.4198 1.41074H15.0145L14.7972 2.5257C14.773 2.67774 12.8652 11.268 12.8411 11.3693C12.3822 13.4725 11.3196 14.5368 9.70152 14.5368C8.22835 14.5368 7.31064 13.802 7.33479 12.6363C7.33479 12.2816 7.38309 11.9268 7.50385 11.4453L9.70152 1.43608H6.32048L6.12728 2.47501L4.12281 11.4707C4.02621 12.0028 3.95375 12.5096 3.95375 13.0418C3.90545 16.0826 6.65859 17.1722 9.24266 17.1722Z" fill="currentColor"/>
<path d="M30.9056 16.9951L33.3689 5.76945H30.1569L27.9834 15.4493L27.6211 16.9951H30.9056Z" fill="currentColor"/>
<path d="M47.7383 28.8032H49.5496L51.0227 22.3415H49.2114L47.7383 28.8032Z" fill="currentColor"/>
<path d="M50.7338 19.3769C49.9851 19.3769 49.3814 19.9851 49.3572 20.7453C49.3331 20.9986 49.4297 21.2521 49.5746 21.4295C49.7436 21.6069 49.9851 21.7082 50.2508 21.7082C50.9995 21.7082 51.6032 21.1001 51.6515 20.3399C51.6757 20.0864 51.579 19.8331 51.4342 19.6557C51.265 19.4783 51.0237 19.3769 50.7338 19.3769Z" fill="currentColor"/>
<path d="M2.45658 19.1488L0.0898438 28.93H2.16677L4.38859 19.1488H2.45658Z" fill="currentColor"/>
<path d="M88.1421 5.81993L84.3746 13.7513L84.0848 5.81993H80.7278L81.7181 17.4003C81.1142 19.9849 79.0857 19.7062 77.8298 19.7062H77.2744H75.5356C75.3906 19.7062 75.1491 19.7822 75.0284 20.061L74.642 21.8095L73.0723 28.7272H74.8836L76.236 22.6963C76.2842 22.5443 76.4292 22.4175 76.5982 22.4175H78.9649C82.2976 22.4175 83.5776 20.5425 84.6885 18.4899L91.5472 5.81993H88.1421Z" fill="currentColor"/>
</svg>
