<svg width="56" height="57" viewBox="0 0 56 57" fill="none" xmlns="http://www.w3.org/2000/svg">
<path d="M45.9203 36.44C45.9203 37.6771 44.9174 38.68 43.6803 38.68H12.3203V42.04C12.3203 42.6586 12.8218 43.16 13.4403 43.16H49.2803C49.8989 43.16 50.4003 42.6586 50.4003 42.04V21.88C50.4003 21.2615 49.8989 20.76 49.2803 20.76H45.9203V36.44Z" fill="currentColor"/>
<path d="M42.5596 14.04H6.71961C6.10105 14.04 5.59961 14.5414 5.59961 15.16V35.32C5.59961 35.9386 6.10105 36.44 6.71961 36.44H42.5596C43.1781 36.44 43.6796 35.9386 43.6796 35.32V15.16C43.6796 14.5414 43.1781 14.04 42.5596 14.04ZM13.4396 31.96H11.1995C10.581 31.96 10.0796 31.4586 10.0796 30.8401C10.0796 30.2215 10.581 29.72 11.1995 29.72H13.4396C14.0582 29.72 14.5596 30.2214 14.5596 30.8399C14.5596 31.4585 14.0582 31.96 13.4396 31.96ZM24.6396 30.84C21.5517 30.84 19.0396 28.3279 19.0396 25.24C19.0396 22.1521 21.5517 19.64 24.6396 19.64C27.7274 19.64 30.2396 22.1521 30.2396 25.24C30.2396 28.3279 27.7274 30.84 24.6396 30.84ZM38.0796 31.96H35.8395C35.221 31.96 34.7196 31.4586 34.7196 30.8401C34.7196 30.2215 35.221 29.72 35.8395 29.72H38.0796C38.6982 29.72 39.1996 30.2214 39.1996 30.8399C39.1996 31.4585 38.6982 31.96 38.0796 31.96ZM36.9596 23C35.7225 23 34.7196 21.9971 34.7196 20.76C34.7196 19.5228 35.7225 18.52 36.9596 18.52C38.1967 18.52 39.1996 19.5228 39.1996 20.76C39.1996 21.9971 38.1967 23 36.9596 23Z" fill="currentColor"/>
<path d="M24.6393 28.6C26.495 28.6 27.9993 27.0957 27.9993 25.24C27.9993 23.3843 26.495 21.88 24.6393 21.88C22.7837 21.88 21.2793 23.3843 21.2793 25.24C21.2793 27.0957 22.7837 28.6 24.6393 28.6Z" fill="currentColor"/>
</svg>
