<svg width="22" height="21" viewBox="0 0 22 21" fill="none" xmlns="http://www.w3.org/2000/svg">
<mask id="path-1-inside-1_3107_453" fill="white">
<path d="M10.479 7.87502V1.96877H17.5196L19.4397 7.87502M17.5196 14.4375C17.0103 14.4375 16.5219 14.2301 16.1618 13.8609C15.8017 13.4917 15.5994 12.9909 15.5994 12.4688C15.5994 11.9466 15.8017 11.4459 16.1618 11.0767C16.5219 10.7074 17.0103 10.5 17.5196 10.5C18.0288 10.5 18.5172 10.7074 18.8773 11.0767C19.2374 11.4459 19.4397 11.9466 19.4397 12.4688C19.4397 12.9909 19.2374 13.4917 18.8773 13.8609C18.5172 14.2301 18.0288 14.4375 17.5196 14.4375ZM19.3373 1.31252C19.2048 0.927281 18.9586 0.59391 18.6328 0.358706C18.3071 0.123501 17.918 -0.0018636 17.5196 2.09394e-05H10.479V18.375H18.1596V19.6875C18.1596 20.0356 18.2945 20.3695 18.5346 20.6156C18.7746 20.8617 19.1002 21 19.4397 21H20.7198C21.0593 21 21.3849 20.8617 21.625 20.6156C21.8651 20.3695 21.9999 20.0356 21.9999 19.6875V9.18752L19.3373 1.31252Z"/>
</mask>
<path d="M10.479 7.87502V1.96877H17.5196L19.4397 7.87502M17.5196 14.4375C17.0103 14.4375 16.5219 14.2301 16.1618 13.8609C15.8017 13.4917 15.5994 12.9909 15.5994 12.4688C15.5994 11.9466 15.8017 11.4459 16.1618 11.0767C16.5219 10.7074 17.0103 10.5 17.5196 10.5C18.0288 10.5 18.5172 10.7074 18.8773 11.0767C19.2374 11.4459 19.4397 11.9466 19.4397 12.4688C19.4397 12.9909 19.2374 13.4917 18.8773 13.8609C18.5172 14.2301 18.0288 14.4375 17.5196 14.4375ZM19.3373 1.31252C19.2048 0.927281 18.9586 0.59391 18.6328 0.358706C18.3071 0.123501 17.918 -0.0018636 17.5196 2.09394e-05H10.479V18.375H18.1596V19.6875C18.1596 20.0356 18.2945 20.3695 18.5346 20.6156C18.7746 20.8617 19.1002 21 19.4397 21H20.7198C21.0593 21 21.3849 20.8617 21.625 20.6156C21.8651 20.3695 21.9999 20.0356 21.9999 19.6875V9.18752L19.3373 1.31252Z" fill="#214230"/>
<path d="M10.479 1.96877V0.968771H9.479V1.96877H10.479ZM17.5196 1.96877L18.4706 1.65959L18.246 0.968771H17.5196V1.96877ZM19.3373 1.31252L20.2847 0.992219L20.2829 0.987241L19.3373 1.31252ZM17.5196 2.09394e-05V1.00003L17.5243 1.00001L17.5196 2.09394e-05ZM10.479 2.09394e-05V-0.999979H9.479V2.09394e-05H10.479ZM10.479 18.375H9.479V19.375H10.479V18.375ZM18.1596 18.375H19.1596V17.375H18.1596V18.375ZM20.7198 21V20V21ZM21.9999 9.18752H22.9999V9.02304L22.9473 8.86722L21.9999 9.18752ZM10.479 7.87502H11.479V1.96877H10.479H9.479V7.87502H10.479ZM10.479 1.96877V2.96877H17.5196V1.96877V0.968771H10.479V1.96877ZM17.5196 1.96877L16.5686 2.27795L18.4887 8.1842L19.4397 7.87502L20.3907 7.56584L18.4706 1.65959L17.5196 1.96877ZM17.5196 14.4375V13.4375C17.2837 13.4375 17.0523 13.3417 16.8777 13.1627L16.1618 13.8609L15.4459 14.5591C15.9915 15.1185 16.7369 15.4375 17.5196 15.4375V14.4375ZM16.1618 13.8609L16.8777 13.1627C16.7023 12.9828 16.5994 12.7337 16.5994 12.4688H15.5994H14.5994C14.5994 13.2482 14.9012 14.0005 15.4459 14.5591L16.1618 13.8609ZM15.5994 12.4688H16.5994C16.5994 12.2039 16.7023 11.9547 16.8777 11.7749L16.1618 11.0767L15.4459 10.3784C14.9012 10.937 14.5994 11.6894 14.5994 12.4688H15.5994ZM16.1618 11.0767L16.8777 11.7749C17.0523 11.5959 17.2837 11.5 17.5196 11.5V10.5V9.50002C16.7369 9.50002 15.9915 9.81903 15.4459 10.3784L16.1618 11.0767ZM17.5196 10.5V11.5C17.7554 11.5 17.9868 11.5959 18.1614 11.7749L18.8773 11.0767L19.5932 10.3784C19.0476 9.81903 18.3022 9.50002 17.5196 9.50002V10.5ZM18.8773 11.0767L18.1614 11.7749C18.3369 11.9547 18.4397 12.2039 18.4397 12.4688H19.4397H20.4397C20.4397 11.6894 20.138 10.937 19.5932 10.3784L18.8773 11.0767ZM19.4397 12.4688H18.4397C18.4397 12.7337 18.3369 12.9828 18.1614 13.1627L18.8773 13.8609L19.5932 14.5591C20.138 14.0005 20.4397 13.2482 20.4397 12.4688H19.4397ZM18.8773 13.8609L18.1614 13.1627C17.9868 13.3417 17.7554 13.4375 17.5196 13.4375V14.4375V15.4375C18.3022 15.4375 19.0476 15.1185 19.5932 14.5591L18.8773 13.8609ZM19.3373 1.31252L20.2829 0.987241C20.0843 0.40981 19.7137 -0.094257 19.2182 -0.452041L18.6328 0.358706L18.0474 1.16945C18.2034 1.28208 18.3253 1.44475 18.3917 1.6378L19.3373 1.31252ZM18.6328 0.358706L19.2182 -0.452041C18.7223 -0.810096 18.127 -1.00286 17.5148 -0.999968L17.5196 2.09394e-05L17.5243 1.00001C17.709 0.999136 17.8918 1.0571 18.0474 1.16945L18.6328 0.358706ZM17.5196 2.09394e-05V-0.999979H10.479V2.09394e-05V1.00002H17.5196V2.09394e-05ZM10.479 2.09394e-05H9.479V18.375H10.479H11.479V2.09394e-05H10.479ZM10.479 18.375V19.375H18.1596V18.375V17.375H10.479V18.375ZM18.1596 18.375H17.1596V19.6875H18.1596H19.1596V18.375H18.1596ZM18.1596 19.6875H17.1596C17.1596 20.2929 17.3939 20.8783 17.8187 21.3138L18.5346 20.6156L19.2504 19.9174C19.1951 19.8606 19.1596 19.7784 19.1596 19.6875H18.1596ZM18.5346 20.6156L17.8187 21.3138C18.2442 21.7502 18.8268 22 19.4397 22V21V20C19.3736 20 19.305 19.9733 19.2504 19.9174L18.5346 20.6156ZM19.4397 21V22H20.7198V21V20H19.4397V21ZM20.7198 21L20.7198 22C21.3327 22 21.9153 21.7502 22.3409 21.3138L21.625 20.6156L20.9091 19.9174C20.8546 19.9733 20.7859 20 20.7198 20V21ZM21.625 20.6156L22.3409 21.3138C22.7656 20.8783 22.9999 20.2929 22.9999 19.6875H21.9999H20.9999C20.9999 19.7784 20.9645 19.8606 20.9091 19.9174L21.625 20.6156ZM21.9999 19.6875H22.9999V9.18752H21.9999H20.9999V19.6875H21.9999ZM21.9999 9.18752L22.9473 8.86722L20.2846 0.992224L19.3373 1.31252L18.39 1.63282L21.0526 9.50782L21.9999 9.18752Z" fill="#214230" mask="url(#path-1-inside-1_3107_453)"/>
<path d="M4.62746 1.83117C4.78744 1.66715 5.00441 1.57501 5.23064 1.57501C5.45688 1.57501 5.67385 1.66715 5.83383 1.83117L9.21228 5.29512C9.29807 5.37476 9.36719 5.47144 9.41542 5.5793C9.46366 5.68716 9.49002 5.80394 9.49289 5.92257C9.49577 6.04119 9.4751 6.15917 9.43214 6.26935C9.38918 6.37954 9.32483 6.47962 9.243 6.56352C9.16117 6.64743 9.06356 6.7134 8.95609 6.75745C8.84863 6.80149 8.73356 6.82268 8.61787 6.81974C8.50217 6.81679 8.38827 6.78977 8.28307 6.74031C8.17787 6.69085 8.08358 6.61999 8.00591 6.53202L6.0837 4.56222V16.7643C6.07297 16.9888 5.97841 17.2006 5.8196 17.3556C5.6608 17.5106 5.44992 17.5971 5.23064 17.5971C5.01136 17.5971 4.80049 17.5106 4.64168 17.3556C4.48288 17.2006 4.38832 16.9888 4.37758 16.7643V4.56222L2.45435 6.53307L2.45128 6.53622C2.29086 6.69802 2.07458 6.78827 1.84955 6.78732C1.62452 6.78637 1.40898 6.6943 1.24986 6.53115C1.09074 6.368 1.00093 6.147 1.00001 5.91628C0.999081 5.68556 1.08711 5.4638 1.24491 5.29932L1.24798 5.29617L4.62746 1.83117Z" fill="#214230" stroke="#214230" stroke-width="0.5"/>
</svg>
